<?xml version="1.0" encoding="utf-8"?>
<!-- Generator: Adobe Illustrator 26.0.0, SVG Export Plug-In . SVG Version: 6.00 Build 0)  -->
<svg version="1.1" id="Capa_1" xmlns="http://www.w3.org/2000/svg" xmlns:xlink="http://www.w3.org/1999/xlink" x="0px" y="0px"
	 viewBox="0 0 228.13 99.72" style="enable-background:new 0 0 228.13 99.72;" xml:space="preserve">
<style type="text/css">
	.st0{fill:#1E1E1C;}
</style>
<g>
	<path class="st0" d="M92.43,54.45c0,0.02-0.01,0.09-0.03,0.21c-0.02,0.12-0.06,0.24-0.1,0.37c-0.05,0.13-0.11,0.25-0.18,0.35
		c-0.07,0.1-0.16,0.16-0.26,0.16c-0.1,0-0.19-0.01-0.25-0.02c-0.06-0.01-0.14-0.02-0.22-0.02c-0.2,0-0.36-0.02-0.49-0.06
		c-0.13-0.04-0.22-0.11-0.29-0.21c-0.07-0.1-0.12-0.23-0.14-0.4c-0.02-0.17-0.04-0.38-0.04-0.63c0-0.27,0.02-0.58,0.06-0.93
		c0.04-0.35,0.09-0.72,0.15-1.11c0.06-0.39,0.13-0.8,0.21-1.21c0.08-0.42,0.16-0.84,0.24-1.25s0.17-0.82,0.25-1.21
		s0.15-0.76,0.21-1.1c-0.2,0.24-0.42,0.5-0.64,0.77c-0.22,0.27-0.44,0.54-0.67,0.81c-0.22,0.27-0.44,0.53-0.65,0.78
		c-0.21,0.25-0.41,0.48-0.59,0.68s-0.34,0.38-0.48,0.53s-0.24,0.25-0.32,0.31c-0.07,0.06-0.14,0.13-0.22,0.24s-0.16,0.21-0.23,0.32
		c-0.07,0.11-0.14,0.22-0.19,0.32c-0.06,0.1-0.09,0.18-0.11,0.23c-0.04,0.12-0.09,0.23-0.13,0.34s-0.1,0.19-0.17,0.27
		c-0.07,0.07-0.15,0.13-0.24,0.18c-0.1,0.04-0.22,0.06-0.37,0.06c-0.04,0-0.11-0.02-0.19-0.06c-0.08-0.04-0.17-0.1-0.27-0.16
		s-0.18-0.13-0.27-0.2s-0.14-0.13-0.18-0.18c-0.04-0.06-0.1-0.2-0.2-0.42c-0.09-0.22-0.2-0.49-0.33-0.82
		c-0.13-0.32-0.26-0.68-0.41-1.07s-0.29-0.78-0.44-1.18s-0.29-0.77-0.42-1.14c-0.14-0.37-0.25-0.69-0.36-0.96
		c-0.1,0.38-0.2,0.77-0.3,1.18c-0.11,0.41-0.21,0.82-0.31,1.24c-0.1,0.42-0.19,0.83-0.28,1.24c-0.09,0.41-0.17,0.81-0.24,1.2
		c-0.07,0.39-0.12,0.75-0.16,1.1c-0.04,0.35-0.06,0.66-0.06,0.95c0,0.19-0.03,0.38-0.08,0.58s-0.12,0.38-0.2,0.54
		s-0.17,0.3-0.28,0.41s-0.2,0.16-0.3,0.16c-0.09,0-0.18-0.01-0.27-0.04s-0.19-0.06-0.29-0.1c-0.06-0.03-0.12-0.07-0.18-0.14
		c-0.06-0.07-0.12-0.14-0.17-0.23s-0.09-0.19-0.12-0.29c-0.03-0.1-0.05-0.21-0.05-0.3c0-0.27,0.04-0.63,0.12-1.09
		c0.08-0.46,0.19-0.99,0.33-1.59c0.14-0.6,0.3-1.26,0.5-1.99s0.4-1.48,0.62-2.26c0.06-0.22,0.13-0.46,0.2-0.69
		c0.07-0.24,0.13-0.47,0.19-0.69c0.06-0.22,0.11-0.43,0.16-0.61c0.05-0.19,0.08-0.34,0.09-0.46c0.01-0.11,0.03-0.26,0.05-0.45
		c0.02-0.19,0.05-0.38,0.11-0.56c0.05-0.18,0.13-0.34,0.23-0.48s0.25-0.2,0.43-0.2c0.09,0,0.2,0.03,0.35,0.08s0.29,0.13,0.44,0.21
		c0.15,0.08,0.28,0.18,0.4,0.28c0.12,0.1,0.2,0.2,0.25,0.29c0.03,0.07,0.06,0.14,0.09,0.24c0.03,0.09,0.05,0.19,0.08,0.29
		c0.02,0.1,0.05,0.21,0.07,0.31c0.02,0.1,0.05,0.21,0.07,0.3c0.01,0.05,0.05,0.17,0.11,0.37c0.06,0.2,0.13,0.44,0.22,0.74
		s0.19,0.62,0.3,0.97c0.11,0.35,0.23,0.71,0.35,1.07c0.12,0.36,0.25,0.7,0.37,1.04c0.13,0.33,0.25,0.63,0.37,0.88
		c0.39-0.45,0.81-0.9,1.24-1.36s0.87-0.91,1.3-1.38c0.43-0.47,0.84-0.95,1.23-1.44c0.39-0.49,0.73-1,1.02-1.53
		c0.05-0.1,0.13-0.24,0.24-0.42c0.11-0.18,0.23-0.35,0.37-0.52c0.14-0.17,0.27-0.32,0.42-0.44c0.14-0.12,0.28-0.19,0.4-0.19
		c0.07,0,0.18,0.01,0.31,0.04c0.14,0.03,0.27,0.08,0.4,0.14c0.13,0.07,0.25,0.15,0.34,0.26s0.15,0.24,0.15,0.39
		c0,0.11-0.02,0.23-0.07,0.37s-0.1,0.29-0.17,0.44c-0.06,0.16-0.13,0.31-0.2,0.47c-0.07,0.16-0.12,0.3-0.16,0.44
		c-0.08,0.29-0.17,0.64-0.26,1.04s-0.18,0.83-0.26,1.28c-0.08,0.45-0.16,0.91-0.24,1.37c-0.08,0.46-0.14,0.9-0.2,1.32
		c-0.06,0.42-0.1,0.79-0.14,1.13c-0.03,0.33-0.05,0.6-0.05,0.79c0,0.26,0.02,0.54,0.05,0.82C92.41,53.81,92.43,54.12,92.43,54.45z"
		/>
	<path class="st0" d="M106.4,49.71c0.07-0.08,0.14-0.15,0.22-0.22c0.08-0.07,0.16-0.1,0.25-0.1s0.16,0.03,0.2,0.1
		s0.06,0.18,0.06,0.34c0,0.14-0.02,0.29-0.07,0.45c-0.05,0.17-0.11,0.3-0.19,0.42c-0.1,0.13-0.22,0.28-0.37,0.45
		c-0.15,0.17-0.31,0.35-0.49,0.53c-0.18,0.19-0.37,0.37-0.57,0.56c-0.2,0.19-0.39,0.36-0.59,0.53c-0.2,0.17-0.39,0.32-0.57,0.46
		c-0.19,0.14-0.36,0.25-0.52,0.33c-0.19,0.1-0.36,0.18-0.52,0.24c-0.16,0.07-0.31,0.12-0.47,0.16c-0.16,0.04-0.31,0.08-0.47,0.09
		c-0.16,0.02-0.33,0.03-0.52,0.03c-0.22,0-0.41-0.05-0.58-0.16c-0.17-0.11-0.32-0.26-0.44-0.45c-0.12-0.19-0.22-0.42-0.29-0.7
		c-0.07-0.27-0.1-0.57-0.1-0.9c-0.16,0.21-0.34,0.42-0.53,0.64s-0.38,0.43-0.58,0.64c-0.2,0.21-0.4,0.4-0.6,0.58
		c-0.2,0.18-0.39,0.34-0.58,0.48c-0.18,0.14-0.36,0.25-0.51,0.32c-0.16,0.08-0.3,0.12-0.41,0.12c-0.25,0-0.47-0.05-0.65-0.14
		c-0.18-0.09-0.33-0.21-0.45-0.35c-0.12-0.15-0.2-0.31-0.26-0.49c-0.06-0.18-0.08-0.36-0.08-0.53c0-0.08,0-0.18,0.01-0.3
		c0.01-0.12,0.02-0.24,0.03-0.37c0.01-0.12,0.03-0.25,0.05-0.37c0.02-0.12,0.05-0.23,0.08-0.32c0.08-0.3,0.2-0.62,0.35-0.96
		c0.15-0.33,0.32-0.66,0.51-0.99s0.4-0.65,0.63-0.96c0.23-0.31,0.46-0.59,0.7-0.85c0.24-0.25,0.48-0.47,0.72-0.65
		c0.24-0.18,0.47-0.31,0.69-0.38c0.05-0.03,0.13-0.06,0.22-0.09c0.1-0.03,0.2-0.06,0.31-0.08c0.11-0.03,0.22-0.05,0.32-0.06
		c0.1-0.01,0.19-0.02,0.25-0.02c0.13,0,0.24,0.03,0.34,0.08c0.1,0.05,0.2,0.12,0.28,0.21c0.08,0.09,0.15,0.18,0.2,0.29
		s0.09,0.22,0.11,0.33c0.09,0.01,0.17,0.02,0.25,0.05s0.16,0.06,0.22,0.11c0.07,0.04,0.12,0.1,0.16,0.17
		c0.04,0.07,0.06,0.15,0.06,0.23c0,0.05-0.01,0.12-0.03,0.21c-0.02,0.09-0.04,0.19-0.06,0.3c-0.02,0.11-0.05,0.22-0.09,0.33
		c-0.03,0.11-0.06,0.22-0.09,0.32c-0.03,0.1-0.06,0.23-0.09,0.38c-0.03,0.15-0.06,0.31-0.08,0.46c-0.02,0.16-0.04,0.32-0.06,0.47
		c-0.01,0.16-0.02,0.29-0.02,0.41c0,0.52,0.06,0.91,0.17,1.16s0.29,0.37,0.54,0.37c0.12,0,0.27-0.04,0.46-0.11
		c0.19-0.08,0.39-0.18,0.62-0.32c0.23-0.13,0.47-0.29,0.72-0.48c0.26-0.18,0.51-0.38,0.77-0.6c0.26-0.22,0.51-0.44,0.75-0.68
		C105.97,50.2,106.19,49.96,106.4,49.71z M99.12,51.6c0.15-0.17,0.3-0.37,0.46-0.61c0.16-0.24,0.32-0.5,0.47-0.78
		c0.15-0.28,0.29-0.58,0.41-0.89c0.12-0.31,0.2-0.61,0.26-0.91c-0.03-0.12-0.07-0.19-0.13-0.23c-0.06-0.04-0.11-0.06-0.16-0.06
		c-0.11,0-0.22,0.02-0.34,0.07c-0.12,0.05-0.23,0.1-0.34,0.15c-0.13,0.07-0.29,0.19-0.47,0.37c-0.18,0.18-0.37,0.4-0.56,0.65
		c-0.19,0.25-0.38,0.53-0.57,0.83s-0.35,0.6-0.5,0.9s-0.27,0.59-0.35,0.87c-0.09,0.28-0.13,0.52-0.13,0.73c0,0.06,0,0.11,0.01,0.18
		c0.01,0.06,0.02,0.12,0.03,0.17s0.03,0.09,0.06,0.13c0.02,0.03,0.06,0.05,0.09,0.05s0.11-0.04,0.22-0.11
		c0.11-0.08,0.24-0.18,0.4-0.32c0.16-0.14,0.33-0.3,0.53-0.5S98.92,51.84,99.12,51.6z"/>
	<path class="st0" d="M123.72,49.81c0,0.15-0.03,0.3-0.09,0.46s-0.14,0.31-0.23,0.46c-0.09,0.15-0.19,0.29-0.29,0.42
		s-0.19,0.25-0.27,0.35c-0.2,0.25-0.41,0.5-0.63,0.76c-0.22,0.26-0.46,0.5-0.71,0.74c-0.25,0.24-0.51,0.46-0.79,0.67
		s-0.56,0.39-0.86,0.55s-0.61,0.28-0.93,0.37s-0.65,0.13-1,0.13c-0.28,0-0.53-0.03-0.77-0.1c-0.24-0.07-0.45-0.2-0.62-0.39
		s-0.31-0.45-0.41-0.79s-0.15-0.76-0.15-1.28c0-0.12,0.01-0.26,0.03-0.43s0.05-0.36,0.08-0.55c0.03-0.2,0.07-0.39,0.12-0.59
		c0.05-0.2,0.1-0.37,0.16-0.53c-0.03,0.06-0.09,0.17-0.18,0.33s-0.18,0.33-0.28,0.5c-0.1,0.18-0.19,0.35-0.28,0.5
		c-0.09,0.16-0.15,0.27-0.19,0.33c-0.17,0.26-0.37,0.54-0.59,0.85c-0.23,0.31-0.48,0.59-0.75,0.85c-0.27,0.26-0.56,0.48-0.87,0.66
		c-0.3,0.17-0.62,0.26-0.95,0.26c-0.16,0-0.33-0.04-0.5-0.11s-0.33-0.19-0.48-0.34c-0.15-0.16-0.27-0.36-0.36-0.62
		c-0.09-0.26-0.14-0.57-0.14-0.93c0-0.07,0.01-0.2,0.03-0.38c0.02-0.18,0.04-0.38,0.07-0.6s0.05-0.43,0.08-0.64
		c0.03-0.21,0.05-0.38,0.07-0.5c-0.04,0.1-0.1,0.21-0.16,0.35c-0.07,0.14-0.14,0.29-0.21,0.45c-0.07,0.16-0.15,0.32-0.23,0.48
		c-0.08,0.17-0.16,0.32-0.23,0.46s-0.14,0.28-0.2,0.39s-0.12,0.21-0.16,0.27c-0.45,0.64-0.92,1.11-1.41,1.42
		c-0.49,0.3-1.03,0.46-1.63,0.46c-0.22,0-0.44-0.04-0.67-0.11c-0.23-0.07-0.43-0.19-0.62-0.34c-0.19-0.15-0.34-0.35-0.46-0.58
		c-0.12-0.24-0.18-0.52-0.18-0.84c0-0.11,0.01-0.21,0.03-0.31s0.07-0.2,0.13-0.3c0.05-0.08,0.14-0.15,0.25-0.2s0.22-0.08,0.3-0.08
		c0.21,0,0.39,0.08,0.53,0.23c0.15,0.15,0.23,0.35,0.24,0.6c0,0.11,0.03,0.2,0.08,0.28c0.05,0.07,0.11,0.13,0.18,0.18
		s0.14,0.08,0.21,0.1c0.08,0.02,0.14,0.03,0.2,0.03c0.2-0.03,0.39-0.09,0.57-0.2c0.18-0.11,0.36-0.24,0.53-0.4s0.33-0.34,0.48-0.54
		s0.29-0.41,0.43-0.63s0.26-0.43,0.37-0.65c0.11-0.22,0.21-0.42,0.3-0.61c0.12-0.26,0.24-0.49,0.36-0.69s0.23-0.37,0.35-0.53
		s0.22-0.29,0.33-0.4c0.11-0.11,0.21-0.21,0.32-0.3c0.02-0.02,0.06-0.04,0.12-0.06c0.06-0.03,0.12-0.05,0.19-0.08
		c0.07-0.03,0.13-0.05,0.2-0.07c0.07-0.02,0.11-0.03,0.14-0.03c0.06,0,0.13,0.01,0.22,0.02c0.09,0.01,0.17,0.04,0.26,0.08
		c0.08,0.04,0.15,0.11,0.21,0.19c0.06,0.09,0.09,0.2,0.09,0.35c0,0.17-0.01,0.3-0.02,0.4c-0.01,0.09-0.03,0.18-0.06,0.27
		c-0.03,0.15-0.06,0.32-0.09,0.51s-0.04,0.38-0.06,0.58s-0.03,0.4-0.04,0.59c-0.01,0.2-0.01,0.38-0.01,0.56
		c0,0.38,0.02,0.67,0.07,0.88c0.05,0.2,0.12,0.3,0.2,0.3c0.12,0,0.25-0.03,0.36-0.08s0.22-0.11,0.31-0.18
		c0.09-0.07,0.18-0.14,0.24-0.22s0.12-0.13,0.15-0.17c0.25-0.29,0.51-0.62,0.78-0.99c0.28-0.37,0.54-0.74,0.79-1.11
		c0.25-0.38,0.49-0.74,0.7-1.1c0.21-0.36,0.38-0.67,0.51-0.95c0.04-0.08,0.09-0.16,0.15-0.25c0.06-0.08,0.13-0.16,0.21-0.23
		c0.08-0.07,0.17-0.13,0.27-0.18c0.1-0.05,0.2-0.07,0.31-0.07c0.04,0,0.1,0.02,0.18,0.05c0.08,0.03,0.16,0.08,0.24,0.14
		s0.15,0.13,0.2,0.21c0.06,0.08,0.09,0.16,0.09,0.25c0,0.05-0.01,0.11-0.03,0.2c-0.02,0.09-0.04,0.19-0.07,0.31
		c-0.04,0.16-0.07,0.32-0.1,0.46c-0.03,0.14-0.06,0.31-0.1,0.5c-0.04,0.17-0.08,0.36-0.12,0.57c-0.04,0.21-0.08,0.44-0.11,0.67
		c-0.03,0.23-0.06,0.47-0.08,0.72c-0.02,0.25-0.03,0.48-0.03,0.71c0,0.27,0.03,0.5,0.09,0.67s0.14,0.31,0.22,0.4
		c0.09,0.1,0.19,0.16,0.29,0.19s0.2,0.05,0.29,0.05c0.23,0,0.5-0.06,0.79-0.17c0.3-0.11,0.6-0.27,0.92-0.46
		c0.32-0.19,0.63-0.41,0.94-0.66c0.31-0.25,0.58-0.51,0.83-0.78c0.08-0.09,0.16-0.19,0.25-0.3c0.09-0.12,0.19-0.24,0.28-0.37
		c0.11-0.15,0.23-0.3,0.36-0.45c0.13-0.16,0.27-0.31,0.42-0.46c0.06-0.07,0.12-0.12,0.17-0.16c0.05-0.04,0.11-0.06,0.18-0.06
		c0.08,0,0.15,0.03,0.22,0.08S123.72,49.67,123.72,49.81z"/>
	<path class="st0" d="M135.02,49.7c0,0.06-0.03,0.17-0.09,0.33c-0.05,0.16-0.13,0.33-0.24,0.51c-0.16,0.25-0.34,0.53-0.55,0.83
		c-0.21,0.3-0.45,0.6-0.7,0.9c-0.25,0.3-0.52,0.58-0.8,0.86c-0.29,0.28-0.58,0.52-0.88,0.73c-0.3,0.21-0.61,0.38-0.92,0.51
		c-0.31,0.13-0.62,0.19-0.92,0.19c-0.61,0-1.09-0.23-1.43-0.68c-0.34-0.45-0.51-1.15-0.52-2.1c-0.13,0.18-0.28,0.37-0.44,0.56
		c-0.16,0.19-0.32,0.38-0.49,0.56c-0.17,0.18-0.33,0.35-0.49,0.51c-0.16,0.16-0.31,0.3-0.45,0.42c-0.38,0.33-0.75,0.6-1.11,0.81
		c-0.36,0.22-0.73,0.32-1.08,0.32c-0.07,0-0.18-0.03-0.33-0.08c-0.15-0.05-0.3-0.14-0.45-0.27s-0.29-0.3-0.4-0.51
		c-0.11-0.22-0.17-0.49-0.17-0.81c0-0.31,0.02-0.6,0.05-0.88c0.03-0.27,0.08-0.54,0.13-0.81c0.06-0.26,0.12-0.53,0.2-0.8
		s0.16-0.55,0.25-0.84c0.03-0.11,0.08-0.24,0.13-0.39c0.05-0.15,0.1-0.3,0.15-0.44c0.05-0.14,0.1-0.27,0.13-0.38
		c0.04-0.11,0.06-0.17,0.06-0.19c0.01-0.09,0.05-0.18,0.12-0.29c0.07-0.11,0.15-0.21,0.24-0.3c0.09-0.1,0.19-0.18,0.29-0.24
		c0.1-0.06,0.18-0.1,0.25-0.1c0.14,0,0.26,0.03,0.36,0.1c0.11,0.06,0.2,0.14,0.27,0.23s0.13,0.19,0.16,0.28s0.05,0.18,0.05,0.25
		c0,0.04-0.01,0.11-0.04,0.2c-0.03,0.09-0.06,0.2-0.11,0.32c-0.05,0.12-0.1,0.25-0.16,0.39s-0.12,0.28-0.19,0.42
		c-0.09,0.19-0.18,0.42-0.26,0.67c-0.08,0.26-0.15,0.52-0.21,0.79c-0.06,0.27-0.11,0.54-0.14,0.79c-0.04,0.26-0.05,0.48-0.05,0.67
		c0,0.04,0,0.08,0,0.13c0,0.05,0.01,0.1,0.02,0.15c0.01,0.05,0.03,0.09,0.05,0.12c0.02,0.04,0.04,0.05,0.07,0.05
		c0.1,0,0.24-0.05,0.4-0.15c0.17-0.1,0.35-0.23,0.54-0.4c0.2-0.16,0.4-0.34,0.61-0.54c0.21-0.2,0.41-0.4,0.6-0.6
		c0.19-0.2,0.37-0.39,0.53-0.57c0.16-0.18,0.29-0.33,0.38-0.44c0.22-0.27,0.42-0.53,0.59-0.79c0.17-0.26,0.33-0.54,0.49-0.84
		c0.08-0.15,0.16-0.29,0.23-0.41c0.07-0.12,0.14-0.22,0.21-0.31c0.07-0.08,0.15-0.15,0.23-0.19c0.08-0.04,0.17-0.06,0.27-0.06
		c0.19,0,0.34,0.06,0.46,0.19c0.12,0.12,0.18,0.34,0.18,0.64c0,0.03-0.02,0.1-0.07,0.21s-0.09,0.24-0.15,0.38
		c-0.06,0.13-0.11,0.26-0.16,0.38c-0.05,0.12-0.08,0.19-0.09,0.22c-0.05,0.14-0.1,0.3-0.13,0.48c-0.04,0.18-0.06,0.35-0.09,0.53
		c-0.02,0.17-0.04,0.34-0.04,0.5c-0.01,0.16-0.01,0.3-0.01,0.42c0,0.39,0.07,0.7,0.22,0.92c0.15,0.22,0.35,0.33,0.61,0.33
		c0.18,0,0.37-0.05,0.58-0.14s0.43-0.22,0.66-0.38c0.23-0.16,0.46-0.35,0.69-0.56c0.23-0.21,0.46-0.43,0.68-0.66s0.43-0.46,0.63-0.7
		s0.38-0.46,0.54-0.67c0.06-0.07,0.12-0.14,0.19-0.22s0.14-0.14,0.21-0.2c0.07-0.06,0.13-0.11,0.2-0.14s0.11-0.06,0.15-0.06
		c0.03,0,0.07,0,0.11,0.01c0.04,0,0.07,0.02,0.11,0.04c0.03,0.02,0.06,0.06,0.08,0.1C135.01,49.56,135.02,49.62,135.02,49.7z"/>
	<path class="st0" d="M145.7,49.96c0,0.06-0.03,0.16-0.1,0.31s-0.17,0.33-0.32,0.57c-0.15,0.24-0.35,0.52-0.59,0.85
		c-0.25,0.33-0.55,0.71-0.91,1.14c-0.22,0.25-0.46,0.52-0.73,0.79c-0.27,0.27-0.55,0.51-0.86,0.74c-0.3,0.22-0.63,0.4-0.96,0.54
		c-0.34,0.14-0.68,0.21-1.04,0.21c-0.3,0-0.57-0.05-0.78-0.14s-0.4-0.23-0.54-0.41c-0.14-0.17-0.24-0.39-0.31-0.64
		c-0.07-0.25-0.1-0.54-0.1-0.85c0-0.19,0.01-0.44,0.03-0.74s0.06-0.6,0.12-0.91c-0.09,0.09-0.22,0.16-0.37,0.23
		s-0.34,0.13-0.54,0.18c-0.21,0.05-0.44,0.1-0.69,0.15s-0.52,0.08-0.8,0.12c-0.03,0.01-0.06,0.03-0.09,0.07
		c-0.03,0.04-0.05,0.09-0.06,0.15c-0.02,0.06-0.03,0.12-0.04,0.18s-0.02,0.12-0.03,0.18c-0.02,0.14-0.04,0.29-0.06,0.47
		c-0.02,0.18-0.03,0.37-0.03,0.56c0.01,0.06,0.01,0.13,0.01,0.23c0,0.1,0,0.2,0,0.29c0,0.07,0,0.13-0.01,0.2
		c0,0.07-0.02,0.14-0.04,0.21c-0.04,0.11-0.07,0.21-0.09,0.32c-0.02,0.1-0.05,0.2-0.1,0.28c-0.04,0.08-0.11,0.15-0.2,0.2
		c-0.09,0.05-0.23,0.08-0.41,0.08c-0.17,0-0.32-0.03-0.43-0.09s-0.2-0.13-0.26-0.23c-0.06-0.09-0.11-0.2-0.13-0.32
		s-0.03-0.25-0.03-0.37c0-0.13,0-0.26,0.01-0.38c0.01-0.12,0.01-0.21,0.01-0.27c0-0.05,0.01-0.13,0.03-0.25
		c0.02-0.11,0.05-0.25,0.07-0.4c0.03-0.15,0.05-0.31,0.07-0.48s0.03-0.34,0.03-0.5c0-0.04-0.02-0.08-0.05-0.11
		c-0.03-0.03-0.07-0.07-0.1-0.11c-0.04-0.04-0.07-0.09-0.1-0.16c-0.03-0.07-0.05-0.15-0.05-0.26c0-0.12,0.02-0.21,0.07-0.29
		c0.04-0.07,0.09-0.14,0.14-0.19c0.05-0.05,0.1-0.1,0.15-0.14c0.05-0.04,0.07-0.09,0.08-0.14c0.02-0.2,0.04-0.41,0.06-0.64
		c0.02-0.23,0.04-0.45,0.05-0.66c0.02-0.22,0.03-0.42,0.05-0.62c0.02-0.2,0.03-0.37,0.05-0.51c0-0.07,0.02-0.17,0.06-0.3
		c0.03-0.13,0.09-0.26,0.16-0.4c0.07-0.13,0.16-0.25,0.27-0.35c0.11-0.1,0.25-0.15,0.41-0.15c0.15,0,0.27,0.04,0.36,0.12
		c0.09,0.08,0.16,0.18,0.21,0.29c0.05,0.11,0.08,0.23,0.1,0.35c0.02,0.12,0.03,0.22,0.03,0.3c0,0.04-0.01,0.13-0.04,0.28
		c-0.03,0.14-0.05,0.32-0.08,0.51s-0.06,0.41-0.08,0.64c-0.03,0.23-0.04,0.44-0.04,0.64c0,0.04,0,0.09,0,0.16
		c0,0.07-0.01,0.1-0.01,0.1c0.29,0,0.58-0.01,0.85-0.03c0.27-0.02,0.52-0.06,0.74-0.1c0.23-0.05,0.42-0.1,0.58-0.17
		c0.16-0.07,0.28-0.14,0.36-0.22c0.07-0.08,0.14-0.19,0.2-0.32c0.06-0.13,0.11-0.28,0.15-0.43c0.04-0.16,0.07-0.31,0.1-0.48
		c0.03-0.16,0.04-0.31,0.05-0.45c0.01-0.15,0.03-0.28,0.07-0.41s0.09-0.24,0.16-0.33c0.07-0.09,0.16-0.16,0.27-0.22
		c0.11-0.05,0.25-0.08,0.41-0.08c0.13,0,0.24,0.03,0.33,0.08s0.16,0.12,0.21,0.21c0.05,0.09,0.09,0.19,0.12,0.3s0.04,0.24,0.04,0.36
		c0,0.12-0.02,0.26-0.05,0.43c-0.03,0.16-0.07,0.33-0.12,0.5s-0.09,0.33-0.15,0.5c-0.05,0.16-0.1,0.31-0.14,0.44
		c-0.02,0.08-0.05,0.2-0.09,0.35s-0.07,0.33-0.1,0.53c-0.03,0.2-0.06,0.42-0.08,0.66c-0.02,0.24-0.04,0.48-0.04,0.73
		c0,0.21,0.02,0.4,0.05,0.54c0.03,0.15,0.08,0.27,0.13,0.37s0.12,0.16,0.2,0.2c0.08,0.04,0.16,0.06,0.24,0.06
		c0.13,0,0.27-0.02,0.43-0.07c0.15-0.05,0.32-0.12,0.5-0.23c0.18-0.1,0.37-0.24,0.58-0.42c0.21-0.17,0.43-0.38,0.67-0.63
		c0.2-0.21,0.39-0.43,0.58-0.65c0.19-0.22,0.37-0.44,0.55-0.65s0.34-0.41,0.5-0.59c0.16-0.18,0.3-0.35,0.43-0.49
		s0.24-0.25,0.34-0.33c0.1-0.08,0.18-0.12,0.24-0.12c0.07,0,0.13,0.02,0.17,0.05c0.04,0.03,0.07,0.08,0.09,0.13s0.04,0.11,0.04,0.16
		S145.7,49.91,145.7,49.96z"/>
	<path class="st0" d="M152.69,50.12c0,0.12-0.04,0.27-0.13,0.45c-0.08,0.18-0.2,0.38-0.35,0.6c-0.15,0.22-0.32,0.46-0.53,0.71
		c-0.2,0.25-0.42,0.51-0.66,0.77c-0.26,0.29-0.53,0.57-0.83,0.85c-0.3,0.28-0.62,0.55-0.96,0.81c-0.33,0.25-0.66,0.45-0.99,0.59
		s-0.63,0.21-0.92,0.21c-0.34,0-0.63-0.06-0.88-0.18c-0.25-0.12-0.46-0.28-0.64-0.49c-0.18-0.21-0.32-0.44-0.43-0.71
		c-0.11-0.27-0.2-0.55-0.26-0.85c-0.07-0.3-0.11-0.6-0.13-0.9c-0.02-0.31-0.04-0.59-0.04-0.87c0-0.11,0.01-0.27,0.02-0.48
		c0.01-0.21,0.03-0.44,0.06-0.67c0.03-0.24,0.05-0.46,0.09-0.69c0.03-0.22,0.06-0.39,0.1-0.52c0.07-0.25,0.24-0.49,0.5-0.71
		c0.25-0.21,0.53-0.32,0.84-0.32c0.31,0,0.47,0.2,0.47,0.59c0,0.19-0.02,0.39-0.05,0.6s-0.07,0.42-0.1,0.62
		c-0.06,0.37-0.11,0.7-0.13,1c-0.02,0.3-0.04,0.56-0.04,0.79c0,0.26,0.01,0.51,0.04,0.75c0.03,0.24,0.07,0.46,0.13,0.65
		c0.06,0.19,0.13,0.34,0.21,0.46c0.08,0.12,0.18,0.18,0.3,0.18c0.14,0,0.29-0.01,0.45-0.04s0.34-0.1,0.56-0.22
		c0.42-0.24,0.86-0.56,1.33-0.97c0.16-0.14,0.35-0.31,0.56-0.51c0.21-0.2,0.42-0.4,0.63-0.6s0.4-0.41,0.59-0.61s0.33-0.37,0.44-0.51
		c0.01-0.03,0.04-0.06,0.06-0.1s0.06-0.08,0.09-0.12c0.03-0.04,0.07-0.07,0.11-0.1c0.04-0.03,0.08-0.04,0.12-0.04
		c0.08,0,0.13,0.01,0.17,0.03c0.04,0.02,0.08,0.09,0.12,0.21C152.66,49.93,152.69,50.04,152.69,50.12z M148.18,43.85
		c0,0.17-0.02,0.33-0.07,0.48c-0.05,0.15-0.12,0.29-0.21,0.42c-0.18,0.27-0.47,0.4-0.85,0.4c-0.14,0-0.27-0.01-0.41-0.04
		c-0.14-0.03-0.27-0.06-0.38-0.11c-0.11-0.04-0.2-0.1-0.28-0.17s-0.11-0.15-0.11-0.24c0-0.16,0.04-0.32,0.12-0.5
		c0.08-0.17,0.18-0.34,0.3-0.49c0.12-0.15,0.26-0.27,0.41-0.37c0.15-0.1,0.29-0.15,0.42-0.15c0.17,0,0.32,0.01,0.45,0.03
		c0.13,0.02,0.24,0.06,0.33,0.12s0.16,0.13,0.21,0.24C148.16,43.57,148.18,43.7,148.18,43.85z"/>
</g>
<g>
	<path class="st0" d="M15.07,52.03c-0.28,0.22-0.6,0.44-0.94,0.65c-0.34,0.21-0.7,0.42-1.08,0.6c-0.38,0.19-0.77,0.37-1.18,0.52
		c-0.41,0.16-0.82,0.29-1.23,0.41c-0.41,0.12-0.82,0.21-1.22,0.27s-0.79,0.09-1.16,0.09c-0.35,0-0.67-0.04-0.93-0.12
		c-0.27-0.08-0.5-0.18-0.69-0.31s-0.36-0.29-0.49-0.46c-0.13-0.17-0.24-0.36-0.32-0.57c-0.08-0.2-0.14-0.41-0.17-0.63
		c-0.03-0.21-0.05-0.43-0.05-0.63c0-0.3,0.06-0.64,0.17-1.03c0.12-0.39,0.27-0.8,0.47-1.23c0.2-0.43,0.44-0.88,0.71-1.33
		c0.28-0.45,0.57-0.89,0.9-1.32c0.32-0.43,0.66-0.83,1.02-1.21c0.35-0.38,0.71-0.71,1.07-1c0.36-0.28,0.71-0.51,1.07-0.67
		s0.69-0.25,1-0.25c0.38,0,0.7,0.07,0.95,0.21c0.25,0.14,0.44,0.31,0.58,0.5c0.14,0.2,0.24,0.4,0.29,0.61
		c0.05,0.21,0.08,0.39,0.08,0.54c0,0.04-0.01,0.1-0.02,0.2c-0.01,0.1-0.04,0.22-0.07,0.35c-0.03,0.13-0.08,0.27-0.13,0.42
		c-0.05,0.15-0.12,0.28-0.19,0.4c-0.07,0.12-0.16,0.22-0.26,0.3c-0.1,0.08-0.21,0.12-0.33,0.12c-0.03,0-0.07-0.02-0.12-0.05
		c-0.05-0.04-0.1-0.08-0.15-0.14c-0.05-0.05-0.09-0.12-0.13-0.18c-0.04-0.07-0.05-0.14-0.05-0.2c0-0.05,0.02-0.11,0.06-0.17
		c0.04-0.07,0.08-0.15,0.12-0.26c0.04-0.1,0.08-0.23,0.12-0.37c0.04-0.14,0.06-0.31,0.06-0.5c0-0.18-0.08-0.32-0.23-0.42
		c-0.16-0.11-0.36-0.16-0.62-0.16c-0.22,0-0.46,0.07-0.72,0.2c-0.27,0.14-0.54,0.32-0.83,0.56c-0.29,0.23-0.58,0.51-0.87,0.83
		c-0.3,0.32-0.58,0.65-0.86,1.02c-0.27,0.36-0.53,0.74-0.77,1.12c-0.24,0.39-0.45,0.77-0.63,1.14c-0.18,0.38-0.32,0.74-0.42,1.08
		c-0.1,0.35-0.16,0.66-0.16,0.94c0,0.38,0.07,0.67,0.2,0.88c0.14,0.21,0.31,0.37,0.51,0.47c0.2,0.1,0.43,0.17,0.66,0.19
		c0.24,0.02,0.46,0.03,0.66,0.03c0.43,0,0.86-0.05,1.3-0.14c0.44-0.1,0.86-0.22,1.27-0.36c0.41-0.15,0.79-0.3,1.15-0.47
		c0.36-0.17,0.67-0.33,0.94-0.48c0.25-0.14,0.47-0.28,0.64-0.4s0.32-0.23,0.44-0.32s0.25-0.15,0.36-0.2
		c0.11-0.05,0.25-0.07,0.39-0.07c0.04,0,0.06,0.02,0.08,0.06c0.02,0.04,0.03,0.1,0.02,0.16c0,0.06-0.01,0.13-0.02,0.21
		c-0.01,0.08-0.03,0.15-0.06,0.22s-0.05,0.14-0.09,0.2C15.15,51.95,15.11,52,15.07,52.03z"/>
	<path class="st0" d="M31.05,49.08c0,0.12-0.02,0.25-0.07,0.38c-0.05,0.13-0.11,0.26-0.18,0.38c-0.07,0.12-0.15,0.24-0.23,0.35
		c-0.08,0.11-0.16,0.21-0.22,0.29c-0.26,0.33-0.54,0.67-0.86,1.01c-0.31,0.34-0.65,0.65-1.01,0.92c-0.36,0.28-0.74,0.5-1.15,0.67
		c-0.41,0.17-0.83,0.26-1.27,0.26c-0.23,0-0.44-0.03-0.64-0.1c-0.2-0.07-0.36-0.18-0.51-0.34c-0.14-0.17-0.25-0.39-0.33-0.67
		c-0.08-0.28-0.12-0.64-0.12-1.07c0-0.02,0.01-0.08,0.02-0.17c0.01-0.09,0.03-0.2,0.05-0.33c0.02-0.13,0.05-0.28,0.08-0.44
		s0.06-0.33,0.09-0.49c0.03-0.16,0.07-0.32,0.1-0.46c0.03-0.15,0.06-0.27,0.09-0.38c-0.15,0.22-0.32,0.5-0.51,0.83
		c-0.19,0.33-0.4,0.67-0.63,1.02c-0.1,0.15-0.2,0.31-0.33,0.48c-0.12,0.17-0.25,0.34-0.4,0.51s-0.29,0.33-0.45,0.48
		c-0.16,0.15-0.32,0.29-0.49,0.41c-0.17,0.12-0.34,0.21-0.52,0.28c-0.18,0.07-0.35,0.11-0.53,0.11c-0.12,0-0.25-0.03-0.39-0.09
		c-0.14-0.06-0.27-0.15-0.39-0.28s-0.23-0.29-0.31-0.5c-0.08-0.21-0.12-0.46-0.12-0.75c0-0.14,0.01-0.33,0.03-0.56
		c0.02-0.24,0.05-0.48,0.08-0.73s0.07-0.49,0.11-0.72c0.04-0.23,0.08-0.41,0.12-0.55c-0.04,0.02-0.09,0.09-0.16,0.21
		s-0.14,0.26-0.22,0.42c-0.08,0.17-0.17,0.35-0.26,0.55c-0.09,0.2-0.18,0.4-0.28,0.59c-0.09,0.19-0.18,0.37-0.27,0.54
		c-0.09,0.17-0.17,0.31-0.24,0.41c-0.38,0.55-0.79,0.95-1.2,1.21c-0.42,0.26-0.87,0.39-1.36,0.39c-0.17,0-0.34-0.03-0.51-0.09
		s-0.33-0.15-0.48-0.27c-0.14-0.12-0.26-0.28-0.35-0.46c-0.09-0.19-0.14-0.41-0.14-0.67c0-0.08,0.01-0.18,0.04-0.29
		c0.03-0.11,0.07-0.2,0.11-0.27c0.02-0.03,0.04-0.05,0.08-0.08s0.08-0.05,0.12-0.08c0.04-0.02,0.09-0.04,0.13-0.06
		c0.04-0.01,0.07-0.02,0.1-0.02c0.1,0,0.19,0.05,0.26,0.15c0.07,0.1,0.11,0.28,0.12,0.54c0.01,0.14,0.04,0.25,0.08,0.34
		c0.05,0.09,0.11,0.17,0.18,0.22c0.07,0.06,0.15,0.1,0.23,0.12c0.08,0.02,0.16,0.04,0.24,0.04c0.28-0.03,0.55-0.13,0.79-0.3
		c0.24-0.17,0.47-0.38,0.67-0.63c0.2-0.25,0.38-0.52,0.55-0.81c0.16-0.29,0.3-0.56,0.42-0.82c0.09-0.19,0.17-0.35,0.23-0.49
		c0.07-0.14,0.13-0.27,0.18-0.38c0.05-0.11,0.11-0.21,0.16-0.3c0.05-0.09,0.11-0.17,0.17-0.26c0.06-0.09,0.13-0.18,0.21-0.27
		c0.08-0.09,0.17-0.2,0.28-0.32c0.01-0.01,0.04-0.03,0.1-0.04s0.11-0.03,0.17-0.05c0.06-0.02,0.12-0.03,0.18-0.04
		c0.06-0.01,0.09-0.02,0.11-0.02h0.01c0.03,0,0.08,0,0.12,0.01c0.05,0.01,0.1,0.02,0.15,0.05c0.05,0.03,0.09,0.07,0.12,0.12
		c0.03,0.05,0.05,0.12,0.05,0.21c0,0.11,0,0.21-0.01,0.27c-0.01,0.07-0.02,0.13-0.03,0.19c-0.01,0.06-0.03,0.12-0.04,0.18
		s-0.03,0.15-0.05,0.25c-0.03,0.11-0.06,0.24-0.09,0.4c-0.03,0.16-0.05,0.33-0.07,0.5c-0.02,0.17-0.04,0.34-0.05,0.51
		c-0.01,0.17-0.02,0.31-0.02,0.43c0,0.4,0.04,0.71,0.13,0.93c0.09,0.22,0.21,0.33,0.37,0.33c0.11,0,0.22-0.03,0.34-0.08
		c0.12-0.05,0.23-0.12,0.33-0.19c0.1-0.07,0.19-0.15,0.27-0.22c0.08-0.07,0.14-0.13,0.17-0.17c0.24-0.26,0.48-0.57,0.73-0.91
		c0.25-0.34,0.48-0.69,0.7-1.05c0.22-0.36,0.42-0.7,0.61-1.03c0.18-0.33,0.33-0.62,0.45-0.87c0.03-0.06,0.06-0.12,0.11-0.18
		c0.04-0.06,0.09-0.12,0.14-0.17s0.11-0.1,0.17-0.13s0.12-0.05,0.19-0.05c0.03,0,0.07,0.01,0.13,0.04s0.12,0.06,0.18,0.1
		c0.06,0.04,0.12,0.09,0.17,0.15s0.07,0.11,0.07,0.17c0,0.09-0.03,0.23-0.08,0.41c-0.03,0.1-0.05,0.22-0.08,0.35
		c-0.03,0.13-0.05,0.27-0.09,0.42c-0.03,0.15-0.07,0.33-0.12,0.54s-0.09,0.42-0.13,0.65c-0.04,0.23-0.07,0.47-0.1,0.71
		s-0.04,0.47-0.04,0.7c0,0.29,0.03,0.53,0.09,0.7s0.14,0.31,0.24,0.41c0.1,0.09,0.2,0.16,0.32,0.18c0.11,0.03,0.23,0.04,0.33,0.04
		c0.23,0,0.48-0.06,0.75-0.17c0.27-0.12,0.54-0.27,0.82-0.46c0.28-0.19,0.55-0.41,0.82-0.65c0.27-0.24,0.52-0.49,0.74-0.74
		c0.1-0.11,0.2-0.23,0.29-0.35c0.1-0.12,0.19-0.25,0.29-0.37c0.1-0.12,0.19-0.25,0.29-0.37c0.1-0.12,0.2-0.23,0.31-0.33
		c0.08-0.09,0.13-0.14,0.15-0.14c0.02,0,0.06,0.02,0.1,0.06C30.97,48.95,31.01,49.01,31.05,49.08z"/>
	<path class="st0" d="M39.02,49.06c0.05-0.06,0.09-0.11,0.13-0.15c0.04-0.04,0.08-0.07,0.1-0.07c0.03,0,0.06,0.02,0.09,0.06
		c0.03,0.04,0.04,0.12,0.04,0.24c0,0.11-0.02,0.23-0.05,0.36c-0.03,0.12-0.08,0.22-0.14,0.3c-0.09,0.12-0.2,0.25-0.33,0.41
		c-0.13,0.15-0.27,0.31-0.43,0.47c-0.16,0.16-0.32,0.33-0.49,0.49c-0.17,0.17-0.34,0.32-0.51,0.47c-0.17,0.15-0.33,0.28-0.5,0.39
		c-0.16,0.12-0.31,0.21-0.44,0.28c-0.16,0.08-0.31,0.15-0.45,0.21c-0.14,0.06-0.27,0.11-0.4,0.14s-0.26,0.07-0.39,0.08
		c-0.13,0.02-0.28,0.03-0.43,0.03c-0.17,0-0.33-0.04-0.48-0.11c-0.15-0.08-0.28-0.19-0.39-0.36c-0.11-0.16-0.2-0.38-0.27-0.64
		s-0.1-0.58-0.1-0.95c-0.21,0.33-0.45,0.64-0.72,0.95c-0.27,0.31-0.54,0.58-0.82,0.82c-0.27,0.24-0.53,0.43-0.78,0.58
		c-0.25,0.14-0.45,0.22-0.62,0.22c-0.18,0-0.33-0.03-0.47-0.1s-0.24-0.16-0.32-0.27s-0.15-0.24-0.19-0.38
		c-0.04-0.14-0.06-0.27-0.06-0.41c0-0.07,0-0.16,0.01-0.26c0-0.1,0.01-0.21,0.02-0.32c0.01-0.11,0.03-0.21,0.05-0.32
		c0.02-0.11,0.04-0.2,0.07-0.28c0.07-0.26,0.17-0.54,0.3-0.83c0.13-0.29,0.28-0.58,0.44-0.87c0.17-0.29,0.35-0.57,0.54-0.84
		s0.4-0.51,0.6-0.73c0.2-0.22,0.41-0.41,0.61-0.57c0.2-0.16,0.4-0.27,0.58-0.33c0.05-0.03,0.12-0.05,0.2-0.08
		c0.08-0.03,0.17-0.05,0.26-0.07s0.18-0.04,0.26-0.05c0.08-0.01,0.15-0.02,0.2-0.02c0.1,0,0.18,0.03,0.26,0.08
		c0.08,0.05,0.14,0.12,0.19,0.2c0.05,0.08,0.1,0.17,0.12,0.27c0.03,0.1,0.04,0.2,0.04,0.3c0.05-0.02,0.1-0.03,0.17-0.03
		c0.1,0,0.2,0.03,0.29,0.08c0.09,0.05,0.14,0.13,0.14,0.23c0,0.05-0.01,0.11-0.02,0.18c-0.01,0.07-0.03,0.16-0.05,0.25
		c-0.02,0.09-0.05,0.19-0.08,0.28c-0.03,0.1-0.06,0.19-0.08,0.27c-0.03,0.09-0.06,0.21-0.08,0.35c-0.03,0.14-0.05,0.28-0.08,0.43
		c-0.02,0.15-0.04,0.3-0.05,0.45c-0.01,0.15-0.02,0.28-0.02,0.39c0,0.54,0.06,0.92,0.18,1.17c0.12,0.24,0.34,0.37,0.66,0.37
		c0.12,0,0.26-0.04,0.44-0.11s0.37-0.17,0.58-0.3c0.21-0.13,0.43-0.28,0.66-0.46c0.23-0.17,0.46-0.37,0.7-0.57
		c0.23-0.2,0.46-0.42,0.68-0.64S38.83,49.29,39.02,49.06z M32.62,50.82c0.13-0.15,0.27-0.33,0.42-0.55s0.29-0.46,0.43-0.71
		c0.14-0.26,0.26-0.52,0.36-0.8c0.1-0.28,0.18-0.55,0.23-0.83c-0.04-0.16-0.11-0.27-0.2-0.33s-0.19-0.09-0.3-0.09
		c-0.12,0-0.24,0.02-0.36,0.07c-0.12,0.04-0.23,0.09-0.33,0.14c-0.12,0.06-0.26,0.17-0.42,0.34c-0.16,0.16-0.33,0.36-0.5,0.58
		c-0.17,0.23-0.34,0.47-0.51,0.74s-0.31,0.53-0.45,0.8c-0.13,0.27-0.24,0.53-0.32,0.77s-0.12,0.47-0.12,0.66
		c0,0.07,0.01,0.14,0.03,0.22c0.02,0.08,0.04,0.15,0.07,0.22s0.06,0.12,0.1,0.17s0.08,0.07,0.11,0.07c0.04,0,0.12-0.04,0.24-0.11
		c0.12-0.07,0.26-0.17,0.42-0.3c0.16-0.13,0.34-0.28,0.53-0.46C32.24,51.23,32.43,51.04,32.62,50.82z"/>
	<path class="st0" d="M49.1,49.39c0,0.03-0.04,0.09-0.11,0.2c-0.07,0.11-0.17,0.24-0.29,0.4c-0.12,0.16-0.26,0.34-0.42,0.54
		c-0.16,0.2-0.34,0.4-0.52,0.61c-0.18,0.21-0.37,0.41-0.56,0.61s-0.38,0.38-0.57,0.55c-0.28,0.25-0.57,0.5-0.86,0.73
		c-0.29,0.23-0.58,0.44-0.88,0.62c-0.3,0.18-0.61,0.32-0.93,0.43c-0.32,0.11-0.65,0.16-1,0.16c-0.2,0-0.39-0.04-0.56-0.13
		c-0.17-0.09-0.32-0.21-0.44-0.36c-0.12-0.15-0.22-0.32-0.29-0.51c-0.07-0.19-0.11-0.39-0.11-0.6c0-0.39,0.05-0.81,0.15-1.27
		c0.1-0.46,0.26-0.99,0.47-1.57c-0.19,0.14-0.42,0.27-0.69,0.38c-0.27,0.1-0.55,0.16-0.83,0.16c-0.19,0-0.36-0.03-0.52-0.08
		c-0.16-0.06-0.31-0.14-0.46-0.25c-0.09-0.07-0.18-0.17-0.27-0.29s-0.16-0.26-0.23-0.42c-0.06-0.16-0.12-0.33-0.16-0.51
		c-0.04-0.19-0.06-0.38-0.06-0.58c0-0.2,0.02-0.4,0.06-0.6c0.04-0.2,0.09-0.38,0.16-0.55c0.07-0.16,0.16-0.29,0.27-0.39
		c0.11-0.1,0.23-0.15,0.37-0.15c0.16,0,0.27,0.04,0.33,0.12s0.09,0.21,0.09,0.4c0,0.08-0.01,0.16-0.03,0.24s-0.05,0.17-0.08,0.26
		c-0.03,0.09-0.06,0.19-0.08,0.31s-0.03,0.24-0.03,0.38c0,0.2,0.03,0.37,0.08,0.52c0.05,0.15,0.13,0.28,0.22,0.38
		c0.09,0.1,0.19,0.18,0.31,0.23c0.11,0.05,0.23,0.08,0.35,0.08c0.19,0,0.39-0.04,0.61-0.13c0.22-0.09,0.45-0.21,0.69-0.36
		c0.19-0.13,0.35-0.26,0.47-0.39c0.12-0.13,0.22-0.25,0.3-0.36c0.1-0.13,0.21-0.24,0.34-0.35c0.13-0.11,0.26-0.16,0.4-0.16
		c0.05,0,0.11,0.01,0.17,0.03c0.06,0.02,0.11,0.04,0.15,0.07c0.04,0.03,0.08,0.07,0.11,0.11c0.03,0.04,0.04,0.09,0.04,0.13
		c0,0.14-0.03,0.25-0.09,0.35s-0.13,0.19-0.23,0.29c-0.09,0.1-0.19,0.2-0.3,0.32s-0.21,0.25-0.3,0.42c-0.11,0.2-0.22,0.43-0.31,0.68
		c-0.09,0.25-0.17,0.51-0.24,0.77c-0.06,0.27-0.12,0.53-0.15,0.79c-0.04,0.26-0.06,0.5-0.06,0.72c0,0.3,0.06,0.52,0.17,0.67
		c0.12,0.15,0.32,0.22,0.63,0.22c0.23,0,0.49-0.06,0.76-0.18c0.28-0.12,0.56-0.28,0.86-0.49c0.3-0.21,0.61-0.45,0.92-0.72
		c0.31-0.27,0.62-0.56,0.92-0.87c0.3-0.31,0.6-0.62,0.88-0.95c0.28-0.33,0.55-0.65,0.79-0.96c0.05-0.06,0.12-0.12,0.2-0.17
		c0.08-0.05,0.16-0.08,0.24-0.08c0.05,0,0.09,0.02,0.11,0.07s0.03,0.1,0.03,0.16c0,0.06,0,0.12-0.01,0.18S49.1,49.35,49.1,49.39z"/>
	<path class="st0" d="M58.33,49.24c0,0.05-0.03,0.13-0.08,0.25c-0.05,0.12-0.15,0.27-0.28,0.47c-0.13,0.2-0.31,0.44-0.53,0.74
		c-0.22,0.29-0.5,0.64-0.83,1.03c-0.2,0.23-0.41,0.47-0.63,0.7s-0.47,0.45-0.72,0.64s-0.52,0.35-0.8,0.47
		c-0.28,0.12-0.58,0.18-0.89,0.18c-0.46,0-0.8-0.15-1.01-0.45c-0.22-0.3-0.33-0.7-0.32-1.2c0-0.39,0.01-0.73,0.04-1.02
		c0.02-0.29,0.05-0.56,0.08-0.8c-0.05,0.05-0.12,0.11-0.21,0.16c-0.09,0.06-0.2,0.11-0.31,0.16s-0.24,0.09-0.37,0.13
		s-0.25,0.07-0.37,0.1c-0.25,0.06-0.49,0.1-0.7,0.12c-0.22,0.03-0.42,0.06-0.6,0.09c-0.07,0.01-0.12,0.05-0.15,0.12
		s-0.06,0.15-0.07,0.26c-0.01,0.08-0.03,0.17-0.04,0.28s-0.03,0.22-0.04,0.33c-0.01,0.12-0.02,0.24-0.03,0.36
		c-0.01,0.12-0.01,0.24-0.01,0.35c0.01,0.05,0.01,0.12,0.02,0.19c0,0.08,0.01,0.15,0.01,0.23c0,0.11-0.01,0.22-0.04,0.31
		c-0.03,0.08-0.04,0.16-0.06,0.23c-0.01,0.08-0.04,0.15-0.07,0.21s-0.07,0.11-0.12,0.15c-0.05,0.04-0.13,0.06-0.23,0.06
		c-0.11,0-0.2-0.02-0.26-0.06c-0.07-0.04-0.12-0.09-0.16-0.16c-0.04-0.07-0.06-0.14-0.07-0.23c-0.01-0.09-0.02-0.17-0.02-0.27
		c0-0.11,0-0.22,0.01-0.32c0.01-0.1,0.01-0.19,0.01-0.25c0-0.02,0-0.07,0.02-0.14c0.01-0.08,0.02-0.17,0.04-0.28
		c0.01-0.11,0.03-0.23,0.05-0.35s0.03-0.24,0.05-0.35c0.01-0.11,0.03-0.21,0.04-0.29s0.02-0.13,0.02-0.15c0-0.06-0.01-0.1-0.03-0.14
		s-0.04-0.07-0.07-0.11s-0.04-0.07-0.07-0.1c-0.02-0.03-0.03-0.08-0.03-0.14c0-0.08,0.02-0.15,0.04-0.2c0.03-0.05,0.06-0.1,0.1-0.13
		s0.07-0.06,0.1-0.08c0.03-0.02,0.05-0.05,0.05-0.07c0.01-0.2,0.03-0.41,0.05-0.65c0.02-0.24,0.04-0.47,0.06-0.69
		c0.02-0.23,0.04-0.44,0.05-0.63s0.03-0.35,0.04-0.47c0-0.04,0.02-0.12,0.04-0.21c0.02-0.1,0.05-0.2,0.1-0.3
		c0.04-0.1,0.1-0.19,0.17-0.26s0.15-0.11,0.25-0.11c0.09,0,0.16,0.03,0.22,0.09c0.06,0.06,0.1,0.13,0.14,0.21
		c0.04,0.08,0.06,0.16,0.07,0.25c0.01,0.09,0.02,0.16,0.02,0.21c0,0.02-0.01,0.07-0.02,0.15s-0.03,0.18-0.05,0.3
		s-0.04,0.25-0.06,0.4c-0.02,0.15-0.04,0.3-0.06,0.45c-0.02,0.15-0.03,0.3-0.05,0.45c-0.01,0.15-0.02,0.28-0.02,0.4
		c0,0.04,0,0.07,0.01,0.11s0.02,0.08,0.03,0.11c0.01,0.03,0.04,0.06,0.06,0.09c0.03,0.02,0.06,0.04,0.11,0.04
		c0.1,0,0.22-0.01,0.36-0.02s0.29-0.03,0.45-0.06s0.32-0.06,0.48-0.1c0.16-0.04,0.32-0.08,0.46-0.13c0.14-0.05,0.27-0.1,0.38-0.16
		c0.11-0.06,0.19-0.12,0.24-0.18c0.05-0.07,0.1-0.14,0.14-0.23c0.04-0.09,0.07-0.2,0.1-0.33s0.06-0.29,0.09-0.47
		c0.03-0.18,0.06-0.41,0.1-0.67c0.02-0.11,0.04-0.21,0.07-0.3c0.03-0.09,0.07-0.17,0.11-0.24c0.04-0.07,0.1-0.12,0.17-0.16
		c0.07-0.04,0.15-0.06,0.25-0.06c0.11,0,0.21,0.05,0.29,0.14c0.08,0.09,0.12,0.25,0.12,0.46c0,0.17-0.01,0.35-0.04,0.52
		c-0.03,0.17-0.07,0.35-0.11,0.52s-0.09,0.35-0.14,0.52c-0.05,0.17-0.09,0.34-0.13,0.51c-0.07,0.29-0.12,0.59-0.14,0.9
		c-0.03,0.31-0.04,0.6-0.04,0.86c0,0.46,0.06,0.78,0.18,0.98c0.12,0.2,0.3,0.3,0.54,0.3c0.28,0,0.6-0.12,0.94-0.35
		c0.34-0.23,0.73-0.59,1.18-1.06c0.17-0.18,0.34-0.37,0.52-0.57s0.34-0.38,0.5-0.57c0.16-0.19,0.3-0.36,0.44-0.53
		c0.14-0.16,0.26-0.31,0.36-0.43c0.1-0.12,0.19-0.22,0.26-0.29c0.07-0.07,0.11-0.11,0.13-0.11c0.02,0,0.05,0.02,0.07,0.05
		s0.04,0.07,0.05,0.11c0.01,0.04,0.02,0.09,0.03,0.13C58.32,49.17,58.33,49.21,58.33,49.24z"/>
	<path class="st0" d="M59.16,47.8c0,0.15-0.01,0.32-0.04,0.51c-0.03,0.19-0.06,0.38-0.09,0.56c-0.05,0.35-0.09,0.66-0.12,0.93
		c-0.03,0.27-0.04,0.51-0.04,0.71c0,0.09,0,0.21,0.01,0.35c0.01,0.14,0.02,0.28,0.04,0.44c0.02,0.15,0.05,0.31,0.09,0.46
		c0.04,0.16,0.09,0.3,0.15,0.42c0.06,0.13,0.13,0.23,0.22,0.3s0.19,0.12,0.31,0.12c0.19,0,0.39-0.04,0.6-0.13
		c0.2-0.08,0.41-0.19,0.6-0.32c0.2-0.13,0.39-0.27,0.57-0.42c0.18-0.15,0.35-0.3,0.51-0.44c0.17-0.15,0.34-0.3,0.52-0.48
		c0.18-0.17,0.35-0.35,0.53-0.53c0.17-0.18,0.34-0.36,0.5-0.55c0.16-0.18,0.3-0.36,0.43-0.52c0-0.01,0.02-0.03,0.04-0.05
		c0.02-0.03,0.04-0.06,0.07-0.09c0.02-0.03,0.05-0.06,0.07-0.08c0.02-0.02,0.04-0.03,0.05-0.03c0.07,0,0.11,0.03,0.14,0.1
		c0.03,0.07,0.04,0.14,0.04,0.23c0,0.1-0.04,0.23-0.13,0.4c-0.09,0.17-0.2,0.35-0.34,0.55c-0.14,0.2-0.31,0.42-0.49,0.65
		c-0.19,0.23-0.38,0.46-0.58,0.68c-0.24,0.26-0.49,0.52-0.74,0.76c-0.26,0.24-0.54,0.48-0.84,0.71c-0.58,0.46-1.11,0.68-1.57,0.68
		c-0.5,0-0.9-0.18-1.18-0.53c-0.15-0.19-0.27-0.4-0.36-0.63c-0.09-0.23-0.16-0.47-0.22-0.72c-0.05-0.25-0.09-0.5-0.11-0.76
		s-0.03-0.51-0.03-0.75c0-0.06,0-0.15,0.01-0.26c0.01-0.11,0.02-0.23,0.03-0.37c0.01-0.13,0.03-0.27,0.04-0.42
		c0.02-0.15,0.03-0.29,0.05-0.42s0.03-0.25,0.05-0.36s0.03-0.19,0.05-0.25c0.06-0.21,0.18-0.39,0.37-0.54
		c0.19-0.16,0.39-0.24,0.6-0.24C59.11,47.46,59.16,47.58,59.16,47.8z M60.25,43.98c0,0.29-0.07,0.53-0.21,0.73
		c-0.14,0.2-0.34,0.3-0.61,0.3c-0.17,0-0.35-0.03-0.56-0.08c-0.2-0.05-0.3-0.14-0.3-0.26c0-0.21,0.06-0.42,0.19-0.61
		c0.13-0.2,0.28-0.35,0.46-0.48c0.15-0.09,0.24-0.13,0.28-0.13c0.24,0,0.42,0.03,0.55,0.1C60.19,43.62,60.25,43.76,60.25,43.98z"/>
</g>
<g>
	<path class="st0" d="M173.95,45.95c0,0.14-0.05,0.35-0.16,0.64c-0.05,0.14-0.11,0.26-0.15,0.37c-0.05,0.1-0.1,0.19-0.15,0.26
		c-0.27,0.41-0.71,0.83-1.32,1.26c-0.62,0.44-1.23,0.82-1.84,1.15c-0.4,0.22-0.81,0.42-1.21,0.59c-0.4,0.17-0.81,0.33-1.21,0.47
		c-0.02,0.03-0.03,0.11-0.03,0.23v0.2c0,0.11,0.01,0.27,0.02,0.46s0.03,0.44,0.05,0.73c0.02,0.29,0.04,0.54,0.05,0.77
		c0.01,0.22,0.02,0.42,0.02,0.59c0,0.15-0.04,0.27-0.13,0.36c-0.09,0.09-0.2,0.13-0.35,0.13c-0.42,0-0.63-0.95-0.63-2.86l0-0.17
		c0-0.22,0.01-0.47,0.04-0.73c0.03-0.26,0.06-0.57,0.11-0.94c0.02-0.12,0.04-0.24,0.05-0.36c0.02-0.12,0.03-0.26,0.05-0.4
		c0.04-0.28,0.07-0.51,0.11-0.71s0.08-0.39,0.12-0.58c0.01-0.05,0.02-0.11,0.04-0.19s0.03-0.15,0.05-0.25
		c0.04-0.18,0.08-0.35,0.12-0.49c0.04-0.14,0.09-0.27,0.16-0.4c0.07-0.13,0.15-0.25,0.25-0.36c0.06-0.02,0.13-0.04,0.2-0.04
		c0.14,0,0.25,0.04,0.32,0.13c0.07,0.09,0.11,0.21,0.11,0.37c0,0.02-0.01,0.08-0.04,0.18c-0.03,0.1-0.06,0.21-0.1,0.33
		c-0.04,0.12-0.07,0.23-0.1,0.33c-0.03,0.1-0.05,0.17-0.06,0.19c-0.03,0.08-0.06,0.2-0.09,0.34c-0.02,0.12-0.04,0.24-0.06,0.36
		c-0.02,0.12-0.04,0.25-0.07,0.39c-0.02,0.13-0.04,0.27-0.06,0.4c-0.02,0.13-0.03,0.26-0.04,0.38c-0.01,0.12-0.02,0.24-0.03,0.34
		c-0.01,0.11-0.02,0.2-0.02,0.27c0.12-0.06,0.27-0.12,0.44-0.2c0.17-0.08,0.37-0.17,0.6-0.27c0.45-0.2,0.85-0.38,1.2-0.56
		c0.35-0.18,0.7-0.37,1.03-0.58c0.22-0.14,0.43-0.3,0.64-0.48c0.21-0.18,0.41-0.37,0.61-0.58c0.4-0.42,0.59-0.82,0.59-1.18
		c0-0.17-0.16-0.3-0.47-0.38c-0.16-0.04-0.32-0.08-0.48-0.1s-0.32-0.05-0.47-0.06c-0.16-0.01-0.31-0.02-0.45-0.03
		s-0.28-0.01-0.41-0.01c-0.75,0-1.55,0.09-2.39,0.26c-0.41,0.09-0.98,0.27-1.73,0.54c-0.09,0.04-0.15,0.05-0.2,0.05
		c-0.08,0-0.15-0.03-0.21-0.08c-0.06-0.05-0.08-0.12-0.08-0.21c0-0.2,0.05-0.35,0.16-0.48c0.11-0.12,0.27-0.23,0.47-0.32
		c0.22-0.1,0.56-0.2,1.03-0.31c0.23-0.05,0.46-0.1,0.7-0.14c0.23-0.04,0.47-0.07,0.71-0.11c0.48-0.06,0.84-0.09,1.08-0.09
		c0.21,0,0.4,0,0.6,0s0.38,0.01,0.57,0.03c0.18,0.01,0.37,0.04,0.55,0.07s0.37,0.07,0.56,0.12c0.38,0.1,0.7,0.25,0.96,0.47
		C173.82,45.31,173.95,45.6,173.95,45.95z"/>
	<path class="st0" d="M180.65,49.18c0,0.03-0.02,0.08-0.05,0.17s-0.07,0.17-0.12,0.26c-0.43,0.59-0.86,1.15-1.29,1.67
		c-0.43,0.53-0.85,0.99-1.26,1.38c-0.41,0.39-0.81,0.71-1.2,0.93c-0.39,0.23-0.75,0.34-1.1,0.33c-0.32,0-0.6-0.06-0.83-0.17
		c-0.23-0.11-0.42-0.27-0.57-0.47c-0.15-0.21-0.26-0.45-0.33-0.74c-0.07-0.29-0.11-0.6-0.11-0.95c0-0.28,0.02-0.57,0.07-0.88
		c0.04-0.31,0.12-0.62,0.21-0.92c0.1-0.3,0.22-0.6,0.37-0.89c0.15-0.29,0.33-0.56,0.54-0.81c0.08-0.1,0.18-0.2,0.29-0.29
		c0.11-0.09,0.22-0.18,0.34-0.26c0.12-0.08,0.24-0.14,0.37-0.19c0.13-0.05,0.25-0.08,0.38-0.08c0.13,0,0.26,0.02,0.37,0.07
		c0.11,0.05,0.21,0.13,0.3,0.22c0.08,0.09,0.15,0.2,0.2,0.32c0.05,0.12,0.08,0.25,0.08,0.38c0.02,0.32-0.07,0.66-0.26,1.01
		c-0.19,0.35-0.5,0.73-0.92,1.15c-0.08,0.08-0.17,0.17-0.29,0.28c-0.11,0.11-0.24,0.22-0.37,0.34s-0.27,0.24-0.4,0.35
		c-0.14,0.12-0.27,0.23-0.4,0.32c0,0.17,0.02,0.33,0.06,0.48c0.04,0.16,0.11,0.3,0.2,0.42c0.09,0.13,0.21,0.23,0.34,0.3
		c0.14,0.08,0.31,0.11,0.51,0.11c0.21,0,0.42-0.05,0.65-0.15c0.22-0.1,0.46-0.24,0.69-0.42c0.24-0.18,0.48-0.39,0.72-0.63
		c0.25-0.24,0.49-0.5,0.75-0.78c0.25-0.28,0.5-0.57,0.76-0.88c0.25-0.31,0.5-0.61,0.75-0.91c0.02-0.02,0.04-0.04,0.06-0.07
		s0.06-0.06,0.09-0.09c0.03-0.03,0.07-0.06,0.1-0.08c0.04-0.02,0.07-0.03,0.1-0.03c0.01,0,0.03,0,0.05,0.01
		c0.02,0.01,0.04,0.02,0.07,0.04c0.02,0.01,0.04,0.03,0.06,0.05C180.64,49.14,180.65,49.16,180.65,49.18z M176.46,48.6
		c-0.01-0.12-0.03-0.22-0.08-0.3c-0.04-0.08-0.11-0.11-0.2-0.11c-0.2,0.01-0.4,0.13-0.6,0.36c-0.2,0.22-0.39,0.56-0.56,1.01
		c-0.03,0.09-0.07,0.2-0.1,0.31c-0.04,0.11-0.07,0.23-0.09,0.35s-0.06,0.23-0.08,0.35c-0.02,0.11-0.04,0.21-0.06,0.3
		c0.2-0.16,0.38-0.32,0.53-0.49c0.16-0.17,0.3-0.32,0.44-0.47c0.11-0.11,0.21-0.23,0.31-0.34c0.1-0.11,0.19-0.23,0.26-0.34
		c0.08-0.11,0.13-0.22,0.18-0.32S176.46,48.7,176.46,48.6z"/>
	<path class="st0" d="M187.45,52.09c0,0.02,0,0.06-0.01,0.11c-0.01,0.05-0.01,0.11-0.02,0.17c-0.01,0.06-0.02,0.12-0.03,0.18
		c-0.01,0.06-0.02,0.11-0.02,0.14c-0.03,0.24-0.08,0.47-0.13,0.7c-0.06,0.23-0.13,0.46-0.21,0.69c-0.09,0.22-0.19,0.44-0.32,0.65
		c-0.12,0.21-0.27,0.41-0.44,0.59c-0.26,0.28-0.52,0.49-0.78,0.64s-0.49,0.23-0.69,0.23c-0.08,0-0.15-0.02-0.21-0.06
		s-0.1-0.1-0.1-0.19c0-0.06,0.01-0.1,0.02-0.14s0.03-0.06,0.03-0.09c0.12-0.09,0.24-0.18,0.36-0.28c0.12-0.1,0.23-0.19,0.34-0.28
		c0.18-0.15,0.35-0.31,0.5-0.47c0.15-0.17,0.28-0.33,0.39-0.51c0.11-0.17,0.19-0.34,0.25-0.5c0.06-0.17,0.09-0.32,0.09-0.47
		c0-0.1-0.02-0.16-0.05-0.18c-0.03-0.02-0.07-0.03-0.12-0.03c-0.03,0-0.08,0.02-0.17,0.06c-0.08,0.04-0.18,0.08-0.29,0.13
		s-0.22,0.09-0.33,0.13s-0.21,0.06-0.3,0.06c-0.46,0-0.82-0.13-1.05-0.39c-0.24-0.26-0.36-0.65-0.36-1.17c0-0.08,0-0.16,0.01-0.25
		c0.01-0.09,0.02-0.17,0.03-0.25s0.02-0.16,0.03-0.23c0.01-0.07,0.01-0.12,0.01-0.17s-0.01-0.06-0.02-0.06
		c-0.02,0-0.08,0.06-0.18,0.18c-0.1,0.12-0.23,0.27-0.39,0.44c-0.16,0.18-0.34,0.37-0.54,0.58s-0.42,0.4-0.64,0.58
		c-0.22,0.18-0.45,0.32-0.68,0.44c-0.23,0.12-0.45,0.18-0.66,0.18c-0.21,0-0.38-0.05-0.51-0.15c-0.13-0.1-0.24-0.23-0.32-0.39
		c-0.08-0.16-0.13-0.34-0.17-0.55c-0.03-0.2-0.05-0.41-0.05-0.61c0-0.1,0.01-0.25,0.04-0.47c0.03-0.22,0.07-0.47,0.12-0.75
		s0.12-0.57,0.2-0.87c0.08-0.3,0.17-0.59,0.27-0.85c0.08-0.19,0.15-0.33,0.22-0.42c0.08-0.08,0.17-0.13,0.27-0.13
		c0.06,0,0.11,0.01,0.17,0.04c0.05,0.02,0.1,0.06,0.14,0.1s0.07,0.08,0.09,0.13c0.02,0.05,0.03,0.09,0.03,0.14
		c0,0.08-0.01,0.16-0.04,0.25c-0.03,0.09-0.06,0.2-0.1,0.31c-0.04,0.11-0.09,0.24-0.13,0.38c-0.05,0.14-0.09,0.29-0.14,0.46
		c-0.03,0.1-0.06,0.22-0.09,0.37s-0.06,0.31-0.09,0.47c-0.03,0.16-0.05,0.32-0.07,0.47c-0.02,0.15-0.03,0.29-0.03,0.39
		c0,0.11,0.01,0.21,0.03,0.29c0.02,0.09,0.05,0.16,0.09,0.22c0.04,0.06,0.08,0.1,0.12,0.13c0.04,0.03,0.08,0.05,0.12,0.05
		c0.07,0,0.15-0.02,0.25-0.06c0.1-0.04,0.19-0.09,0.3-0.15c0.1-0.06,0.21-0.13,0.31-0.21s0.2-0.15,0.29-0.22
		c0.25-0.22,0.47-0.42,0.66-0.6c0.19-0.18,0.36-0.36,0.52-0.53c0.16-0.17,0.3-0.35,0.43-0.54c0.13-0.18,0.27-0.38,0.41-0.6
		c0.07-0.1,0.13-0.21,0.19-0.34s0.12-0.25,0.18-0.37c0.06-0.12,0.11-0.23,0.17-0.33c0.05-0.1,0.11-0.18,0.17-0.24
		c0.03-0.03,0.06-0.05,0.11-0.08c0.05-0.02,0.1-0.04,0.15-0.06c0.05-0.02,0.1-0.03,0.14-0.04c0.04-0.01,0.08-0.02,0.1-0.02
		c0.1,0,0.17,0.03,0.24,0.1c0.06,0.06,0.09,0.14,0.09,0.23c0,0.1-0.02,0.21-0.07,0.33c-0.05,0.13-0.11,0.26-0.18,0.41
		c-0.07,0.15-0.14,0.3-0.22,0.47c-0.08,0.16-0.15,0.33-0.21,0.5c-0.05,0.14-0.09,0.29-0.13,0.45c-0.04,0.16-0.07,0.32-0.1,0.49
		c-0.03,0.16-0.05,0.33-0.07,0.49c-0.01,0.16-0.02,0.32-0.02,0.47c0,0.08,0.02,0.17,0.05,0.25s0.07,0.15,0.12,0.22
		c0.05,0.06,0.11,0.12,0.17,0.16s0.13,0.06,0.2,0.06c0.21,0,0.39-0.02,0.55-0.07s0.29-0.1,0.41-0.16c0.12-0.06,0.22-0.14,0.31-0.21
		c0.09-0.08,0.17-0.15,0.24-0.21c0.07-0.06,0.14-0.12,0.21-0.16s0.13-0.07,0.21-0.07c0.12,0,0.2,0.04,0.25,0.11
		C187.42,51.83,187.45,51.94,187.45,52.09z"/>
	<path class="st0" d="M194.28,49.16c0,0.03-0.02,0.08-0.05,0.17s-0.07,0.17-0.12,0.26c-0.43,0.59-0.86,1.15-1.29,1.67
		c-0.43,0.53-0.85,0.99-1.26,1.38c-0.41,0.39-0.81,0.71-1.2,0.93c-0.39,0.23-0.75,0.34-1.1,0.33c-0.32,0-0.6-0.06-0.83-0.17
		c-0.23-0.11-0.42-0.27-0.57-0.47c-0.15-0.21-0.26-0.45-0.33-0.74c-0.07-0.29-0.11-0.6-0.11-0.95c0-0.28,0.02-0.57,0.07-0.88
		c0.04-0.31,0.12-0.62,0.21-0.92c0.1-0.3,0.22-0.6,0.37-0.89c0.15-0.29,0.33-0.56,0.54-0.81c0.08-0.1,0.18-0.2,0.29-0.29
		s0.22-0.18,0.34-0.26c0.12-0.08,0.24-0.14,0.37-0.19c0.13-0.05,0.25-0.08,0.38-0.08c0.13,0,0.26,0.02,0.37,0.07
		c0.11,0.05,0.21,0.13,0.3,0.22c0.08,0.09,0.15,0.2,0.2,0.32s0.08,0.25,0.08,0.38c0.02,0.32-0.07,0.66-0.26,1.01
		c-0.19,0.35-0.5,0.73-0.92,1.15c-0.08,0.08-0.17,0.17-0.29,0.28c-0.11,0.11-0.24,0.22-0.37,0.34s-0.27,0.24-0.4,0.36
		c-0.14,0.12-0.27,0.23-0.4,0.32c0,0.17,0.02,0.33,0.06,0.48c0.04,0.16,0.11,0.3,0.2,0.42c0.09,0.13,0.21,0.23,0.34,0.3
		c0.14,0.08,0.31,0.11,0.51,0.11c0.21,0,0.42-0.05,0.65-0.15c0.22-0.1,0.46-0.24,0.69-0.42c0.24-0.18,0.48-0.39,0.72-0.63
		c0.25-0.24,0.49-0.5,0.75-0.78c0.25-0.28,0.5-0.57,0.76-0.88c0.25-0.31,0.5-0.61,0.75-0.91c0.02-0.02,0.04-0.04,0.06-0.07
		s0.06-0.06,0.09-0.09c0.03-0.03,0.07-0.06,0.1-0.08c0.04-0.02,0.07-0.03,0.1-0.03c0.01,0,0.03,0,0.05,0.01
		c0.02,0.01,0.04,0.02,0.07,0.04c0.02,0.01,0.04,0.03,0.06,0.05C194.28,49.12,194.28,49.14,194.28,49.16z M190.1,48.58
		c-0.01-0.12-0.03-0.22-0.08-0.3c-0.04-0.08-0.11-0.11-0.2-0.11c-0.2,0.01-0.4,0.13-0.6,0.36s-0.39,0.56-0.56,1.01
		c-0.03,0.09-0.07,0.2-0.1,0.31c-0.04,0.11-0.07,0.23-0.09,0.35s-0.06,0.23-0.08,0.35c-0.02,0.11-0.04,0.21-0.06,0.3
		c0.2-0.16,0.38-0.32,0.53-0.49c0.16-0.17,0.3-0.32,0.44-0.47c0.11-0.11,0.21-0.23,0.31-0.34c0.1-0.11,0.19-0.23,0.26-0.34
		c0.08-0.11,0.13-0.22,0.18-0.32S190.1,48.68,190.1,48.58z"/>
	<path class="st0" d="M203.31,48.82c0,0.08-0.01,0.15-0.04,0.23c-0.03,0.08-0.06,0.16-0.11,0.24c-0.04,0.08-0.09,0.16-0.15,0.25
		c-0.05,0.08-0.11,0.16-0.16,0.23c-0.29,0.38-0.58,0.74-0.89,1.08c-0.31,0.34-0.61,0.64-0.91,0.91c-0.3,0.26-0.59,0.47-0.88,0.62
		c-0.28,0.15-0.54,0.23-0.79,0.23c-0.25,0-0.45-0.05-0.61-0.16c-0.16-0.11-0.29-0.25-0.39-0.43c-0.1-0.18-0.18-0.38-0.24-0.6
		c-0.06-0.23-0.11-0.46-0.15-0.69c-0.05-0.29-0.11-0.53-0.16-0.73c-0.05-0.2-0.11-0.36-0.16-0.49c-0.05-0.13-0.11-0.22-0.17-0.27
		c-0.06-0.06-0.13-0.08-0.19-0.08c-0.13,0-0.27,0.06-0.42,0.19c-0.15,0.12-0.3,0.29-0.46,0.5c-0.16,0.21-0.33,0.45-0.5,0.73
		c-0.18,0.27-0.36,0.55-0.56,0.85c-0.12,0.18-0.24,0.35-0.36,0.51c-0.13,0.16-0.25,0.31-0.37,0.45c-0.12,0.14-0.23,0.25-0.34,0.35
		c-0.11,0.1-0.2,0.17-0.28,0.21c-0.08-0.02-0.16-0.05-0.22-0.08c-0.07-0.03-0.12-0.09-0.16-0.16c-0.04-0.07-0.08-0.17-0.1-0.3
		c-0.02-0.12-0.03-0.29-0.03-0.49c0-0.15,0.01-0.34,0.02-0.57c0.02-0.22,0.04-0.46,0.07-0.7c0.03-0.24,0.06-0.48,0.09-0.71
		c0.03-0.23,0.07-0.43,0.1-0.59c0.02-0.11,0.04-0.22,0.05-0.32s0.03-0.21,0.04-0.3c0.01-0.09,0.03-0.18,0.04-0.25
		s0.03-0.14,0.05-0.18c0.08-0.16,0.15-0.3,0.23-0.4c0.08-0.1,0.16-0.15,0.26-0.15c0.03,0,0.07,0,0.12,0.01
		c0.05,0.01,0.1,0.02,0.15,0.05s0.09,0.06,0.13,0.11c0.04,0.05,0.05,0.11,0.05,0.19c0,0.19-0.03,0.42-0.09,0.67
		s-0.12,0.51-0.18,0.78c-0.02,0.11-0.05,0.23-0.08,0.37c-0.04,0.14-0.07,0.28-0.09,0.42c-0.03,0.14-0.05,0.29-0.07,0.42
		c-0.02,0.14-0.03,0.26-0.03,0.36c0,0.02,0,0.04,0,0.08c0,0.04,0,0.07-0.01,0.11s0,0.08,0,0.11s0,0.06,0.01,0.08
		c0.13-0.09,0.26-0.24,0.4-0.43c0.14-0.2,0.28-0.41,0.42-0.64c0.14-0.23,0.28-0.46,0.42-0.69s0.27-0.43,0.39-0.59
		c0.12-0.17,0.24-0.33,0.35-0.46c0.11-0.13,0.22-0.24,0.34-0.33c0.12-0.09,0.24-0.16,0.38-0.21s0.29-0.07,0.47-0.07
		c0.2,0,0.36,0.05,0.49,0.16c0.13,0.11,0.24,0.25,0.33,0.42c0.09,0.17,0.15,0.37,0.2,0.59s0.09,0.45,0.13,0.68
		c0.04,0.26,0.08,0.5,0.13,0.71c0.04,0.21,0.1,0.38,0.16,0.53c0.06,0.14,0.13,0.25,0.22,0.33c0.08,0.07,0.19,0.11,0.31,0.11
		c0.12,0,0.24-0.02,0.36-0.07s0.26-0.11,0.39-0.18c0.13-0.08,0.27-0.17,0.4-0.27c0.14-0.1,0.27-0.22,0.41-0.34
		c0.24-0.21,0.46-0.41,0.65-0.6c0.19-0.19,0.36-0.36,0.52-0.53c0.16-0.17,0.3-0.33,0.44-0.48c0.13-0.15,0.27-0.31,0.4-0.46
		c0.06-0.01,0.11,0,0.15,0.01S203.31,48.76,203.31,48.82z"/>
	<path class="st0" d="M214.99,49.15c0,0.04-0.01,0.08-0.02,0.14c-0.01,0.06-0.03,0.12-0.05,0.18c-0.02,0.06-0.05,0.13-0.07,0.19
		c-0.03,0.07-0.06,0.13-0.09,0.18c-0.06,0.1-0.15,0.22-0.25,0.36c-0.11,0.14-0.22,0.28-0.34,0.42c-0.13,0.15-0.26,0.29-0.4,0.44
		c-0.14,0.15-0.28,0.28-0.42,0.4c-0.11,0.1-0.24,0.2-0.38,0.32c-0.14,0.12-0.3,0.23-0.46,0.33c-0.16,0.1-0.32,0.18-0.49,0.25
		c-0.17,0.07-0.33,0.1-0.47,0.1c-0.13,0-0.25-0.02-0.36-0.06s-0.21-0.12-0.3-0.22c-0.09-0.11-0.17-0.26-0.24-0.45
		c-0.07-0.19-0.13-0.44-0.18-0.74c-0.02-0.13-0.04-0.26-0.06-0.41c-0.02-0.15-0.04-0.29-0.05-0.44c-0.02-0.14-0.03-0.28-0.05-0.42
		c-0.02-0.13-0.03-0.25-0.05-0.35c-0.02-0.1-0.04-0.18-0.07-0.24c-0.03-0.06-0.05-0.09-0.08-0.09c-0.05,0-0.12,0.04-0.21,0.13
		c-0.09,0.09-0.19,0.22-0.31,0.38c-0.12,0.17-0.25,0.37-0.39,0.6c-0.14,0.23-0.29,0.49-0.45,0.78c-0.31,0.58-0.57,1.02-0.78,1.32
		c-0.21,0.3-0.41,0.45-0.58,0.45c-0.26,0-0.44-0.13-0.53-0.39c-0.08-0.26-0.14-0.71-0.16-1.33c-0.01-0.6-0.05-1.07-0.12-1.4
		c-0.07-0.33-0.16-0.49-0.27-0.49c-0.07,0-0.17,0.07-0.3,0.2c-0.13,0.13-0.28,0.31-0.44,0.54c-0.17,0.23-0.35,0.5-0.54,0.81
		c-0.19,0.31-0.39,0.65-0.58,1.01c-0.05,0.1-0.11,0.21-0.18,0.33c-0.07,0.12-0.14,0.25-0.21,0.38c-0.07,0.13-0.14,0.25-0.2,0.36
		c-0.07,0.11-0.12,0.2-0.17,0.28c-0.11,0.17-0.24,0.25-0.4,0.25c-0.29,0-0.48-0.16-0.57-0.47c-0.02-0.08-0.04-0.14-0.05-0.19
		c-0.01-0.05-0.02-0.1-0.03-0.15c-0.01-0.05-0.01-0.1-0.01-0.17c0-0.06,0-0.14,0-0.23c0-0.16,0-0.31,0.01-0.44
		c0.01-0.13,0.02-0.27,0.04-0.41c0.01-0.14,0.03-0.28,0.06-0.44c0.02-0.16,0.04-0.34,0.07-0.55c0.02-0.17,0.04-0.36,0.05-0.55
		c0.02-0.2,0.03-0.39,0.04-0.57c0.01-0.19,0.03-0.36,0.04-0.51s0.03-0.28,0.05-0.37c0.01-0.05,0.04-0.1,0.08-0.17
		c0.04-0.06,0.09-0.12,0.15-0.18c0.05-0.06,0.11-0.11,0.17-0.15c0.06-0.04,0.11-0.06,0.16-0.06c0.08,0,0.15,0.02,0.2,0.06
		c0.05,0.04,0.09,0.09,0.13,0.15c0.03,0.06,0.05,0.14,0.07,0.22c0.01,0.09,0.02,0.18,0.02,0.27c0,0.1-0.01,0.22-0.03,0.36
		c-0.02,0.14-0.04,0.3-0.06,0.47c-0.03,0.17-0.06,0.34-0.09,0.52c-0.03,0.18-0.06,0.35-0.09,0.52c-0.03,0.16-0.06,0.32-0.08,0.45
		c-0.03,0.14-0.04,0.25-0.05,0.34c-0.03,0.22-0.06,0.4-0.07,0.53c-0.01,0.13-0.02,0.24-0.02,0.32c0.05-0.05,0.11-0.13,0.19-0.23
		c0.08-0.1,0.16-0.23,0.25-0.37c0.09-0.14,0.19-0.29,0.29-0.46c0.1-0.17,0.2-0.34,0.3-0.52c0.07-0.12,0.15-0.26,0.24-0.42
		c0.09-0.16,0.18-0.31,0.28-0.47c0.1-0.16,0.19-0.31,0.29-0.45c0.09-0.14,0.18-0.26,0.26-0.35c0.16-0.19,0.33-0.34,0.5-0.44
		c0.17-0.1,0.35-0.15,0.54-0.15c0.18,0,0.34,0.08,0.48,0.22s0.23,0.34,0.27,0.58c0.02,0.11,0.04,0.24,0.05,0.39
		c0.01,0.15,0.03,0.3,0.04,0.46c0.01,0.16,0.02,0.32,0.03,0.48c0.01,0.16,0.02,0.31,0.03,0.46c0.01,0.14,0.03,0.26,0.05,0.35
		c0.02,0.09,0.04,0.17,0.07,0.22c0.02,0.05,0.04,0.09,0.06,0.11c0.02,0.02,0.03,0.03,0.05,0.03c0.07,0,0.19-0.16,0.36-0.48
		c0.09-0.16,0.18-0.34,0.29-0.53c0.11-0.2,0.22-0.41,0.35-0.65c0.13-0.23,0.27-0.46,0.42-0.67c0.15-0.22,0.29-0.41,0.44-0.58
		c0.14-0.17,0.28-0.3,0.4-0.4c0.12-0.1,0.23-0.15,0.32-0.15c0.06,0,0.12,0.01,0.18,0.02c0.06,0.01,0.12,0.03,0.18,0.05
		c0.06,0.02,0.11,0.05,0.15,0.09c0.04,0.03,0.08,0.07,0.1,0.11c0.06,0.1,0.1,0.21,0.12,0.33c0.03,0.12,0.04,0.26,0.05,0.42
		s0.02,0.33,0.03,0.53c0.01,0.19,0.03,0.41,0.05,0.65c0.05,0.5,0.14,0.87,0.25,1.12c0.11,0.25,0.27,0.37,0.48,0.37
		c0.08,0,0.18-0.03,0.3-0.08c0.12-0.06,0.25-0.13,0.39-0.22c0.14-0.09,0.27-0.19,0.42-0.31c0.14-0.11,0.27-0.23,0.39-0.34
		c0.12-0.11,0.24-0.23,0.35-0.34s0.23-0.23,0.34-0.35c0.12-0.12,0.23-0.24,0.35-0.37s0.25-0.26,0.39-0.41
		c0.05-0.05,0.09-0.07,0.13-0.07C214.96,49,214.99,49.05,214.99,49.15z"/>
	<path class="st0" d="M223.96,49.11c0,0.04-0.02,0.12-0.06,0.23c-0.04,0.11-0.1,0.23-0.17,0.36c-0.12,0.21-0.26,0.43-0.42,0.67
		c-0.17,0.24-0.35,0.48-0.55,0.73c-0.2,0.24-0.41,0.47-0.64,0.7s-0.46,0.43-0.7,0.6s-0.48,0.31-0.73,0.42
		c-0.25,0.1-0.49,0.16-0.72,0.16c-0.24,0-0.46-0.04-0.65-0.11c-0.19-0.07-0.35-0.2-0.49-0.37c-0.13-0.17-0.24-0.4-0.31-0.69
		c-0.07-0.28-0.12-0.64-0.13-1.06c-0.14,0.14-0.28,0.28-0.42,0.43c-0.14,0.15-0.28,0.3-0.42,0.45c-0.14,0.15-0.28,0.3-0.42,0.44
		c-0.14,0.15-0.28,0.28-0.43,0.41c-0.29,0.25-0.58,0.46-0.87,0.61c-0.29,0.16-0.56,0.24-0.81,0.24c-0.04,0-0.11-0.02-0.2-0.07
		c-0.1-0.05-0.2-0.12-0.29-0.22c-0.1-0.1-0.19-0.22-0.27-0.37c-0.08-0.15-0.12-0.33-0.12-0.53c0-0.25,0.01-0.49,0.03-0.71
		c0.02-0.22,0.05-0.44,0.1-0.66c0.04-0.21,0.1-0.43,0.16-0.64c0.06-0.21,0.13-0.44,0.21-0.68c0.02-0.06,0.05-0.15,0.09-0.26
		s0.07-0.23,0.11-0.36s0.07-0.25,0.1-0.37c0.03-0.12,0.05-0.22,0.06-0.29c0.01-0.06,0.03-0.12,0.07-0.19
		c0.04-0.07,0.09-0.14,0.15-0.2c0.06-0.06,0.12-0.11,0.17-0.16c0.06-0.04,0.11-0.06,0.15-0.06c0.05,0,0.1,0.02,0.17,0.06
		c0.06,0.04,0.12,0.09,0.17,0.14c0.05,0.06,0.1,0.11,0.13,0.17c0.04,0.06,0.05,0.11,0.05,0.15c0,0.03-0.01,0.09-0.04,0.17
		c-0.02,0.08-0.06,0.17-0.1,0.28c-0.04,0.11-0.09,0.22-0.14,0.34c-0.05,0.12-0.11,0.23-0.16,0.34c-0.09,0.16-0.17,0.36-0.23,0.58
		c-0.07,0.22-0.13,0.45-0.17,0.68s-0.08,0.45-0.11,0.67c-0.02,0.22-0.04,0.4-0.04,0.56c0,0.04,0.01,0.09,0.03,0.15
		c0.02,0.06,0.04,0.12,0.07,0.18c0.03,0.06,0.06,0.11,0.1,0.15s0.07,0.06,0.11,0.06c0.1,0,0.22-0.04,0.37-0.13
		c0.15-0.09,0.31-0.2,0.49-0.33s0.36-0.29,0.54-0.46c0.18-0.17,0.36-0.34,0.53-0.51c0.17-0.17,0.32-0.33,0.46-0.48
		c0.13-0.15,0.24-0.28,0.32-0.38c0.19-0.24,0.36-0.47,0.52-0.71c0.16-0.24,0.3-0.48,0.43-0.73c0.12-0.22,0.22-0.4,0.3-0.53
		c0.08-0.13,0.17-0.19,0.27-0.19c0.09,0,0.16,0.02,0.21,0.06c0.05,0.04,0.09,0.08,0.11,0.14c0.03,0.05,0.04,0.11,0.05,0.17
		c0.01,0.06,0.01,0.11,0.01,0.16c0,0.01-0.01,0.04-0.03,0.09c-0.02,0.05-0.04,0.11-0.06,0.17c-0.02,0.07-0.05,0.14-0.08,0.22
		s-0.06,0.16-0.09,0.22c-0.03,0.07-0.05,0.13-0.07,0.18c-0.02,0.05-0.04,0.09-0.04,0.1c-0.05,0.13-0.09,0.26-0.13,0.39
		c-0.04,0.13-0.07,0.26-0.1,0.4c-0.03,0.13-0.05,0.26-0.07,0.38s-0.02,0.23-0.02,0.33c0,0.19,0.01,0.36,0.04,0.52
		s0.07,0.29,0.13,0.41c0.06,0.11,0.15,0.2,0.25,0.27c0.1,0.06,0.22,0.1,0.37,0.09c0.16,0,0.34-0.04,0.53-0.13
		c0.19-0.09,0.38-0.2,0.57-0.35s0.39-0.31,0.59-0.5c0.2-0.19,0.39-0.38,0.58-0.59c0.19-0.21,0.36-0.41,0.53-0.62
		c0.17-0.21,0.32-0.4,0.46-0.57c0.04-0.05,0.08-0.1,0.13-0.16c0.05-0.05,0.09-0.1,0.13-0.14s0.07-0.08,0.1-0.1
		c0.03-0.03,0.05-0.04,0.07-0.04c0.03,0,0.07,0.02,0.11,0.05C223.93,48.99,223.96,49.04,223.96,49.11z"/>
</g>
</svg>
