<svg id="LogoSMR" xmlns="http://www.w3.org/2000/svg" viewBox="0 0 319.23 122.94">
	<defs>
		<style>
			.SMR_logo-1{fill:#c45a57;}.SMR_logo-1,.SMR_logo-2,.SMR_logo-3,.SMR_logo-4,.SMR_logo-5,.SMR_logo-6{stroke:#000;stroke-miterlimit:10;}.SMR_logo-2{fill:#bcc987;}.SMR_logo-3,.SMR_logo-4{fill:#d42300;}.SMR_logo-4{stroke-linecap:round;}.SMR_logo-5{fill:#db9d3c;}.SMR_logo-6{fill:#fff;}
		</style>
	</defs>
	<g id="recetas">
		<path id="recetasE" class="SMR_logo-1" d="M72.94,126.36H92.53v-9.3H72.94v-7.41H95.18V106.8a62.71,62.71,0,0,1-25.9-3.58,5.13,5.13,0,0,1-2.52-2l-.08,0h0a6.14,6.14,0,0,1-2.82,5.63,6,6,0,0,1-3.26,1V144H96V134.4H72.94Z" transform="translate(-14.68 -30.55)" />
		<path id="recetasR" class="SMR_logo-1" d="M53.47,109.33a6.14,6.14,0,0,1-8.37-1.93,6.79,6.79,0,0,1-.41-.75,5.8,5.8,0,0,1-1.56,1.44,6.15,6.15,0,0,1-8.51-1.85,5.84,5.84,0,0,1-.86-2.2,6.15,6.15,0,0,1-6.58-.53A6.15,6.15,0,0,1,24.91,100H15.18v44H27.65V132.51h7.69c12,0,19.6-6.21,19.6-16.21a16.68,16.68,0,0,0-1-6C53.77,110,53.63,109.66,53.47,109.33ZM34.59,122.72H27.65V109.84h6.94c5.17,0,7.75,2.38,7.75,6.46S39.76,122.72,34.59,122.72Z" transform="translate(-14.68 -30.55)" />
		<polygon id="recetasP" class="SMR_logo-1" points="184.41 74.46 184.41 113.47 196.7 113.47 196.7 79.35 213.45 79.35 213.45 113.47 225.81 113.47 225.81 74.46 184.41 74.46" />
		<path id="recetasC" class="SMR_logo-1" d="M144.63,134.15V105H132.34v29.14h-17V102a29,29,0,0,1-12.54,3.87l.26,36.73a3,3,0,0,1,.31-.15,5.71,5.71,0,0,1,6.13,1,5.71,5.71,0,0,1,10.35-2.84,5.76,5.76,0,0,1,5.43-3.14,5.63,5.63,0,0,1,4.92,3.45,4.26,4.26,0,0,1,.26.76,5.59,5.59,0,0,1,1.66-1.1,5.72,5.72,0,0,1,7.53,3,5.66,5.66,0,0,1,.47,2.14,5.72,5.72,0,0,1,7.24,7.23h3.26V134.15Z" transform="translate(-14.68 -30.55)" />
		<path id="recetasI" class="SMR_logo-1" d="M330.24,140.69a6.32,6.32,0,0,1,.52-8,6.34,6.34,0,0,1-2-11.3q.36-.24.75-.45a6.13,6.13,0,0,1-1.55-1.54,6.33,6.33,0,0,1,1.51-8.84,6.07,6.07,0,0,1,2.22-1,6.27,6.27,0,0,1-.72-4.5H318.14l-14.65,20.78V105.08H291.2V144H303l18.15-25.76V144h12.28v-1A6.26,6.26,0,0,1,330.24,140.69Z" transform="translate(-14.68 -30.55)" />
		<polygon id="recetasT" class="SMR_logo-1" points="268.43 74.53 268.43 74.46 231.45 74.46 231.45 79.35 245 79.35 245 113.47 257.28 113.47 257.28 79.35 270.77 79.35 270.77 74.53 268.43 74.53" />
		<polygon id="recetasE-2" data-name="recetasE" class="SMR_logo-1" points="154.24 95.81 173.84 95.81 173.84 86.51 154.24 86.51 154.24 79.1 176.49 79.1 176.49 74.46 141.89 74.46 141.89 113.47 177.3 113.47 177.3 103.86 154.24 103.86 154.24 95.81" />
	</g>
	<g id="mameni">
		<path id="mameniAll" class="SMR_logo-2" d="M160.21,95.57a6.68,6.68,0,0,0-.3-1.77,3.78,3.78,0,0,1-1.09-.66,5.51,5.51,0,0,1-1.07-1.56,16.43,16.43,0,0,1-.93-3,10.08,10.08,0,0,1-.26-2.56,3.41,3.41,0,0,1,.37-1.52,2,2,0,0,1,.69-.77,1.47,1.47,0,0,1,.63-.23,5.48,5.48,0,0,0,.44-1.63,20.26,20.26,0,0,0-.07-4.48,8.32,8.32,0,0,0-.5-1.93l-2.19.2-2.82.21c-1,0-1.84.06-2.59.06-1.15,0-2.18,0-3.09-.06l-2.56-.21c-.82-.09-1.69-.15-2.62-.2a26.14,26.14,0,0,0-.33,3.16c0,1.22-.08,2.43-.1,3.65a9.4,9.4,0,0,1-1-3.65,14.86,14.86,0,0,1,.1-3.16c-1,.09-2.12.17-3.42.23s-2.66.13-4.05.18-2.68.06-3.92.06c-1.53,0-2.9-.06-4.12-.16l-3-.31a8.32,8.32,0,0,0-.5,1.93c-.11.73-3.13,5.42-2,5.29,10.11-1.22,2.2,12.61,0,14.47-.58.48.18,1.37.84,2.85a15.71,15.71,0,0,1,.43,1.76c.87-.09,2.14-.2,3.82-.33s3.79-.2,6.24-.2c.85,0,1.74,0,2.69.07l2.82.13c.94.07,1.78.12,2.53.16l1.76.17a8.72,8.72,0,0,0,.06-2.86,3.61,3.61,0,0,0-.66-1.72,3.81,3.81,0,0,0-1.19-1c-.47-.26-1-.51-1.46-.73L134,93.8l.41-.89,6.43,2.82,2-5.64.33,3.71H142c-.06.47-.11,1-.13,1.77s0,1.44,0,2.22.07,1.48.13,2.19.15,1.3.24,1.76c.9-.09,2.2-.2,3.88-.33s3.5-.2,5.38-.2,3.6.07,4.88.2l3.32.33a8.54,8.54,0,0,0,.43-1.76,13.13,13.13,0,0,0,.17-2.19A17.79,17.79,0,0,0,160.21,95.57Zm36.72,0a7.07,7.07,0,0,0-.31-1.77,4.61,4.61,0,0,1-1.33-.82,4.08,4.08,0,0,1-.95-1.7,10.5,10.5,0,0,1-.37-3.12V85.27a25.22,25.22,0,0,0-.17-3.45,11.23,11.23,0,0,0-.86-3.28,5.67,5.67,0,0,0-2-2.46,5.84,5.84,0,0,0-3.55-1c-1.78,0-3.59,0-5.45.17s-3.67.23-5.45.36-3.37.17-4.87.17c-2.22,0-4,0-5.32-.1s-2.44-.18-3.35-.27a8.32,8.32,0,0,0-.5,1.93,15.36,15.36,0,0,0-.07,4.48,5.2,5.2,0,0,0,.44,1.63,1.54,1.54,0,0,1,1.32,1,4.38,4.38,0,0,1,.27,2,20.58,20.58,0,0,1-.27,2.36,19.9,19.9,0,0,1-.43,2.25,4.77,4.77,0,0,1-.86,1.83,2.64,2.64,0,0,1-1.63,1,8.63,8.63,0,0,0-.33,1.77c-.05.7-.07,1.44-.07,2.22A19.36,19.36,0,0,0,161,100a8.48,8.48,0,0,0,.44,1.76c1-.11,2.2-.23,3.68-.36s3.25-.17,5.31-.17c1.31,0,2.4,0,3.29.1s1.69.13,2.36.2l1.92.23a10.42,10.42,0,0,0,.3-1.76c.07-.71.11-1.44.14-2.19s0-1.52,0-2.22a11.16,11.16,0,0,0-.17-1.77h-.92V92.14h2.89V93.8h-.94c-.06.47-.11,1-.13,1.77s0,1.44,0,2.22.07,1.48.13,2.19.15,1.3.23,1.76c.92-.09,2.18-.2,3.79-.33s3.38-.2,5.22-.2a45.62,45.62,0,0,1,4.58.2l3.28.33a8.48,8.48,0,0,0,.44-1.76,15.67,15.67,0,0,0,.16-2.19A20,20,0,0,0,196.93,95.57Zm-17-8.3h-2.39V85.71H180Zm57.42,8.3a6.68,6.68,0,0,0-.3-1.77,4,4,0,0,1-1.1-.66,5.51,5.51,0,0,1-1.06-1.56,16.43,16.43,0,0,1-.93-3,9.64,9.64,0,0,1-.26-2.56,3.57,3.57,0,0,1,.36-1.52,2.06,2.06,0,0,1,.7-.77,1.47,1.47,0,0,1,.63-.23,5.22,5.22,0,0,0,.43-1.63,14,14,0,0,0,.1-2.19,15.42,15.42,0,0,0-.17-2.29,8.34,8.34,0,0,0-.49-1.93l-2.2.2-2.82.21c-1,0-1.84.06-2.58.06-1.16,0-2.19,0-3.1-.06L222,75.64c-.82-.09-3.06-.15-4-.2-.16.87-1.67,4.81-1.69,6-.6-1.17,1.55-5.17,1.69-6-1,.09-2.12.17-3.43.23s-2.65.13-4,.18-2.68.06-3.91.06c-1.53,0-2.9-.06-4.12-.16l-3.05-.31a7.85,7.85,0,0,0-.5,1.93,18.58,18.58,0,0,0-.2,2.29,16.75,16.75,0,0,0,.13,2.19,4.94,4.94,0,0,0,.44,1.63,1.25,1.25,0,0,1,.62.23,1.9,1.9,0,0,1,.74.77,3.77,3.77,0,0,1,.49,1.56,8.91,8.91,0,0,1-.13,2.59,9.5,9.5,0,0,1-.87,3A4,4,0,0,1,198,93.8a7.94,7.94,0,0,0-.34,1.77q-.06,1.05-.06,2.22a17.3,17.3,0,0,0,.2,2.19,8.54,8.54,0,0,0,.43,1.76c.86-.09,2.14-.2,3.82-.33s3.78-.2,6.24-.2c.84,0,1.74,0,2.69.07l2.82.13c.93.07,1.77.12,2.53.16l1.76.17a9.31,9.31,0,0,0,.06-2.86,3.51,3.51,0,0,0-.67-1.72,3.7,3.7,0,0,0-1.19-1,15.29,15.29,0,0,0-1.46-.73l-3.62-1.63.4-.89L218,95.73l2-5.64.33,3.71h-1.16a17.46,17.46,0,0,0-.14,1.77q0,1.05,0,2.22c0,.75.07,1.48.14,2.19s.14,1.3.23,1.76c.91-.09,2.21-.2,3.88-.33s3.51-.2,5.38-.2,3.6.07,4.89.2l3.32.33a9.24,9.24,0,0,0,.43-1.76,14.29,14.29,0,0,0,.16-2.19A17.85,17.85,0,0,0,237.38,95.57Zm35.41-11.69a1.64,1.64,0,0,1,.94-.4,5.51,5.51,0,0,0,.43-1.63,12.92,12.92,0,0,0,.09-2.19,15.44,15.44,0,0,0-.16-2.29,8.32,8.32,0,0,0-.5-1.93c-.9.09-2.08.19-3.52.31s-2.85.16-4.31.16c-.76,0-1.44,0-2.06,0l-1.82-.07c-.61,0-1.27-.1-2-.17s-1.61-.13-2.62-.2a29.31,29.31,0,0,1-.14,3.69,10.86,10.86,0,0,1-.56,2.79,10.41,10.41,0,0,1-1.19,2.29,17.41,17.41,0,0,1-2,2.29l-.7-.69a16.77,16.77,0,0,0,1.82-2.13,7.89,7.89,0,0,0,1.13-2.12,10.65,10.65,0,0,0,.54-2.6,32.32,32.32,0,0,0,.06-3.52c-.62,0-1.34.08-2.16.17l-2.95.24c-1.18.06-2.64.09-4.42.09-2,0-3.66-.06-4.88-.16l-3.15-.34a8.32,8.32,0,0,0-.5,1.93,18.58,18.58,0,0,0-.2,2.29,15.12,15.12,0,0,0,.14,2.19,5.25,5.25,0,0,0,.42,1.63,1.47,1.47,0,0,1,.9.4,2.8,2.8,0,0,1,.9,1.46,9.47,9.47,0,0,1,.4,3.19,10.63,10.63,0,0,1-.34,3,3.77,3.77,0,0,1-.82,1.56,3,3,0,0,1-1,.66,8.63,8.63,0,0,0-.33,1.77q-.06,1.05-.06,2.22a15.63,15.63,0,0,0,.2,2.19,8.54,8.54,0,0,0,.43,1.76c.84-.11,2-.23,3.35-.36s3-.17,4.75-.17c1.08,0,2,0,2.92.1l2.49.2c.8.08,1.64.16,2.53.23a32.37,32.37,0,0,1,.1-3.69,11.66,11.66,0,0,1,.59-2.75,9.47,9.47,0,0,1,1.2-2.32,17.32,17.32,0,0,1,1.95-2.3l.7.7a19.43,19.43,0,0,0-1.86,2.12,8.94,8.94,0,0,0-1.09,2.13,11.58,11.58,0,0,0-.54,2.59c-.06,1-.08,2.15-.06,3.52q1.12-.13,3.36-.33t6.23-.2c1.69,0,3.22.07,4.62.2l3.45.33a8.54,8.54,0,0,0,.43-1.76,13.13,13.13,0,0,0,.17-2.19,16.06,16.06,0,0,0-.07-2.22,7.16,7.16,0,0,0-.29-1.77,3.13,3.13,0,0,1-1-.66,3.77,3.77,0,0,1-.82-1.56,10.63,10.63,0,0,1-.34-3,10.48,10.48,0,0,1,.37-3.19A3.15,3.15,0,0,1,272.79,83.88Zm36.94,0a1.59,1.59,0,0,1,.93-.4,5.22,5.22,0,0,0,.43-1.63,14,14,0,0,0,.1-2.19,15.42,15.42,0,0,0-.17-2.29,8.88,8.88,0,0,0-.49-1.93l-2.36.2-3.06.21c-1,0-2,.06-2.89.06-2,0-3.72-.06-5.11-.16l-3.42-.31c-.08.49-.16,1.12-.23,1.9s-.11,1.58-.13,2.42,0,1.65,0,2.42a17.69,17.69,0,0,0,.13,1.89h.83v1.54h-2.66V84.07h.8a12.93,12.93,0,0,0,.17-1.89c0-.77,0-1.58,0-2.42s-.07-1.65-.13-2.42a11.69,11.69,0,0,0-.3-1.9l-3.33.31c-1.28.1-2.86.16-4.74.16-1,0-2,0-3.12-.06l-3.09-.21-2.39-.2a8.32,8.32,0,0,0-.5,1.93,18.61,18.61,0,0,0-.19,2.29,16.75,16.75,0,0,0,.13,2.19,5,5,0,0,0,.43,1.63,1.52,1.52,0,0,1,.9.4,2.86,2.86,0,0,1,.89,1.46,9.73,9.73,0,0,1,.4,3.19,11.06,11.06,0,0,1-.33,3,3.77,3.77,0,0,1-.83,1.56,3.2,3.2,0,0,1-1,.66,8,8,0,0,0-.33,1.77c-.05.7-.07,1.44-.07,2.22a17.3,17.3,0,0,0,.2,2.19,8.54,8.54,0,0,0,.43,1.76c1-.11,2.18-.23,3.62-.36s3.05-.17,4.85-.17c1.48,0,2.71,0,3.68.1s1.79.13,2.46.2l2,.23a10.48,10.48,0,0,0,.3-1.79c.06-.75.11-1.53.13-2.33s0-1.59,0-2.32a11.41,11.41,0,0,0-.17-1.83h-.8V91.78h2.66v1.69h-.83a15.56,15.56,0,0,0-.13,1.83c0,.73,0,1.5,0,2.32s.06,1.58.13,2.33.15,1.33.23,1.79l3.62-.33c1.5-.13,3.14-.2,4.91-.2,2,0,3.6.07,4.88.2l3.33.33a10.07,10.07,0,0,0,.43-1.76,14.29,14.29,0,0,0,.16-2.19,20,20,0,0,0-.06-2.22,7.61,7.61,0,0,0-.3-1.77,3,3,0,0,1-1-.66,3.77,3.77,0,0,1-.83-1.56,11,11,0,0,1-.34-3,10.48,10.48,0,0,1,.37-3.19A3.15,3.15,0,0,1,309.73,83.88Z" transform="translate(-14.68 -30.55)" />
		<path id="mameniI" class="SMR_logo-2" d="M331.38,95.58a17.79,17.79,0,0,1,.07,2.22,17.3,17.3,0,0,1-.2,2.19,7.31,7.31,0,0,1-.46,1.76c-.67-.07-1.52-.15-2.56-.23l-3.32-.2c-1.17-.07-2.32-.1-3.42-.1s-2.09,0-3.22.1l-3.18.2c-1,.08-1.83.16-2.5.23a7.81,7.81,0,0,1-.46-1.76,17.3,17.3,0,0,1-.2-2.19,20,20,0,0,1,.06-2.22,9.85,9.85,0,0,1,.37-1.77,3.17,3.17,0,0,0,1-.66,3.48,3.48,0,0,0,.87-1.56,11.06,11.06,0,0,0,.33-3,9.47,9.47,0,0,0-.4-3.19,2.87,2.87,0,0,0-.93-1.46,1.46,1.46,0,0,0-.86-.4,6.05,6.05,0,0,1-.47-1.63,15,15,0,0,1-.16-2.19,18.58,18.58,0,0,1,.2-2.29,7.74,7.74,0,0,1,.57-1.93c.61,0,1.19-.06,2.13,0,2,2.43,2.94,3.24,6,3.61,7.13.86,7.87-3,8.16-3.62h2.08a8.34,8.34,0,0,1,.49,1.93,14.18,14.18,0,0,1,.17,2.29,19.27,19.27,0,0,1-.13,2.23,5.15,5.15,0,0,1-.43,1.62,1.58,1.58,0,0,0-1,.4,2.75,2.75,0,0,0-.83,1.43,11.45,11.45,0,0,0-.33,3.19,11.06,11.06,0,0,0,.33,3,4,4,0,0,0,.86,1.56,3.2,3.2,0,0,0,1,.66A6.47,6.47,0,0,1,331.38,95.58Z" transform="translate(-14.68 -30.55)" />
		<g id="mameniTomate">
			<path class="SMR_logo-1" d="M328.38,72.22a8.23,8.23,0,0,1-1.26,1.93,5.65,5.65,0,0,1-1.22,1.12,4.83,4.83,0,0,1-3.44.67c-1.35-.26-.71,1.17-4.41-.18a5.67,5.67,0,0,1-1.16-.85A9,9,0,0,1,315,72.43a5.65,5.65,0,0,1-.65-3.09,5.33,5.33,0,0,1,1-2.56A7.89,7.89,0,0,1,319.43,64a7.17,7.17,0,0,1,1.2-.27c0-.06.55,0,.55-.07a8.07,8.07,0,0,1,4.75,1.3,6.49,6.49,0,0,1,2.84,3.57A5.27,5.27,0,0,1,328.38,72.22Z" transform="translate(-14.68 -30.55)" />
			<path class="SMR_logo-3" d="M321.18,63.65" transform="translate(-14.68 -30.55)" />
			<path class="SMR_logo-1" d="M318.82,67.05a.24.24,0,0,1,.39.17c.66.27-.25,5.24-.63,5.3,0,.15-.13.23-.26.26a.32.32,0,0,1-.21-.15,5.87,5.87,0,0,1-.74-1.94,3.69,3.69,0,0,1,.26-2.27A3.29,3.29,0,0,1,318.82,67.05Z" transform="translate(-14.68 -30.55)" />
			<path class="SMR_logo-4" d="M322.49,76.57a1.47,1.47,0,0,1-1-.17.32.32,0,0,1-.16-.39.88.88,0,0,1,.67-.34,1.41,1.41,0,0,1,1,.21.29.29,0,0,1,.1.38.93.93,0,0,1-.6.31" transform="translate(-14.68 -30.55)" />
			<path class="SMR_logo-3" d="M321.89,63.76c0-1.26.16-.55.13-1.81.69-.55,1.26-1.24,2-1.8l-2.21,1.58-1.18-1.51,1.09,1.69-2.37.36,2.42-.23C321.77,63.23,321.83,62.57,321.89,63.76Z" transform="translate(-14.68 -30.55)" />
		</g>
	</g>
	<g id="Smachni">
		<path id="smachniAll" class="SMR_logo-5" d="M142.43,62c-.1.09-.3.31-.6.64s-.45.5-.6.65l-.52.5a2.49,2.49,0,0,1-.67.49,6.78,6.78,0,0,1-.59.36,2.22,2.22,0,0,1-.74.27,5.46,5.46,0,0,1-1.09,0,1.93,1.93,0,0,1-1.37-.83,3.88,3.88,0,0,1-.61-2.5c0-1.12,1.29-4.31,3.78-9.57s3.84-8.3,3.85-9a2.9,2.9,0,0,0-.62-1.92,1.92,1.92,0,0,0-1.51-.83,2,2,0,0,0-1.48.63,9,9,0,0,0-.6.79c-.14.24-.37.6-.66,1.12l0,.07c-.26.51-.48,1-.68,1.41s-.51,1-.92,1.81-.76,1.47-1.07,2.1a50.86,50.86,0,0,1-7.47,11.32q-3.52,3.72-6,3.67a3.34,3.34,0,0,1-2.32-1,3.75,3.75,0,0,1-.89-2.8c0-1.2.69-3.44,2-6.68a.38.38,0,0,1,.06-.13c.55-1,1.3-2.26,2.24-3.77a36.89,36.89,0,0,0,2-3.76,5.82,5.82,0,0,0,.71-2.39,2.93,2.93,0,0,0-.62-1.92,2.11,2.11,0,0,0-1.66-.84c-.69,0-1.35.51-2,1.57-.4.67-.76,1.3-1.06,1.88s-.82,1.54-1.53,2.89-1.24,2.43-1.75,3.4a41.73,41.73,0,0,1-7.83,10.58q-4.17,4-6.59,4a3.31,3.31,0,0,1-2.32-1,3.36,3.36,0,0,1-.54-.73,1.09,1.09,0,0,0-1.69-.34l-1.14,1A1.08,1.08,0,0,0,97,64c.06,3.14,1.39,4.73,4,4.79q2.77,0,6.27-2.5a25.57,25.57,0,0,0,4.34-4.19,1.08,1.08,0,0,1,1.89.88,16.55,16.55,0,0,0-.27,1.68c-.08,3.46,1.25,5.21,4,5.27q2.7.06,6.71-2.93a28.13,28.13,0,0,0,4.85-4.66,1.08,1.08,0,0,1,1.9.81c-.07.63-.11,1.2-.12,1.73a6,6,0,0,0,1.16,4A4.17,4.17,0,0,0,135,70.42a8,8,0,0,0,4.86-2,12.28,12.28,0,0,0,3.71-4.36,1.06,1.06,0,0,0-.28-1.28Zm61.09,3.41c-1.27,0-1.89-.87-1.85-2.53q.11-5.2,7.75-18.26a1.08,1.08,0,0,0-.38-1.48l-1.73-1a1.08,1.08,0,0,0-1.54.55A19.54,19.54,0,0,1,200,50.52c-2.88,2.38-5.41,3.54-7.6,3.5-1.9,0-2.83-1.09-2.79-3.13,0-1.87,1.05-4.64,3-8.29a1.07,1.07,0,0,0-.56-1.51l-1.44-.56a1.09,1.09,0,0,0-1.14.23,18.27,18.27,0,0,0-3.67,5.37,19.13,19.13,0,0,0-2.07,7.7c-.07,3.61,1.47,5.45,4.64,5.51a12.89,12.89,0,0,0,7.14-2.48,70,70,0,0,0,6.72-5c-1,1.57-5.78,9.51-5.59,14.12.13,2.88,1.32,4.34,4.14,4.4a8.23,8.23,0,0,0,5.53-1.85,14.75,14.75,0,0,0,2.67-2.58,1.07,1.07,0,0,0-.22-1.47l-.54-.42A1.08,1.08,0,0,0,207,64,5.32,5.32,0,0,1,203.52,65.44ZM241.1,44.67q-2,2.52-6.54,12.32a1.07,1.07,0,0,1-1,.63q-.65,0-1.47-.06c-.71,0-2.67.11-5.9.36a1.07,1.07,0,0,1-1.08-1.48,86.73,86.73,0,0,1,4-8.23c.5-.91.9-1.65,1.2-2.21a1.08,1.08,0,0,0-.54-1.5L228.46,44a1.07,1.07,0,0,0-1.28.35q-2.27,2.93-7.48,14.21a1.06,1.06,0,0,1-.8.62c-1.27.2-3,.57-5.33,1.11-1.32.32-2.31.58-3,.78a1.07,1.07,0,0,0-.73,1.27l.21.89a1.07,1.07,0,0,0,1.33.79c1.47-.4,2.94-.72,4.4-1A1.07,1.07,0,0,1,217,64.43c-2.06,5.2-4.11,18.24-4.41,22.15a1.09,1.09,0,0,0,.91,1.15l2.74.42a1.07,1.07,0,0,0,1.24-1c.34-4.71,2.59-19.41,4.85-24.68a1.11,1.11,0,0,1,.83-.62,45.94,45.94,0,0,1,6.74-.71l1.18,0a1.08,1.08,0,0,1,1,1.47,30.5,30.5,0,0,0-2.15,7.87,1.08,1.08,0,0,0,1,1.19l2.61.26a1.07,1.07,0,0,0,1.16-.92,54.62,54.62,0,0,1,3.05-11.64,90,90,0,0,1,4.46-10.14c.77-1.39,1.33-2.46,1.7-3.21a1.07,1.07,0,0,0-.7-1.51l-1-.25A1.06,1.06,0,0,0,241.1,44.67Zm8.31,36.81c-5.79-2.06,5.55-24.12,9.76-33a1.07,1.07,0,0,0-.4-1.36l-1.12-.71a1.12,1.12,0,0,0-1.67.28q-.39.72-1,1.89c-4.06,7.52-15,28.43-12,35.69,2.66,6.54,18.76,3.87,22.73-12.72.5-2.06-2.15-3.34-4.9-2.17C254.91,71.87,257,84.18,249.41,81.48Z" transform="translate(-14.68 -30.55)" />
		<path id="SmachniA" class="SMR_logo-5" d="M180,63.92l-1,.71-.89.64a3.34,3.34,0,0,1-.59.42l-.52.36-.44.13a3.51,3.51,0,0,1-1,.06,2.16,2.16,0,0,1-1.38-.69,2.56,2.56,0,0,1-.62-1.77c0-1.63,1.6-5.42,4.69-11.33a1.36,1.36,0,0,0,.12-.39c.62-5.47-3.29-11.86-15.2-5.31a33.65,33.65,0,0,0-10.25,8,16.14,16.14,0,0,0-4.16,10,6.48,6.48,0,0,0,1.29,4.41,5.59,5.59,0,0,0,4.21,1.63A12.86,12.86,0,0,0,160,69.49a26.68,26.68,0,0,0,7-5.26l2.76-2.72a14.75,14.75,0,0,0-1.2,5c-.07,3,1.34,4.56,4.21,4.62a8.66,8.66,0,0,0,5-1.87,12.19,12.19,0,0,0,3.38-3.21,1.08,1.08,0,0,0-.24-1.46Zm-7.16-10.19c-2.24,3.85-9.52,12.36-15,12.93-2.32.25-4.47-1.88-4.41-4.75s2-7.43,11.11-12C171.57,46.45,175.65,48.88,172.83,53.73Z" transform="translate(-14.68 -30.55)" />
		<path id="brocoli" class="SMR_logo-2" d="M269.21,41.6A1.78,1.78,0,0,0,268,38.28a3.32,3.32,0,0,0-5.34-3.86,1.53,1.53,0,0,0-2.14-.34,1.37,1.37,0,0,0-.4.43v0l-.21-.16a2.3,2.3,0,0,0-2.43,3.91l.3.14a1.53,1.53,0,0,0,1.11,1.86,1.5,1.5,0,0,0,.84,0h0l.74-1.5a3.32,3.32,0,0,0,3.45,1.06,3.35,3.35,0,0,0,.53,2.09l-.83.88a1.78,1.78,0,0,0,2.76,1.64l.15.11a2,2,0,0,0,2.73-2.94Z" transform="translate(-14.68 -30.55)" />
		<path id="brocoli-2" data-name="brocoli" class="SMR_logo-6" d="M264,39.8a3.49,3.49,0,0,1-3.59-1.13l-.76,1.54-1.81,3.24L261,45.53l2.73-2.68.86-.9A3.43,3.43,0,0,1,264,39.8Z" transform="translate(-14.68 -30.55)" />
		<g id="Croassan">
			<path class="SMR_logo-5" d="M94.21,46.75,82.91,32.58A34.16,34.16,0,0,0,60.63,50.16l25.1,7C86.23,52.47,89.82,48.55,94.21,46.75ZM95.33,104l5.82-16.67a13.74,13.74,0,0,1-11.08-7.79L68.27,94.78A34.15,34.15,0,0,0,95.33,104Z" transform="translate(-14.68 -30.55)" />
			<path class="SMR_logo-5" d="M66.53,92.86l22.4-15.58c-1.39-2.76-2.92-5.4-3.38-8.46a28.92,28.92,0,0,1-.27-9.19L59.65,52.44A34.17,34.17,0,0,0,66.53,92.86Z" transform="translate(-14.68 -30.55)" />
			<path class="SMR_logo-5" d="M103.76,103c7.42-1.26,10.59-4.13,15.69-9.66,3.51-4,3.78-8.53.82-8.7-4-.1-9,3.65-16.5,2.8L98,103.92C98.76,103.84,103,103.15,103.76,103Z" transform="translate(-14.68 -30.55)" />
			<path class="SMR_logo-5" d="M113.05,43.44c1.55-2.19-.58-6.74-3.32-8.34a34.07,34.07,0,0,0-21.82-3.57c-.8.14-1.6.31-2.38.51L96.47,45.76C103.22,42.8,112.15,44.71,113.05,43.44Z" transform="translate(-14.68 -30.55)" />
		</g>
	</g>
</svg>
