<?xml version="1.0" encoding="utf-8"?>
<!-- Generator: Adobe Illustrator 26.0.0, SVG Export Plug-In . SVG Version: 6.00 Build 0)  -->
<svg version="1.1" id="Capa_1" xmlns="http://www.w3.org/2000/svg" xmlns:xlink="http://www.w3.org/1999/xlink" x="0px" y="0px"
	 viewBox="0 0 200 83" style="enable-background:new 0 0 200 83;" xml:space="preserve">
<g>
	<path d="M53.29,46.19c0-0.36-0.03-0.67-0.09-0.93c-0.06-0.26-0.17-0.47-0.32-0.63c-0.15-0.16-0.36-0.28-0.62-0.36
		c-0.27-0.08-0.61-0.12-1.02-0.12c-0.57,0-1.29,0.06-2.18,0.19l-0.15-1.15c0.81-0.15,1.69-0.3,2.65-0.45
		c0.96-0.15,1.94-0.3,2.95-0.42c1.01-0.13,2.02-0.23,3.04-0.32c1.02-0.08,1.99-0.12,2.93-0.12c1.24,0,2.4,0.11,3.49,0.33
		c1.09,0.22,2.04,0.6,2.85,1.14c0.81,0.54,1.45,1.26,1.93,2.16c0.47,0.9,0.71,2.03,0.71,3.37c0,1.57-0.26,2.98-0.79,4.23
		c-0.53,1.25-1.27,2.31-2.22,3.18c-0.95,0.87-2.1,1.53-3.43,1.99c-1.34,0.46-2.81,0.69-4.42,0.69c-0.36,0-0.61-0.06-0.76-0.17
		s-0.22-0.35-0.22-0.72v-0.17c0-0.09,0-0.15,0.01-0.19c1.26,0,2.35-0.13,3.25-0.39c0.9-0.26,1.67-0.61,2.29-1.04
		c0.62-0.43,1.11-0.93,1.48-1.48c0.37-0.55,0.65-1.12,0.85-1.71c0.2-0.59,0.33-1.17,0.39-1.75c0.06-0.58,0.09-1.1,0.09-1.56
		c0-1.24-0.17-2.28-0.52-3.11c-0.35-0.83-0.82-1.49-1.42-1.98c-0.6-0.49-1.29-0.84-2.09-1.04c-0.8-0.2-1.65-0.3-2.55-0.3
		c-0.46,0-0.89,0.02-1.31,0.05c-0.42,0.03-0.87,0.08-1.36,0.14c-0.02,0.66-0.04,1.55-0.07,2.65c-0.03,1.11-0.06,2.38-0.1,3.82
		c-0.04,1.44-0.08,3.01-0.14,4.73c-0.05,1.71-0.1,3.5-0.15,5.37c-0.05,1.87-0.11,3.79-0.17,5.76c-0.06,1.97-0.12,3.93-0.18,5.89
		l-3.05,0.39l-0.23-0.03c0.1-2.46,0.2-4.8,0.28-7.01c0.09-2.21,0.16-4.36,0.21-6.45c0.06-2.09,0.1-4.16,0.13-6.21
		C53.27,50.44,53.29,48.34,53.29,46.19z"/>
	<path d="M82.15,67.8c0.05,0.03,0.12,0.06,0.2,0.11c0.08,0.05,0.16,0.1,0.23,0.15c0.07,0.06,0.13,0.12,0.18,0.18
		c0.05,0.06,0.08,0.13,0.08,0.19c0,0.03-0.01,0.07-0.04,0.1c-0.48,0.67-1,1.25-1.55,1.75c-0.55,0.49-1.13,0.91-1.73,1.24
		c-0.6,0.33-1.2,0.57-1.82,0.73c-0.62,0.16-1.23,0.24-1.83,0.24c-1.03,0-1.98-0.21-2.83-0.63c-0.86-0.42-1.6-1-2.21-1.73
		c-0.62-0.73-1.1-1.59-1.45-2.57c-0.35-0.98-0.52-2.04-0.52-3.16c0-0.92,0.1-1.84,0.3-2.76c0.2-0.92,0.49-1.8,0.88-2.63
		c0.38-0.83,0.85-1.61,1.4-2.32c0.55-0.72,1.17-1.34,1.87-1.87c0.7-0.53,1.47-0.94,2.31-1.24c0.84-0.3,1.74-0.45,2.7-0.45
		c0.63,0,1.24,0.09,1.82,0.26c0.57,0.17,1.08,0.42,1.51,0.74c0.43,0.32,0.78,0.72,1.04,1.19c0.26,0.47,0.39,1.01,0.39,1.61
		c0,0.88-0.29,1.64-0.86,2.29c-0.57,0.65-1.36,1.21-2.36,1.66c-1,0.46-2.19,0.82-3.55,1.1c-1.36,0.28-2.83,0.49-4.41,0.62v0.22
		c0,1.1,0.14,2.1,0.42,3.01c0.28,0.91,0.66,1.69,1.15,2.34c0.49,0.65,1.07,1.15,1.73,1.51c0.66,0.36,1.37,0.54,2.14,0.54
		c0.77,0,1.56-0.19,2.38-0.57C80.5,69.27,81.32,68.65,82.15,67.8z M79.73,57.45c0-0.39-0.07-0.76-0.2-1.11
		c-0.13-0.34-0.32-0.64-0.55-0.9c-0.24-0.25-0.52-0.45-0.84-0.6c-0.33-0.15-0.68-0.22-1.06-0.22c-0.56,0-1.07,0.1-1.52,0.3
		c-0.46,0.2-0.86,0.47-1.22,0.8c-0.36,0.34-0.68,0.73-0.95,1.18c-0.28,0.45-0.51,0.93-0.7,1.44c-0.19,0.51-0.35,1.03-0.47,1.56
		c-0.12,0.53-0.21,1.05-0.26,1.56c1.22-0.09,2.31-0.23,3.28-0.44c0.97-0.21,1.78-0.48,2.45-0.81c0.67-0.33,1.17-0.73,1.53-1.18
		S79.73,58.04,79.73,57.45z"/>
	<path d="M101.01,66.49c0,0.63,0.01,1.16,0.02,1.6s0.05,0.81,0.12,1.11s0.18,0.53,0.33,0.7s0.36,0.3,0.63,0.39
		c0.27,0.09,0.62,0.15,1.04,0.19c0.42,0.04,0.94,0.07,1.55,0.1c0.15,0.01,0.26,0.03,0.32,0.08c0.06,0.04,0.09,0.11,0.09,0.21
		c0,0.02,0,0.04-0.01,0.07c0,0.03-0.01,0.07-0.02,0.11c-0.3,1.8-0.58,3.58-0.84,5.35c-0.26,1.77-0.51,3.56-0.73,5.37l-1.03-0.04
		c-0.02-1.67-0.05-3.32-0.11-4.95c-0.06-1.64-0.12-3.29-0.19-4.95c-0.5-0.02-0.94-0.03-1.33-0.03s-0.79-0.01-1.19-0.01h-0.82
		c-1.11,0-2.18,0.01-3.22,0.02c-1.04,0.01-1.98,0.03-2.83,0.04c-0.85,0.01-1.57,0.02-2.16,0.03c-0.59,0.01-1,0.01-1.21,0.01
		c-0.41,0-0.76-0.05-1.04-0.14c-0.28-0.09-0.5-0.23-0.67-0.42c-0.17-0.18-0.29-0.41-0.35-0.68c-0.07-0.27-0.1-0.57-0.1-0.93
		c0-0.17,0.01-0.49,0.04-0.95c0.03-0.46,0.06-1.03,0.09-1.69c0.03-0.67,0.07-1.41,0.12-2.23c0.05-0.82,0.09-1.67,0.12-2.56
		c0.03-0.89,0.06-1.79,0.09-2.69s0.04-1.78,0.04-2.62c0-0.27-0.01-0.53-0.04-0.75c-0.03-0.23-0.09-0.42-0.18-0.59
		c-0.09-0.16-0.22-0.29-0.39-0.38c-0.17-0.09-0.4-0.14-0.7-0.14c-0.27,0-0.62,0.04-1.02,0.12c-0.41,0.08-0.92,0.2-1.54,0.36
		l-0.19-0.93c1.45-0.5,2.64-0.86,3.55-1.09c0.92-0.23,1.56-0.35,1.92-0.35c0.23,0,0.45,0.03,0.65,0.1c0.2,0.06,0.38,0.17,0.53,0.32
		c0.15,0.15,0.27,0.35,0.36,0.61c0.09,0.25,0.13,0.56,0.13,0.93c0,0.08-0.01,0.34-0.04,0.77c-0.03,0.44-0.06,1-0.1,1.67
		c-0.04,0.68-0.08,1.45-0.13,2.31s-0.09,1.75-0.13,2.67c-0.04,0.92-0.07,1.84-0.1,2.76c-0.03,0.92-0.04,1.78-0.04,2.58
		c0,0.41,0.01,0.77,0.04,1.06c0.03,0.3,0.1,0.54,0.23,0.73c0.13,0.19,0.33,0.34,0.61,0.43c0.27,0.09,0.66,0.14,1.16,0.14h0.75
		c0.21,0,0.47,0,0.77-0.01c0.3,0,0.65-0.01,1.06-0.01c0.41,0,0.9,0,1.46-0.01c0.56,0,1.22-0.01,1.96-0.01
		c-0.03-0.18-0.06-0.37-0.08-0.57c-0.02-0.2-0.04-0.41-0.04-0.64c-0.01-0.23-0.02-0.49-0.02-0.76c-0.01-0.27-0.01-0.58-0.01-0.93
		c0-0.74,0.01-1.55,0.03-2.45c0.02-0.89,0.04-1.87,0.08-2.94c0.04-1.07,0.09-2.24,0.15-3.51c0.06-1.27,0.13-2.65,0.21-4.15
		c0.02-0.36,0.17-0.63,0.47-0.81c0.3-0.18,0.68-0.27,1.14-0.27c0.49,0,0.98,0.12,1.48,0.37c-0.14,1.48-0.25,2.82-0.34,4.03
		c-0.09,1.21-0.16,2.33-0.22,3.36c-0.06,1.03-0.09,1.99-0.12,2.89C101.02,64.8,101.01,65.66,101.01,66.49z"/>
	<path d="M119.99,67.8c0.05,0.03,0.12,0.06,0.2,0.11c0.08,0.05,0.16,0.1,0.23,0.15c0.07,0.06,0.13,0.12,0.18,0.18
		c0.05,0.06,0.08,0.13,0.08,0.19c0,0.03-0.01,0.07-0.04,0.1c-0.48,0.67-1,1.25-1.55,1.75c-0.55,0.49-1.13,0.91-1.73,1.24
		c-0.6,0.33-1.2,0.57-1.82,0.73c-0.62,0.16-1.23,0.24-1.83,0.24c-1.03,0-1.98-0.21-2.83-0.63c-0.86-0.42-1.6-1-2.21-1.73
		c-0.62-0.73-1.1-1.59-1.45-2.57c-0.35-0.98-0.52-2.04-0.52-3.16c0-0.92,0.1-1.84,0.3-2.76c0.2-0.92,0.49-1.8,0.88-2.63
		c0.38-0.83,0.85-1.61,1.4-2.32c0.55-0.72,1.17-1.34,1.87-1.87c0.7-0.53,1.47-0.94,2.31-1.24c0.84-0.3,1.74-0.45,2.7-0.45
		c0.63,0,1.24,0.09,1.82,0.26c0.57,0.17,1.08,0.42,1.51,0.74c0.43,0.32,0.78,0.72,1.04,1.19c0.26,0.47,0.39,1.01,0.39,1.61
		c0,0.88-0.29,1.64-0.86,2.29c-0.57,0.65-1.36,1.21-2.36,1.66c-1,0.46-2.19,0.82-3.55,1.1c-1.36,0.28-2.83,0.49-4.41,0.62v0.22
		c0,1.1,0.14,2.1,0.42,3.01c0.28,0.91,0.66,1.69,1.15,2.34c0.49,0.65,1.07,1.15,1.73,1.51c0.66,0.36,1.37,0.54,2.14,0.54
		c0.77,0,1.56-0.19,2.38-0.57C118.34,69.27,119.16,68.65,119.99,67.8z M117.57,57.45c0-0.39-0.07-0.76-0.2-1.11
		c-0.13-0.34-0.32-0.64-0.55-0.9c-0.24-0.25-0.52-0.45-0.84-0.6c-0.33-0.15-0.68-0.22-1.06-0.22c-0.56,0-1.07,0.1-1.52,0.3
		c-0.46,0.2-0.86,0.47-1.22,0.8c-0.36,0.34-0.68,0.73-0.95,1.18c-0.28,0.45-0.51,0.93-0.7,1.44c-0.19,0.51-0.35,1.03-0.47,1.56
		c-0.12,0.53-0.21,1.05-0.26,1.56c1.22-0.09,2.31-0.23,3.28-0.44c0.97-0.21,1.78-0.48,2.45-0.81c0.67-0.33,1.17-0.73,1.53-1.18
		S117.57,58.04,117.57,57.45z"/>
	<path d="M143.5,70.22c-0.32,0.25-0.71,0.5-1.17,0.75c-0.46,0.25-0.94,0.48-1.44,0.69c-0.5,0.21-0.98,0.37-1.45,0.5
		c-0.47,0.13-0.88,0.19-1.22,0.19c-0.24,0-0.46-0.02-0.66-0.06c-0.2-0.04-0.38-0.13-0.55-0.28c-0.16-0.15-0.31-0.36-0.44-0.65
		c-0.13-0.29-0.24-0.68-0.33-1.18c-0.09-0.5-0.16-1.12-0.2-1.86c-0.04-0.74-0.07-1.64-0.07-2.69c0-1.17,0.01-2.22,0.04-3.14
		c0.03-0.93,0.05-1.75,0.08-2.46c0.03-0.71,0.05-1.32,0.08-1.84c0.03-0.51,0.04-0.93,0.04-1.27c0-0.27-0.01-0.51-0.04-0.72
		c-0.03-0.21-0.09-0.4-0.18-0.55c-0.09-0.15-0.24-0.27-0.42-0.35c-0.19-0.08-0.44-0.12-0.76-0.12c-0.23,0-0.51,0-0.83,0.01
		c-0.32,0-0.73,0.01-1.23,0.01c-0.5,0-1.1,0.01-1.81,0.01c-0.71,0-1.56,0.01-2.56,0.01c0.03,0.16,0.06,0.31,0.08,0.48
		c0.02,0.16,0.03,0.4,0.03,0.72c0,0.33-0.02,0.91-0.05,1.75c-0.03,0.84-0.07,1.91-0.13,3.21c-0.06,1.3-0.12,2.82-0.19,4.57
		s-0.15,3.68-0.24,5.82l-2.76,0.34l-0.21-0.01c0.07-0.84,0.13-1.73,0.19-2.65c0.06-0.93,0.11-1.86,0.16-2.8
		c0.05-0.94,0.09-1.85,0.13-2.74c0.04-0.89,0.07-1.73,0.09-2.51s0.04-1.47,0.05-2.07c0.01-0.61,0.02-1.09,0.02-1.45
		c0-0.46-0.01-0.84-0.04-1.17c-0.03-0.32-0.09-0.6-0.18-0.82c-0.09-0.23-0.23-0.41-0.4-0.55c-0.17-0.14-0.4-0.24-0.7-0.32
		c-0.29-0.08-0.65-0.13-1.08-0.16s-0.94-0.05-1.54-0.06l-0.03-1.08c0.78,0.02,1.47,0.03,2.05,0.03c0.59,0,1.1,0.01,1.53,0.01
		c0.43,0,0.79,0.01,1.09,0.01s0.55,0,0.75,0h0.67c1.66,0,3.1-0.01,4.33-0.02s2.28-0.03,3.13-0.04s1.54-0.03,2.04-0.05
		s0.87-0.02,1.08-0.02c0.39,0,0.67,0.09,0.84,0.28c0.17,0.19,0.26,0.44,0.26,0.78c0,0.14-0.01,0.38-0.04,0.72
		c-0.03,0.34-0.07,0.76-0.11,1.26c-0.04,0.5-0.09,1.06-0.15,1.67c-0.06,0.62-0.11,1.27-0.15,1.95c-0.04,0.68-0.08,1.38-0.11,2.1
		c-0.03,0.72-0.04,1.42-0.04,2.11c0,0.86,0.02,1.6,0.04,2.22c0.03,0.62,0.08,1.14,0.14,1.56c0.06,0.42,0.14,0.76,0.24,1.01
		c0.09,0.25,0.21,0.45,0.35,0.59c0.14,0.14,0.3,0.23,0.48,0.27c0.18,0.04,0.38,0.06,0.6,0.06c0.41,0,0.83-0.06,1.26-0.17
		s0.89-0.29,1.38-0.51L143.5,70.22z"/>
	<path d="M172.49,70.22c-0.32,0.25-0.71,0.5-1.17,0.75c-0.46,0.25-0.94,0.48-1.44,0.69c-0.5,0.21-0.98,0.37-1.45,0.5
		c-0.47,0.13-0.88,0.19-1.22,0.19c-0.23,0-0.44-0.02-0.64-0.06c-0.19-0.04-0.37-0.13-0.53-0.28c-0.16-0.15-0.3-0.36-0.43-0.65
		s-0.23-0.68-0.32-1.18c-0.09-0.5-0.15-1.12-0.19-1.86c-0.04-0.74-0.06-1.64-0.06-2.69c0-1.17,0.01-2.22,0.04-3.14
		c0.03-0.93,0.05-1.75,0.08-2.46c0.03-0.71,0.05-1.32,0.08-1.84c0.03-0.51,0.04-0.93,0.04-1.27c0-0.27-0.01-0.51-0.04-0.72
		c-0.03-0.21-0.09-0.4-0.18-0.55c-0.09-0.15-0.24-0.27-0.43-0.35c-0.19-0.08-0.44-0.12-0.76-0.12c-0.51,0-1.15,0-1.93,0.01
		c-0.78,0-1.76,0.01-2.94,0.02c-0.05,0.95-0.11,1.97-0.16,3.06c-0.06,1.09-0.11,2.29-0.16,3.62s-0.09,2.8-0.13,4.42
		c-0.04,1.62-0.08,3.44-0.1,5.47l-2.7,0.34l-0.21-0.01c0.07-1.22,0.14-2.55,0.21-3.98c0.07-1.43,0.13-2.9,0.2-4.39
		c0.06-1.49,0.12-2.96,0.16-4.42c0.04-1.46,0.07-2.82,0.09-4.1c-0.46,0.01-0.93,0.01-1.41,0.01c-0.48,0-0.99,0-1.53,0h-3.53
		c0.03,0.16,0.06,0.31,0.08,0.48c0.02,0.16,0.03,0.4,0.03,0.72c0,0.33-0.02,0.93-0.04,1.8c-0.03,0.88-0.07,1.98-0.13,3.3
		c-0.06,1.33-0.12,2.86-0.19,4.59c-0.07,1.73-0.15,3.62-0.24,5.65l-2.63,0.34l-0.21-0.01c0.07-0.84,0.13-1.73,0.19-2.65
		c0.06-0.93,0.11-1.86,0.16-2.8c0.05-0.94,0.09-1.85,0.13-2.74c0.04-0.89,0.07-1.73,0.09-2.51s0.04-1.47,0.05-2.07
		c0.01-0.61,0.02-1.09,0.02-1.45c0-0.46-0.01-0.84-0.04-1.17c-0.03-0.32-0.09-0.6-0.18-0.82c-0.09-0.23-0.23-0.41-0.4-0.55
		c-0.17-0.14-0.4-0.24-0.7-0.32c-0.29-0.08-0.65-0.13-1.08-0.16s-0.94-0.05-1.54-0.06l-0.03-1.08c0.78,0.02,1.47,0.03,2.05,0.03
		c0.59,0,1.1,0.01,1.53,0.01c0.43,0,0.79,0.01,1.09,0.01s0.55,0,0.75,0h0.67c2.81,0,5.26-0.01,7.36-0.02s3.88-0.03,5.36-0.04
		c1.47-0.02,2.65-0.03,3.52-0.05s1.49-0.02,1.85-0.02c0.39,0,0.67,0.09,0.84,0.28c0.17,0.19,0.26,0.44,0.26,0.78
		c0,0.14-0.01,0.38-0.04,0.73c-0.03,0.35-0.07,0.77-0.11,1.27c-0.04,0.5-0.09,1.06-0.15,1.67c-0.06,0.62-0.11,1.27-0.15,1.95
		c-0.04,0.68-0.08,1.38-0.11,2.09c-0.03,0.72-0.04,1.42-0.04,2.11c0,0.86,0.02,1.6,0.04,2.22c0.03,0.62,0.08,1.14,0.14,1.56
		c0.06,0.42,0.14,0.76,0.24,1.01c0.09,0.25,0.21,0.45,0.35,0.59c0.14,0.14,0.3,0.23,0.48,0.27c0.18,0.04,0.38,0.06,0.6,0.06
		c0.41,0,0.83-0.06,1.26-0.17s0.89-0.29,1.38-0.51L172.49,70.22z"/>
	<path d="M175.52,72.12l-0.21-0.01c0.09-1.24,0.17-2.55,0.26-3.92c0.08-1.37,0.17-2.71,0.24-4.04c0.07-1.33,0.13-2.61,0.17-3.85
		c0.04-1.23,0.06-2.34,0.06-3.33c0-0.64-0.09-1.11-0.28-1.41c-0.18-0.3-0.53-0.44-1.02-0.44c-0.29,0-0.64,0.04-1.04,0.12
		c-0.4,0.08-0.91,0.2-1.53,0.36l-0.19-0.93c0.64-0.23,1.25-0.44,1.83-0.62c0.58-0.18,1.1-0.33,1.57-0.45
		c0.47-0.12,0.88-0.21,1.23-0.28c0.35-0.06,0.62-0.1,0.81-0.1c0.24,0,0.46,0.03,0.67,0.1c0.21,0.07,0.38,0.18,0.53,0.33
		c0.15,0.15,0.26,0.36,0.34,0.61c0.08,0.25,0.12,0.56,0.12,0.93c0,0.35-0.02,0.8-0.04,1.35c-0.03,0.55-0.07,1.16-0.12,1.86
		c-0.05,0.69-0.1,1.44-0.16,2.26s-0.12,1.67-0.19,2.56c-0.06,0.89-0.13,1.81-0.19,2.76c-0.06,0.94-0.12,1.89-0.17,2.85l0.1,0.03
		c1.53-2.61,3.09-5.17,4.67-7.68c1.58-2.51,3.2-5.01,4.85-7.5l2.9-0.36l0.21,0.01c-0.05,0.49-0.11,1.05-0.16,1.68
		c-0.06,0.63-0.11,1.29-0.16,1.98c-0.05,0.69-0.1,1.4-0.15,2.14c-0.05,0.73-0.09,1.45-0.12,2.15c-0.03,0.7-0.06,1.37-0.08,2.01
		c-0.02,0.64-0.03,1.22-0.03,1.73c0,1.08,0.03,1.96,0.08,2.63c0.06,0.67,0.15,1.2,0.29,1.58c0.14,0.38,0.32,0.64,0.54,0.78
		c0.22,0.14,0.5,0.21,0.84,0.21c0.41,0,0.85-0.06,1.32-0.19c0.47-0.13,0.95-0.3,1.44-0.53l0.27,0.66c-0.31,0.25-0.69,0.5-1.13,0.76
		c-0.45,0.26-0.92,0.49-1.42,0.71c-0.5,0.21-1.01,0.39-1.51,0.52c-0.51,0.13-0.97,0.2-1.39,0.2c-0.44,0-0.79-0.14-1.07-0.41
		c-0.27-0.27-0.49-0.66-0.64-1.18c-0.16-0.52-0.26-1.15-0.32-1.9c-0.06-0.75-0.09-1.61-0.09-2.57c0-0.32,0.01-0.71,0.02-1.18
		c0.01-0.47,0.03-0.99,0.05-1.55c0.02-0.57,0.05-1.17,0.08-1.8s0.07-1.27,0.12-1.91s0.1-1.27,0.16-1.88
		c0.06-0.61,0.12-1.19,0.19-1.72l-0.1-0.03c-1.66,2.54-3.28,5.1-4.87,7.68c-1.59,2.58-3.17,5.2-4.75,7.87L175.52,72.12z"/>
</g>
<g>
	<path d="M37.76,44.16c0.01-0.76,0.02-1.53,0.03-2.33c0.01-0.8,0.03-1.58,0.04-2.33s0.03-1.47,0.04-2.16s0.02-1.29,0.03-1.82
		c0.01-0.53,0.02-0.96,0.03-1.29c0.01-0.34,0.01-0.54,0.01-0.61c0-0.2-0.03-0.32-0.1-0.35c-0.07-0.04-0.2-0.06-0.42-0.06
		c-1.37-0.01-2.67-0.02-3.91-0.03c-1.24-0.01-2.5-0.01-3.78-0.01h-2.61c-2.34,0-4.42,0-6.22,0.01s-3.36,0.01-4.68,0.03
		c-0.11,0-0.2,0-0.26,0.01c-0.06,0.01-0.12,0.03-0.15,0.06c-0.04,0.03-0.07,0.09-0.09,0.15c-0.02,0.07-0.04,0.17-0.07,0.3
		c-0.32,1.74-0.59,3.48-0.82,5.21c-0.23,1.73-0.46,3.48-0.67,5.25L13,44.16c0.01-0.52,0.01-1.04,0.01-1.56s0-1.03,0-1.55v-6.25
		c0-0.52,0-1.05,0-1.57c0-0.52,0-1.05-0.01-1.57c0-0.15,0.09-0.24,0.26-0.26c0.36-0.01,0.73-0.02,1.11-0.03s0.76-0.01,1.15-0.01
		c0.27-0.81,0.59-1.73,0.98-2.78c0.39-1.05,0.83-2.17,1.3-3.36c0.48-1.19,0.99-2.44,1.53-3.73c0.54-1.3,1.1-2.6,1.68-3.92
		c0.58-1.31,1.15-2.61,1.74-3.88c0.58-1.28,1.15-2.49,1.71-3.65c0.55-1.16,1.08-2.23,1.59-3.22c0.51-0.99,0.97-1.85,1.39-2.58
		c0.19-0.33,0.44-0.53,0.76-0.62c0.32-0.09,0.65-0.13,0.99-0.13c0.25,0,0.49,0.02,0.73,0.06c0.24,0.04,0.5,0.12,0.77,0.24
		c0.5,2.72,0.99,5.3,1.48,7.74c0.49,2.43,0.98,4.78,1.48,7.03c0.5,2.25,1,4.43,1.51,6.53c0.51,2.1,1.03,4.18,1.56,6.23
		c0.96,0.01,1.79,0.02,2.48,0.03s1.17,0.02,1.45,0.03c0.18,0,0.27,0.08,0.27,0.23v0.05c0,0.01-0.01,0.06-0.03,0.14
		c-0.17,0.98-0.34,1.99-0.52,3.03c-0.17,1.04-0.34,2.09-0.51,3.14c-0.17,1.06-0.33,2.11-0.49,3.16s-0.31,2.07-0.44,3.07L37.76,44.16
		z M29.04,31.32c0.64,0,1.32,0,2.04,0.01c0.71,0,1.44,0.01,2.19,0.01c-0.48-2.11-0.95-4.2-1.4-6.25c-0.46-2.06-0.9-4.11-1.34-6.16
		c-0.44-2.05-0.87-4.12-1.29-6.2c-0.42-2.08-0.84-4.2-1.25-6.36H27.9c-1.19,2.41-2.29,4.73-3.28,6.94c-0.99,2.22-1.89,4.36-2.7,6.42
		c-0.81,2.07-1.53,4.06-2.18,5.99s-1.22,3.81-1.71,5.65c1.15-0.02,2.28-0.03,3.39-0.03c1.11,0,2.12-0.01,3.03-0.01H29.04z"/>
	<path d="M42.33,25.81c0-0.87,0.09-1.75,0.27-2.64c0.18-0.89,0.45-1.76,0.8-2.6c0.35-0.84,0.79-1.62,1.31-2.36
		c0.52-0.73,1.12-1.38,1.8-1.93c0.68-0.55,1.43-0.98,2.27-1.3c0.83-0.32,1.74-0.48,2.72-0.48c1.1,0,2.07,0.23,2.92,0.7
		c0.85,0.46,1.56,1.08,2.13,1.84s1.01,1.63,1.31,2.6c0.3,0.97,0.44,1.96,0.44,2.98c0,0.87-0.09,1.75-0.27,2.64
		c-0.18,0.89-0.45,1.76-0.8,2.6c-0.36,0.84-0.79,1.62-1.31,2.36c-0.52,0.73-1.12,1.38-1.8,1.93c-0.68,0.55-1.43,0.98-2.27,1.3
		c-0.83,0.32-1.74,0.48-2.72,0.48c-1.1,0-2.07-0.23-2.92-0.7c-0.85-0.46-1.55-1.08-2.13-1.84c-0.57-0.76-1-1.63-1.3-2.6
		C42.48,27.81,42.33,26.82,42.33,25.81z M45.41,24.58c0,0.58,0.04,1.18,0.13,1.78c0.09,0.6,0.23,1.18,0.42,1.74
		c0.19,0.56,0.42,1.08,0.7,1.56c0.28,0.49,0.61,0.91,0.99,1.27c0.38,0.36,0.81,0.64,1.29,0.85c0.48,0.21,1,0.31,1.58,0.31
		c0.63,0,1.18-0.14,1.66-0.41c0.48-0.27,0.89-0.63,1.24-1.08c0.35-0.45,0.64-0.96,0.86-1.53c0.23-0.57,0.41-1.17,0.55-1.78
		c0.14-0.61,0.23-1.22,0.29-1.82c0.06-0.6,0.08-1.15,0.08-1.66c0-0.59-0.04-1.19-0.13-1.78c-0.09-0.6-0.23-1.17-0.42-1.73
		c-0.19-0.55-0.42-1.07-0.7-1.56c-0.28-0.48-0.61-0.91-0.99-1.26c-0.38-0.36-0.81-0.64-1.29-0.84c-0.48-0.21-1-0.31-1.58-0.31
		c-0.63,0-1.18,0.13-1.66,0.4c-0.48,0.27-0.89,0.62-1.24,1.07c-0.35,0.45-0.63,0.96-0.86,1.53c-0.23,0.58-0.41,1.17-0.55,1.78
		c-0.14,0.61-0.23,1.22-0.29,1.82C45.44,23.53,45.41,24.09,45.41,24.58z"/>
	<path d="M70.86,33.73c-0.37-1.13-0.76-2.36-1.18-3.66c-0.42-1.31-0.85-2.65-1.3-4.01c-0.45-1.37-0.9-2.73-1.35-4.08
		c-0.46-1.36-0.9-2.64-1.33-3.85l-0.06,0.01c-0.07,1.02-0.14,2.03-0.23,3.03c-0.08,1-0.17,2-0.27,3.01c-0.1,1-0.21,2.02-0.33,3.04
		c-0.12,1.02-0.25,2.06-0.39,3.12c-0.09,0.7-0.2,1.26-0.3,1.69c-0.11,0.43-0.25,0.77-0.42,1.01c-0.18,0.24-0.4,0.4-0.68,0.49
		c-0.27,0.09-0.62,0.13-1.04,0.13c-0.17,0-0.37,0-0.58-0.01c-0.22-0.01-0.45-0.02-0.7-0.04l-0.13-0.14
		c0.34-0.53,0.66-1.15,0.95-1.87c0.29-0.71,0.55-1.47,0.79-2.29c0.24-0.81,0.45-1.65,0.64-2.51c0.19-0.86,0.36-1.71,0.51-2.54
		s0.27-1.63,0.38-2.38c0.11-0.75,0.2-1.42,0.26-2.01c0.07-0.59,0.12-1.07,0.15-1.45c0.03-0.38,0.04-0.61,0.04-0.7
		c0-0.46-0.11-0.78-0.33-0.96c-0.22-0.18-0.52-0.26-0.91-0.26c-0.29,0-0.64,0.04-1.04,0.11c-0.4,0.07-0.82,0.17-1.26,0.28
		l-0.19-0.93c0.68-0.23,1.33-0.43,1.96-0.61s1.19-0.31,1.7-0.42c0.51-0.11,0.94-0.19,1.29-0.24c0.36-0.06,0.6-0.08,0.74-0.08
		c0.22,0,0.42,0.03,0.59,0.09c0.17,0.06,0.33,0.16,0.47,0.3c0.14,0.14,0.27,0.32,0.39,0.55c0.12,0.23,0.24,0.51,0.36,0.84
		c0.32,0.88,0.65,1.83,0.98,2.84c0.34,1.01,0.68,2.04,1.02,3.1c0.34,1.06,0.69,2.11,1.02,3.17c0.34,1.06,0.66,2.07,0.97,3.04h0.08
		c1.04-2.38,2.1-4.66,3.18-6.84c1.08-2.18,2.16-4.23,3.23-6.16c0.1-0.19,0.22-0.34,0.36-0.46c0.14-0.12,0.28-0.2,0.43-0.26
		c0.15-0.06,0.29-0.1,0.44-0.12c0.15-0.02,0.29-0.03,0.42-0.03c0.3,0,0.58,0.03,0.83,0.08c0.25,0.06,0.51,0.15,0.77,0.28
		c-0.09,1-0.18,1.99-0.26,2.97c-0.08,0.98-0.14,1.93-0.2,2.85c-0.06,0.92-0.1,1.79-0.13,2.61c-0.03,0.82-0.04,1.56-0.04,2.23
		c0,0.9,0.01,1.68,0.04,2.33s0.07,1.19,0.12,1.64c0.06,0.44,0.13,0.79,0.22,1.06c0.09,0.26,0.2,0.46,0.33,0.6
		c0.13,0.14,0.27,0.23,0.44,0.28c0.16,0.04,0.35,0.06,0.57,0.06c0.39,0,0.79-0.06,1.22-0.19c0.43-0.12,0.87-0.3,1.33-0.52l0.23,0.67
		c-0.3,0.25-0.68,0.5-1.13,0.76c-0.45,0.26-0.92,0.49-1.4,0.7c-0.48,0.21-0.95,0.38-1.42,0.51c-0.46,0.13-0.86,0.2-1.18,0.2
		c-0.23,0-0.44-0.02-0.63-0.06c-0.19-0.04-0.36-0.14-0.52-0.29c-0.16-0.15-0.3-0.38-0.42-0.68c-0.12-0.3-0.22-0.72-0.3-1.24
		c-0.08-0.52-0.14-1.17-0.18-1.95c-0.04-0.78-0.06-1.73-0.06-2.83c0-0.81,0.01-1.55,0.02-2.22c0.01-0.67,0.03-1.32,0.06-1.96
		c0.03-0.64,0.06-1.29,0.1-1.95c0.04-0.67,0.08-1.41,0.14-2.22l-0.13-0.01c-0.64,1.25-1.26,2.49-1.88,3.73
		c-0.62,1.25-1.23,2.5-1.83,3.77c-0.6,1.27-1.19,2.56-1.76,3.86c-0.58,1.31-1.14,2.65-1.7,4.03L70.86,33.73z"/>
	<path d="M97.82,19.97c0-0.68-0.11-1.27-0.34-1.76c-0.22-0.5-0.52-0.91-0.88-1.22c-0.36-0.32-0.77-0.55-1.22-0.71
		c-0.46-0.15-0.91-0.23-1.37-0.23c-0.61,0-1.13,0.06-1.55,0.19c-0.42,0.13-0.76,0.31-1.02,0.53c-0.26,0.22-0.45,0.49-0.57,0.79
		c-0.12,0.31-0.17,0.63-0.17,0.99c0,0.41,0.08,0.83,0.23,1.24c0.15,0.42,0.37,0.82,0.66,1.22l-0.05,0.14
		c-0.49,0.24-0.98,0.36-1.48,0.36c-0.29,0-0.57-0.05-0.82-0.14c-0.25-0.09-0.47-0.22-0.66-0.39c-0.18-0.17-0.33-0.38-0.44-0.63
		c-0.11-0.25-0.16-0.53-0.16-0.84c0-0.51,0.12-0.98,0.37-1.43c0.24-0.45,0.57-0.85,0.97-1.22s0.87-0.7,1.4-0.99
		c0.53-0.29,1.08-0.54,1.65-0.74c0.57-0.2,1.14-0.36,1.71-0.46c0.57-0.11,1.1-0.16,1.59-0.16c0.9,0,1.67,0.12,2.31,0.36
		c0.64,0.24,1.16,0.59,1.56,1.05c0.4,0.46,0.69,1.02,0.88,1.67c0.18,0.65,0.28,1.39,0.28,2.22c0,0.57-0.02,1.19-0.07,1.87
		c-0.05,0.68-0.1,1.39-0.16,2.13c-0.06,0.74-0.11,1.51-0.16,2.3s-0.07,1.58-0.07,2.36c0,1.24,0.23,2.17,0.69,2.79
		c0.46,0.62,1.06,0.93,1.81,0.93c0.66,0,1.4-0.24,2.21-0.73l0.37,0.55c-0.58,0.57-1.2,1.01-1.88,1.31c-0.68,0.3-1.39,0.45-2.14,0.45
		c-0.56,0-1.07-0.09-1.55-0.28c-0.47-0.19-0.88-0.47-1.22-0.84c-0.34-0.37-0.61-0.84-0.8-1.41c-0.19-0.57-0.28-1.22-0.28-1.97
		c0-0.22,0.01-0.45,0.02-0.67c0.01-0.22,0.04-0.46,0.08-0.71h-0.08c-0.37,0.74-0.8,1.47-1.28,2.18c-0.48,0.72-1.02,1.36-1.6,1.92
		c-0.58,0.56-1.2,1.02-1.85,1.37c-0.66,0.35-1.35,0.52-2.07,0.52c-0.59,0-1.13-0.1-1.62-0.31c-0.49-0.21-0.91-0.49-1.26-0.85
		c-0.35-0.36-0.62-0.79-0.81-1.28c-0.19-0.49-0.29-1.03-0.29-1.62c0-0.76,0.14-1.44,0.42-2.06c0.28-0.62,0.67-1.17,1.16-1.66
		c0.49-0.49,1.08-0.91,1.77-1.27c0.69-0.36,1.43-0.65,2.24-0.89c0.81-0.24,1.66-0.41,2.56-0.53c0.9-0.12,1.82-0.17,2.76-0.17
		c0.06-0.54,0.11-1.06,0.15-1.57C97.8,21.14,97.82,20.58,97.82,19.97z M89.91,28.82c0,0.34,0.04,0.65,0.11,0.96
		c0.07,0.3,0.19,0.57,0.35,0.8c0.16,0.23,0.36,0.41,0.6,0.55c0.24,0.13,0.54,0.2,0.88,0.2c0.39,0,0.79-0.09,1.2-0.27
		c0.41-0.18,0.82-0.43,1.22-0.75c0.4-0.32,0.78-0.7,1.15-1.14c0.37-0.44,0.69-0.93,0.99-1.45c0.29-0.52,0.53-1.08,0.73-1.66
		c0.19-0.58,0.32-1.17,0.38-1.78c-0.63,0.02-1.27,0.06-1.89,0.12c-0.63,0.06-1.22,0.17-1.78,0.3c-0.56,0.14-1.08,0.32-1.56,0.54
		c-0.48,0.22-0.89,0.5-1.24,0.83c-0.35,0.33-0.62,0.72-0.82,1.17C90.01,27.71,89.91,28.23,89.91,28.82z"/>
	<path d="M108.31,18.4c0-0.27-0.01-0.53-0.04-0.75c-0.03-0.23-0.09-0.42-0.18-0.59c-0.09-0.16-0.22-0.29-0.39-0.38
		c-0.17-0.09-0.4-0.14-0.7-0.14c-0.27,0-0.62,0.04-1.02,0.12c-0.41,0.08-0.92,0.2-1.54,0.36l-0.19-0.93
		c1.43-0.5,2.61-0.86,3.53-1.09c0.92-0.23,1.56-0.35,1.92-0.35c0.23,0,0.45,0.03,0.64,0.1c0.2,0.06,0.37,0.17,0.51,0.32
		c0.14,0.15,0.25,0.35,0.33,0.61c0.08,0.25,0.12,0.56,0.12,0.93c0,0.02-0.01,0.24-0.04,0.66c-0.03,0.42-0.06,0.98-0.1,1.67
		c-0.04,0.69-0.09,1.47-0.13,2.36c-0.04,0.88-0.09,1.8-0.13,2.74c-0.04,0.94-0.08,1.88-0.1,2.81c-0.03,0.94-0.04,1.8-0.04,2.59
		c0,0.41,0.01,0.76,0.03,1.06c0.02,0.29,0.1,0.53,0.23,0.73c0.13,0.19,0.33,0.33,0.6,0.42c0.27,0.09,0.67,0.14,1.17,0.14h0.81
		c0.25,0,0.52,0,0.82-0.01c0.3,0,0.59-0.01,0.89-0.01c0.3,0,0.6,0,0.9-0.01c0.3,0,0.58-0.01,0.85-0.01
		c0.01-1.08,0.03-2.27,0.07-3.56c0.04-1.29,0.09-2.63,0.14-4.03c0.06-1.39,0.12-2.8,0.19-4.22c0.07-1.43,0.15-2.82,0.22-4.17
		c0.02-0.36,0.16-0.63,0.43-0.81c0.27-0.18,0.63-0.27,1.06-0.27c0.45,0,0.91,0.12,1.39,0.37c-0.26,2.96-0.45,5.83-0.59,8.61
		c-0.13,2.78-0.2,5.48-0.2,8.1h4.75c0.3,0,0.61,0,0.94,0c0.33,0,0.66,0,1-0.01c-0.03-0.18-0.06-0.37-0.08-0.57
		c-0.02-0.2-0.04-0.41-0.04-0.64c-0.01-0.23-0.02-0.48-0.02-0.76c-0.01-0.27-0.01-0.58-0.01-0.93c0-0.74,0.01-1.56,0.03-2.45
		c0.02-0.9,0.05-1.88,0.09-2.96s0.09-2.25,0.16-3.52c0.06-1.28,0.14-2.66,0.23-4.15c0.02-0.36,0.17-0.63,0.44-0.81
		c0.28-0.18,0.64-0.27,1.08-0.27c0.46,0,0.92,0.12,1.4,0.37c-0.09,0.98-0.16,1.88-0.23,2.71c-0.06,0.83-0.12,1.6-0.17,2.32
		c-0.05,0.72-0.09,1.39-0.12,2.03c-0.03,0.64-0.06,1.26-0.08,1.87c-0.02,0.61-0.04,1.22-0.04,1.82c-0.01,0.61-0.01,1.23-0.01,1.89
		c0,0.69,0.01,1.27,0.02,1.75c0.01,0.48,0.05,0.88,0.11,1.2c0.06,0.32,0.16,0.58,0.3,0.77c0.14,0.19,0.33,0.34,0.57,0.44
		c0.24,0.1,0.56,0.18,0.94,0.23c0.38,0.05,0.85,0.09,1.4,0.12l-0.04,1.12c-1.04-0.03-2.1-0.05-3.19-0.06
		c-1.09-0.01-2.15-0.02-3.18-0.03c-1.04-0.01-2.02-0.01-2.95-0.01c-0.93,0-1.76,0-2.48,0c-1.38,0-2.69,0.01-3.93,0.02
		c-1.24,0.01-2.33,0.03-3.29,0.04c-0.96,0.01-1.74,0.03-2.34,0.04c-0.6,0.01-0.96,0.02-1.07,0.02c-0.42,0-0.77-0.05-1.04-0.14
		c-0.28-0.09-0.5-0.23-0.66-0.42c-0.17-0.18-0.29-0.41-0.35-0.68c-0.07-0.27-0.1-0.57-0.1-0.93c0-0.17,0.01-0.48,0.04-0.91
		c0.03-0.44,0.06-0.97,0.09-1.61c0.03-0.64,0.07-1.35,0.12-2.14c0.04-0.79,0.08-1.63,0.12-2.52c0.03-0.89,0.06-1.81,0.09-2.76
		C108.29,20.28,108.31,19.34,108.31,18.4z"/>
	<path d="M137.43,18.4c0-0.27-0.01-0.53-0.04-0.75c-0.03-0.23-0.09-0.42-0.18-0.59c-0.09-0.16-0.22-0.29-0.39-0.38
		c-0.17-0.09-0.4-0.14-0.7-0.14c-0.27,0-0.62,0.04-1.02,0.12c-0.41,0.08-0.92,0.2-1.54,0.36l-0.19-0.93
		c1.45-0.5,2.64-0.86,3.55-1.09c0.92-0.23,1.56-0.35,1.92-0.35c0.22,0,0.43,0.03,0.63,0.1c0.2,0.06,0.37,0.17,0.52,0.32
		c0.15,0.15,0.27,0.35,0.36,0.61s0.13,0.56,0.13,0.93c0,0.11-0.01,0.37-0.03,0.76s-0.05,0.89-0.09,1.47
		c-0.04,0.59-0.08,1.25-0.12,1.97c-0.04,0.73-0.09,1.48-0.13,2.25c0.76-0.03,1.51-0.06,2.24-0.09c0.73-0.03,1.45-0.04,2.16-0.06
		s1.43-0.03,2.14-0.04c0.71-0.01,1.44-0.02,2.18-0.03c0.03-1.07,0.06-2.18,0.11-3.32c0.05-1.14,0.11-2.37,0.2-3.69
		c0.02-0.24,0.08-0.44,0.19-0.59c0.11-0.15,0.25-0.27,0.41-0.35c0.16-0.08,0.33-0.14,0.51-0.17c0.18-0.03,0.35-0.05,0.52-0.05
		c0.29,0,0.56,0.03,0.82,0.1c0.25,0.06,0.51,0.16,0.77,0.29c-0.13,1-0.24,1.98-0.34,2.96c-0.1,0.98-0.18,1.92-0.24,2.83
		c-0.07,0.91-0.11,1.77-0.15,2.59s-0.05,1.56-0.05,2.23c0,0.9,0.01,1.68,0.04,2.33s0.07,1.19,0.13,1.64
		c0.06,0.44,0.14,0.79,0.24,1.06s0.22,0.46,0.35,0.6c0.13,0.14,0.29,0.23,0.46,0.28c0.18,0.04,0.38,0.06,0.6,0.06
		c0.41,0,0.84-0.06,1.29-0.19c0.45-0.12,0.91-0.3,1.4-0.52l0.24,0.67c-0.31,0.25-0.7,0.5-1.17,0.75c-0.47,0.25-0.96,0.49-1.48,0.7
		s-1.01,0.38-1.49,0.52c-0.48,0.13-0.89,0.2-1.23,0.2c-0.24,0-0.46-0.02-0.66-0.06s-0.38-0.14-0.53-0.29
		c-0.16-0.15-0.3-0.38-0.42-0.68c-0.12-0.3-0.22-0.72-0.3-1.24c-0.08-0.52-0.14-1.17-0.18-1.95c-0.04-0.78-0.06-1.73-0.06-2.83
		v-1.16c0-0.21,0-0.43,0-0.65c0-0.22,0-0.44,0.01-0.68c-1.47,0-2.91,0.02-4.33,0.06c-1.42,0.04-2.9,0.11-4.45,0.19
		c-0.07,1.36-0.12,2.77-0.17,4.23c-0.04,1.46-0.07,2.96-0.08,4.49l-2.78,0.34l-0.21-0.01c0.06-0.83,0.12-1.74,0.17-2.72
		c0.06-0.98,0.11-1.98,0.15-2.99c0.05-1.01,0.09-2,0.13-2.99c0.04-0.98,0.07-1.9,0.1-2.74c0.03-0.84,0.05-1.58,0.06-2.23
		C137.42,19.23,137.43,18.74,137.43,18.4z"/>
	<path d="M162.51,15.09c-0.15,0.98-0.27,1.96-0.37,2.94c-0.1,0.98-0.19,1.93-0.25,2.85c-0.06,0.92-0.11,1.79-0.14,2.61
		c-0.03,0.82-0.04,1.56-0.04,2.22c0,0.89,0.01,1.66,0.04,2.3s0.07,1.18,0.13,1.62c0.06,0.44,0.14,0.79,0.23,1.05
		c0.09,0.26,0.2,0.46,0.33,0.61c0.13,0.14,0.29,0.23,0.46,0.28s0.38,0.06,0.6,0.06c0.41,0,0.86-0.06,1.33-0.19
		c0.48-0.12,0.96-0.3,1.45-0.52l0.24,0.67c-0.31,0.25-0.7,0.5-1.17,0.76c-0.47,0.26-0.96,0.49-1.48,0.71s-1.02,0.39-1.51,0.52
		c-0.49,0.13-0.92,0.2-1.28,0.2c-0.24,0-0.46-0.02-0.66-0.06c-0.2-0.04-0.38-0.14-0.53-0.29c-0.16-0.16-0.3-0.38-0.43-0.68
		c-0.12-0.3-0.23-0.71-0.31-1.22c-0.08-0.52-0.14-1.16-0.19-1.93c-0.04-0.77-0.06-1.71-0.06-2.81c0-0.64,0.01-1.37,0.02-2.18
		c0.01-0.81,0.03-1.68,0.06-2.62c0.03-0.93,0.06-1.91,0.1-2.95c0.04-1.03,0.1-2.1,0.17-3.2c0.02-0.24,0.08-0.44,0.19-0.59
		c0.11-0.15,0.25-0.27,0.41-0.35c0.16-0.08,0.34-0.14,0.52-0.17s0.36-0.05,0.51-0.05C161.46,14.69,162,14.82,162.51,15.09z
		 M161.39,9.27c-0.3,0-0.57-0.06-0.8-0.19c-0.23-0.12-0.43-0.29-0.59-0.49c-0.16-0.2-0.29-0.43-0.37-0.7
		c-0.09-0.26-0.13-0.53-0.13-0.8c0-0.39,0.06-0.73,0.19-1.02c0.13-0.3,0.3-0.55,0.5-0.75s0.43-0.35,0.68-0.45
		c0.25-0.1,0.49-0.15,0.73-0.15c0.29,0,0.55,0.05,0.79,0.16c0.23,0.11,0.43,0.26,0.6,0.44c0.17,0.19,0.3,0.41,0.39,0.65
		c0.09,0.24,0.14,0.51,0.14,0.79c0,0.3-0.05,0.6-0.16,0.9s-0.25,0.56-0.43,0.8c-0.18,0.24-0.41,0.43-0.67,0.58
		C162,9.2,161.71,9.27,161.39,9.27z"/>
</g>
</svg>
