<svg id="Capa_1" data-name="Capa 1" xmlns="http://www.w3.org/2000/svg" viewBox="0 0 92.04 94.63"><defs><style>.cls-1{fill:#f9b233;}.cls-2{fill:#575756;}</style></defs><path d="M1285,299.56a.77.77,0,0,0-.82.53c-.35,3.07-.68,6.05-1,9q-1.19,10.44-2.36,20.9c-.7,6.19-1.38,12.37-2.08,18.56s-1.41,12.37-2.11,18.55c-.18,1.59-.36,3.18-.52,4.78-.13,1.38-.82,1.85-2.77,1.85h-56.66c-1.89,0-2.57-.48-2.72-1.81q-1.4-12.45-2.81-24.89c-.92-8.15-1.81-16.29-2.73-24.43q-1.26-11.24-2.55-22.47a.17.17,0,0,1,0-.1.78.78,0,0,0-.82-.51h-3.26c-2,0-2.8-.6-2.81-2v-5.81c0-1.34.78-1.91,2.68-1.93h8.15c.7,0,1-.16,1.26-.63,1.44-2.8,2.93-5.63,4.38-8.45.71-1.36,1.17-1.6,3.15-1.6h52.85c1.91,0,2.4.26,3.08,1.56,1.46,2.82,3,5.64,4.38,8.47.25.5.57.68,1.33.67h7.93c2.1,0,2.85.55,2.85,2v5.74c0,1.36-.84,2-2.74,2Z" transform="translate(-1198.93 -279.1)"/><path class="cls-1" d="M1210.22,300.44q3.91,35,7.82,69.91c0,.3.39.53.81.53h52.28c.42,0,.78-.23.81-.53q3.91-35,7.82-69.91c0-.34-.34-.63-.82-.63H1211C1210.56,299.81,1210.18,300.1,1210.22,300.44Z" transform="translate(-1198.93 -279.1)"/><path class="cls-2" d="M1270.89,282.43a.85.85,0,0,0-.75-.38h-50c-.66,0-1,.16-1.17.59-1.45,2.86-2.94,5.7-4.42,8.55-.71,1.37-1.14,1.58-3.15,1.58h-7.22c-.45,0-.81.26-.81.59v2.39c0,.32.36.58.81.58h81.62c.45,0,.81-.26.81-.58v-2.4c0-.33-.37-.59-.82-.59h-7c-2.25,0-2.6-.17-3.38-1.68Z" transform="translate(-1198.93 -279.1)"/><path d="M1266.86,337.6a37.6,37.6,0,0,0,.39,4.5c0,.24.09.91.21,2s.17,2,.18,3a5,5,0,0,1-1.39,3.85,5.25,5.25,0,0,1-3.75,1.29h-1.77v-2.13h1.34a3.33,3.33,0,0,0,2.36-.76,3.17,3.17,0,0,0,.8-2.41,26.69,26.69,0,0,0-.18-2.82c-.12-1.05-.19-1.7-.21-2a35.85,35.85,0,0,1-.39-4.64,5.38,5.38,0,0,1,1-3.27,4.86,4.86,0,0,1,3-1.79v-.07a4.93,4.93,0,0,1-3-1.79,5.39,5.39,0,0,1-1-3.28,36.77,36.77,0,0,1,.39-4.68c0-.23.09-.88.21-1.93a26.33,26.33,0,0,0,.18-2.81,3.18,3.18,0,0,0-.8-2.41,3.37,3.37,0,0,0-2.36-.75h-1.34v-2.11h1.77a5.26,5.26,0,0,1,3.75,1.3,5,5,0,0,1,1.39,3.84,29.82,29.82,0,0,1-.18,3c-.12,1.1-.19,1.75-.21,2a34.62,34.62,0,0,0-.39,4.54q0,3.3,3.72,4.14v2Q1266.86,334.31,1266.86,337.6Z" transform="translate(-1198.93 -279.1)"/><path d="M1219.4,331.29q3.72-.84,3.72-4.14a38.44,38.44,0,0,0-.39-4.54c0-.21-.09-.86-.21-2a29.82,29.82,0,0,1-.18-3,5,5,0,0,1,1.38-3.84,5.27,5.27,0,0,1,3.76-1.3h1.77v2.16H1228a3.35,3.35,0,0,0-2.4.72,3.18,3.18,0,0,0-.8,2.41,24.5,24.5,0,0,0,.2,2.85c.12,1.05.19,1.7.21,1.93a40.83,40.83,0,0,1,.39,4.68,5.33,5.33,0,0,1-1,3.28,4.91,4.91,0,0,1-3,1.79v.06a4.82,4.82,0,0,1,3,1.79,5.32,5.32,0,0,1,1,3.27,39.77,39.77,0,0,1-.39,4.64c0,.26-.09.92-.21,2a26.69,26.69,0,0,0-.18,2.82,3.17,3.17,0,0,0,.8,2.41,3.33,3.33,0,0,0,2.35.74h1.33v2.16h-1.77a5.29,5.29,0,0,1-3.76-1.29,5,5,0,0,1-1.38-3.85q0-1.5.18-3c.12-1.09.19-1.76.21-2a37.6,37.6,0,0,0,.39-4.5c0-2.19-1.24-3.59-3.72-4.18Z" transform="translate(-1198.93 -279.1)"/><path d="M1257.51,319.67l-9,17.41v8.11h-7.12v-8.11l-9-17.41h8.11l4.49,9.85,4.49-9.85Z" transform="translate(-1198.93 -279.1)"/></svg>