<svg width="70" height="70" xmlns="//www.w3.org/2000/svg" xmlns:svg="//www.w3.org/2000/svg" viewBox="0 0 70 70">
	<path fill="none" stroke="#86CAEF" stroke-width="2" stroke-linecap="round" stroke-miterlimit="22.9256" d="M46.871,17.672h4.875
    c0.988,0,1.934,0.922,1.797,2.023l-6.027,42.339c-0.254,2.078-1.563,2.813-3.082,2.813H25.059c-1.906,0-2.523-1.547-2.727-3.004
    l-5.875-42.148c-0.137-1.102,0.809-2.023,1.801-2.023h15.168 M19.551,32.215c10.73,0,21.457,0,32.188,0 M35.016,31.989
    c2.863-8.688,5.723-17.375,7.402-21.945s2.18-5.02,2.824-4.867c0.645,0.148,1.434,0.898,2.527,2.086
    c1.098,1.188,2.504,2.813,3.906,4.438">
	</path>
</svg>
