<svg width="70" height="70" xmlns="//www.w3.org/2000/svg" xmlns:svg="//www.w3.org/2000/svg" viewBox="0 0 70 70">
	<path fill="none" stroke="#86CAEF" stroke-width="2" stroke-miterlimit="22.9256" d="M14.834,32.122
    c-0.441-1.135-0.82-2.477-0.887-3.902c-0.117-2.486,0.719-5.229,2.762-6.947c2.047-1.719,5.301-2.416,8.109-3.484
    c2.813-1.07,5.184-2.51,5.742-4.461c0.555-1.953-0.699-4.414-2.094-5.715c-1.391-1.301-2.926-1.441-1.789-1.883
    c1.141-0.441,4.949-1.185,9.316,0.023c4.367,1.209,9.292,4.367,12.617,7.434c3.32,3.066,5.039,6.043,6.109,8.504
    c1.07,2.463,1.488,4.414,1.488,6.645c0,1.254-0.133,2.594-0.332,3.787H14.834L14.834,32.122z">
	</path>
	<path fill="none" stroke="#86CAEF" stroke-width="2" stroke-linecap="round" stroke-linejoin="round" stroke-miterlimit="22.9256" d="
    M12.151,32.122h45.695c0.625,0,1.293,0.531,1.133,1.135L51.01,63.77c-0.156,0.604-0.508,1.135-1.133,1.135H19.749
    c-0.625,0-0.984-0.529-1.137-1.135l-7.594-30.513C10.87,32.651,11.53,32.122,12.151,32.122L12.151,32.122z">
	</path>
</svg>
