<svg width="70" height="70" xmlns="//www.w3.org/2000/svg" xmlns:svg="//www.w3.org/2000/svg" viewBox="0 0 70 70">
	<path fill="none" stroke="#86CAEF" stroke-width="2" stroke-linecap="round" stroke-linejoin="round" stroke-miterlimit="22.9256" d="
    M45.271,25.515c3.223-3.559,6.443-7.117,9.24-10.355c2.797-3.234,5.17-6.148,7.232-7.02c2.063-0.867,3.813,0.309,2.949,2.75
    c-0.861,2.445-4.336,6.16-6.898,8.852c-2.559,2.695-4.207,4.371-5.854,6.047">
	</path>
	<path fill="none" stroke="#86CAEF" stroke-width="2" stroke-linecap="round" stroke-linejoin="round" stroke-miterlimit="22.9256" d="
    M6.459,24.906c2.348-4.691,7.936-7.184,12.371-7.184c4.922,0,6.758,1.305,9.225,3.461">
	</path>
	<path fill="none" stroke="#86CAEF" stroke-width="2" stroke-linecap="round" stroke-linejoin="round" stroke-miterlimit="22.9256" d="
    M56.275,22.015c0.953,0.953,1.873,2.031,2.578,3.234">
	</path>
	<path fill="none" stroke="#86CAEF" stroke-width="2" stroke-linecap="round" stroke-linejoin="round" stroke-miterlimit="22.9256" d="
    M38.389,24.953c-0.324-0.375-0.674-0.727-1.043-1.051c2.324-3.184,6.086-5.254,10.332-5.254c0.924,0,1.828,0.098,2.695,0.285">
	</path>
	<path fill="none" stroke="#86CAEF" stroke-width="2" stroke-linecap="round" stroke-linejoin="round" stroke-miterlimit="22.9256" d="
    M23.098,57.421C12.584,53.573,5.081,43.479,5.081,31.636c0-0.824,0.039-1.637,0.109-2.441h54.683
    c0.07,0.805,0.109,1.617,0.109,2.441c0,11.843-7.504,21.937-18.018,25.785H29.631">
	</path>
	<path fill="none" stroke="#86CAEF" stroke-width="2" stroke-linecap="round" stroke-linejoin="round" stroke-miterlimit="22.9256" d="
    M20.895,25.359c2.084-2.625,5.303-4.309,8.916-4.309c3.59,0,6.789,1.66,8.875,4.254">
	</path>
	<path fill="none" stroke="#86CAEF" stroke-width="2" stroke-linecap="round" stroke-linejoin="round" stroke-miterlimit="22.9256" d="
    M29.788,57.421h12.097v3.965c-0.029,0.469-0.271,0.742-0.801,0.758h-17.21c-0.67-0.043-1.063-0.367-1.016-1.133v-2.652">
	</path>
</svg>
