<svg width="70" height="70" xmlns="//www.w3.org/2000/svg" xmlns:svg="//www.w3.org/2000/svg" viewBox="0 0 70 70">
	<path fill="none" stroke="#86CAEF" stroke-width="2" stroke-linecap="round" stroke-linejoin="round" stroke-miterlimit="22.9256" d="
    M13.68,52.982c-2.613-2.242-4.176-5.16-5.328-7.773c-1.156-2.613-1.902-4.922-1.699-6.348s1.359-1.969,2.613-2.445
    c1.258-0.477,2.617-0.883,3.43-0.441c0.816,0.441,0.652,1.938,0.891,2.648s1.258,1.027,1.969-0.027
    c0.715-1.051,1.555-3.672,3.387-5.539s4.277-3.363,7.164-4.313c2.883-0.949,6.211-1.359,9.164-1.152
    c2.953,0.203,5.535,1.016,7.945,2.477c4.078,2.469,7.371,6.539,9.074,10.984c1.398-0.121,2.586-0.688,3.676-1.555
    c0.977-0.781-0.766-0.559-0.766-2.871c0-1.457,1.578-3.137,3.137-3.137s2.559,0.898,2.977,2.145
    c1.727,0.004,3.125,1.406,3.125,3.133c0,1.73-1.887,3.137-3.137,3.137c-2.645,0-1.188-1.719-3.027,0.641
    c-0.102,0.148-0.211,0.309-0.336,0.48c-3.648,5.219-3.176,12.27-9.762,13.441l-0.324,0.055H21.973
    C18.582,55.799,15.645,54.666,13.68,52.982L13.68,52.982z">
	</path>
	<path fill="none" stroke="#86CAEF" stroke-width="2" stroke-linecap="round" stroke-linejoin="round" stroke-miterlimit="22.9256" d="
    M34.574,63.518H34.25H17.609c-1.008-0.082-2.004-0.328-2.949-1.16l-1.465-1.211c-0.285-0.297-0.68-0.527-1.309-0.609H6.391
    c-0.457,0-0.828-0.371-0.828-0.828V57.35c0-0.453,0.371-0.828,0.828-0.828H34.25h0.324h27.859c0.457,0,0.828,0.375,0.828,0.828
    v2.359c0,0.457-0.371,0.828-0.828,0.828h-4.984c-0.727-0.023-1.305,0.168-1.75,0.551l-1.531,1.27
    c-0.949,0.832-1.945,1.078-2.953,1.16H34.574L34.574,63.518z">
	</path>
	<path fill="none" stroke="#86CAEF" stroke-width="2" stroke-linecap="round" stroke-linejoin="round" stroke-miterlimit="22.9256" d="
    M52.289,41.053c-1.688,0.129-3.375,0.258-5.141,0.18c-1.762-0.078-3.602-0.359-5.23,0.148c-1.633,0.508-3.055,1.801-3.672,3.297
    s-0.43,3.191-0.242,4.883">
	</path>
	<path fill="none" stroke="#86CAEF" stroke-width="2" stroke-linecap="round" stroke-linejoin="round" stroke-miterlimit="22.9256" d="
    M26.805,15.506c0.535-0.68,1.074-1.355,1.445-2.09c0.371-0.738,0.574-1.531,0.598-2.285c0.023-0.758-0.137-1.469-0.441-2.094
    c-0.309-0.621-0.77-1.152-1.121-1.563c-0.348-0.41-0.59-0.703-0.832-0.992">
	</path>
	<path fill="none" stroke="#86CAEF" stroke-width="2" stroke-linecap="round" stroke-linejoin="round" stroke-miterlimit="22.9256" d="
    M27.152,23.494c-0.559-0.652-1.113-1.309-1.469-2.027s-0.516-1.504-0.516-2.254s0.16-1.461,0.465-2.086
    c0.309-0.621,0.77-1.152,1.121-1.563c0.348-0.414,0.59-0.703,0.816-1.016c0.223-0.316,0.426-0.652,0.633-0.992">
	</path>
	<path fill="none" stroke="#86CAEF" stroke-width="2" stroke-linecap="round" stroke-linejoin="round" stroke-miterlimit="22.9256" d="
    M37.531,15.506c0.535-0.68,1.074-1.355,1.445-2.09c0.371-0.738,0.574-1.531,0.598-2.285c0.023-0.758-0.137-1.469-0.441-2.094
    c-0.309-0.621-0.77-1.152-1.121-1.563c-0.348-0.41-0.59-0.703-0.832-0.992">
	</path>
	<path fill="none" stroke="#86CAEF" stroke-width="2" stroke-linecap="round" stroke-linejoin="round" stroke-miterlimit="22.9256" d="
    M37.879,23.494c-0.555-0.652-1.113-1.309-1.469-2.027s-0.516-1.504-0.516-2.254s0.16-1.461,0.469-2.086
    c0.305-0.621,0.766-1.152,1.117-1.563c0.352-0.414,0.59-0.703,0.816-1.016c0.223-0.316,0.426-0.652,0.633-0.992">
	</path>
</svg>
