<svg width="70" height="70" xmlns="//www.w3.org/2000/svg" xmlns:svg="//www.w3.org/2000/svg" viewBox="0 0 70 70">
	<path fill="none" stroke="#86CAEF" stroke-width="2" stroke-linecap="round" stroke-linejoin="round" stroke-miterlimit="22.9256" d="
    M63.425,28.225c0-7-5.611-12.73-12.471-12.73H35.013h-4.594H19.048c-6.855,0-12.473,5.73-12.473,12.73c0,12.09,0,24.18,0,36.27
    h56.551C63.126,52.366,63.425,40.312,63.425,28.225L63.425,28.225z M20.03,32.741c-0.627-0.488-1.256-0.977-1.936-1.309
    s-1.414-0.512-2.109-0.523c-0.693-0.016-1.348,0.137-1.918,0.43c-0.568,0.289-1.053,0.715-1.426,1.043
    c-0.375,0.328-0.639,0.551-0.902,0.777 M27.372,32.334c-0.594,0.52-1.189,1.035-1.848,1.371c-0.656,0.336-1.377,0.488-2.066,0.496
    s-1.348-0.129-1.922-0.406c-0.576-0.273-1.07-0.691-1.451-1.012c-0.381-0.316-0.65-0.535-0.943-0.738
    c-0.291-0.203-0.605-0.387-0.918-0.57 M34.788,32.706c-0.627-0.484-1.254-0.973-1.936-1.309c-0.68-0.332-1.414-0.508-2.107-0.523
    c-0.695-0.012-1.35,0.141-1.918,0.43s-1.053,0.719-1.428,1.047c-0.375,0.324-0.639,0.551-0.902,0.777 M42.13,32.299
    c-0.594,0.52-1.188,1.039-1.846,1.375s-1.379,0.488-2.068,0.496c-0.688,0.008-1.346-0.129-1.922-0.406s-1.07-0.695-1.451-1.012
    s-0.65-0.535-0.943-0.738c-0.289-0.203-0.604-0.387-0.918-0.574 M49.204,32.885c-0.627-0.488-1.254-0.977-1.934-1.309
    c-0.684-0.332-1.416-0.512-2.109-0.523c-0.695-0.016-1.35,0.137-1.918,0.43c-0.57,0.289-1.055,0.719-1.428,1.043
    c-0.373,0.328-0.639,0.551-0.902,0.777 M56.546,32.479c-0.594,0.52-1.189,1.035-1.846,1.371c-0.658,0.336-1.379,0.488-2.066,0.496
    c-0.691,0.008-1.348-0.129-1.922-0.406c-0.578-0.273-1.07-0.691-1.453-1.012c-0.381-0.316-0.65-0.535-0.941-0.738
    c-0.293-0.203-0.605-0.387-0.918-0.574">
	</path>
	<path fill-rule="evenodd" clip-rule="evenodd" fill="#FFFFFF" stroke="#86CAEF" stroke-width="2" stroke-linecap="round" stroke-linejoin="round" stroke-miterlimit="22.9256" d="
    M36.515,16.084c-0.082-0.898-0.254-2.715-0.979-4.379c-0.723-1.66-1.998-3.168-3.395-4.184c-1.395-1.02-2.912-1.551-3.701-1.828
    c-0.789-0.273-0.85-0.293-0.891,0.234s-0.061,1.602,0.264,2.859c0.328,1.258,1,2.703,1.879,3.879
    c0.883,1.176,1.969,2.078,3.152,2.746c1.18,0.664,2.453,1.094,3.098,1.32C36.583,16.959,36.595,16.983,36.515,16.084L36.515,16.084
    z">
	</path>
	<path fill-rule="evenodd" clip-rule="evenodd" fill="#FFFFFF" stroke="#86CAEF" stroke-width="2" stroke-linecap="round" stroke-linejoin="round" stroke-miterlimit="22.9256" d="
    M33.073,19.6c0.107-1.168,0.33-3.531,1.273-5.695c0.941-2.16,2.6-4.121,4.211-5.387s3.178-1.836,4.143-2.199
    c0.965-0.359,1.326-0.512,1.506,0.332c0.182,0.844,0.182,2.684-0.18,4.324s-1.086,3.09-2.154,4.398
    c-1.07,1.313-2.486,2.488-4.023,3.352c-1.535,0.867-3.193,1.426-4.029,1.719S32.968,20.768,33.073,19.6L33.073,19.6z">
	</path>
</svg>
