<svg width="70" height="70" xmlns="//www.w3.org/2000/svg" xmlns:svg="//www.w3.org/2000/svg" viewBox="0 0 70 70">
	<path fill="none" stroke="#86CAEF" stroke-width="2" stroke-linecap="round" stroke-linejoin="round" stroke-miterlimit="22.9256" d="
    M34.405,15.76c0.539-0.68,1.076-1.355,1.447-2.09c0.371-0.738,0.574-1.531,0.598-2.285c0.021-0.758-0.135-1.469-0.443-2.094
    C35.7,8.67,35.239,8.139,34.888,7.729c-0.35-0.41-0.592-0.703-0.832-0.992">
	</path>
	<path fill="none" stroke="#86CAEF" stroke-width="2" stroke-linecap="round" stroke-linejoin="round" stroke-miterlimit="22.9256" d="
    M34.755,23.748c-0.557-0.652-1.113-1.309-1.469-2.027c-0.357-0.719-0.514-1.504-0.514-2.254s0.156-1.461,0.465-2.086
    c0.309-0.621,0.768-1.152,1.119-1.563c0.35-0.414,0.592-0.703,0.816-1.016c0.223-0.316,0.428-0.652,0.633-0.992">
	</path>
	<path fill="none" stroke="#86CAEF" stroke-width="2" stroke-linecap="round" stroke-linejoin="round" stroke-miterlimit="22.9256" d="
    M23.419,15.76c0.539-0.68,1.078-1.355,1.447-2.09c0.371-0.738,0.572-1.531,0.596-2.285c0.023-0.758-0.133-1.469-0.441-2.094
    c-0.309-0.621-0.768-1.152-1.117-1.563c-0.352-0.41-0.594-0.703-0.836-0.992">
	</path>
	<path fill="none" stroke="#86CAEF" stroke-width="2" stroke-linecap="round" stroke-linejoin="round" stroke-miterlimit="22.9256" d="
    M23.767,23.748c-0.555-0.652-1.109-1.309-1.467-2.027s-0.514-1.504-0.514-2.254s0.156-1.461,0.465-2.086
    c0.309-0.621,0.768-1.152,1.117-1.563c0.352-0.414,0.594-0.703,0.816-1.016c0.223-0.316,0.43-0.652,0.635-0.992">
	</path>
	<path fill="none" stroke="#86CAEF" stroke-width="2" stroke-linecap="round" stroke-linejoin="round" stroke-miterlimit="22.9256" d="
    M46.347,15.76c0.537-0.68,1.076-1.355,1.447-2.09c0.371-0.738,0.574-1.531,0.598-2.285c0.021-0.758-0.135-1.469-0.443-2.094
    c-0.309-0.621-0.768-1.152-1.119-1.563c-0.35-0.41-0.592-0.703-0.832-0.992">
	</path>
	<path fill="none" stroke="#86CAEF" stroke-width="2" stroke-linecap="round" stroke-linejoin="round" stroke-miterlimit="22.9256" d="
    M46.696,23.748c-0.557-0.652-1.113-1.309-1.469-2.027c-0.357-0.719-0.514-1.504-0.514-2.254s0.156-1.461,0.465-2.086
    c0.309-0.621,0.768-1.152,1.119-1.563c0.35-0.414,0.59-0.703,0.816-1.016c0.223-0.316,0.428-0.652,0.633-0.992">
	</path>
	<path fill="none" stroke="#86CAEF" stroke-width="2" stroke-linecap="round" stroke-linejoin="round" stroke-miterlimit="22.9256" d="
    M25.567,58.541C15.054,54.693,7.55,44.6,7.55,32.756c0-0.824,0.039-1.637,0.109-2.441h54.682c0.072,0.805,0.109,1.617,0.109,2.441
    c0,11.844-7.504,21.938-18.016,25.785H32.099 M32.497,58.541h12.098v3.965c-0.029,0.469-0.271,0.742-0.801,0.758H26.581
    c-0.668-0.043-1.061-0.367-1.014-1.133v-2.652">
	</path>
</svg>
