<svg id="Capa_1" data-name="Capa 1" xmlns="http://www.w3.org/2000/svg" viewBox="0 0 61.84 56.29">
	<path d="M53,12.36c-2.56,2.69-4.2,4.36-5.84,6l1.42,1.41c1.65-1.68,3.3-3.36,5.87-6.06Zm6.68-8.5a15.89,15.89,0,0,1-2.64,4c-1.27,1.54-2.76,3.12-4,4.47l1.45,1.38c1.28-1.35,2.81-3,4.13-4.57a17.35,17.35,0,0,0,3-4.64ZM58.05,2.37a1.52,1.52,0,0,1,1.54,0c.16.13.43.52.08,1.51l1.88.67A3.23,3.23,0,0,0,60.88.81,3.5,3.5,0,0,0,57.27.52ZM51.19,9.12C52.6,7.48,53.87,6,55,4.77a10.29,10.29,0,0,1,3-2.4L57.27.52A12.32,12.32,0,0,0,53.6,3.38c-1.22,1.26-2.54,2.83-3.93,4.43ZM41.93,19.49c3.22-3.55,6.45-7.12,9.26-10.37L49.67,7.81c-2.78,3.23-6,6.78-9.22,10.34Zm5.22-1.1a1,1,0,1,0,1.42,1.41Zm6.56-5.34L53,12.36h0Zm6.9-8.85-.94-.34h0Zm-3-2.75L57.27.52h0Zm-7.23,7-.76-.66h0Zm-10,9.68a1,1,0,1,0,1.48,1.34Z" transform="translate(0 -0.16)" />
	<path d="M14.75,12a12.61,12.61,0,0,1,5.14.84,13.09,13.09,0,0,1,3.43,2.37l1.31-1.5A14.85,14.85,0,0,0,20.68,11a14.73,14.73,0,0,0-5.93-1ZM3.27,18.66C5.41,14.39,10.6,12,14.75,12V10C10,10,4,12.66,1.48,17.76Zm20.05-3.42a1,1,0,1,0,1.31-1.5ZM1.48,17.76a1,1,0,0,0,.45,1.35,1,1,0,0,0,1.34-.45Z" transform="translate(0 -0.16)" />
	<path d="M51.49,16a16,16,0,0,1,2.42,3l1.72-1a17.31,17.31,0,0,0-2.73-3.44Zm2.42,3a1,1,0,1,0,1.72-1Zm-1-4.45a1,1,0,0,0-1.41,0,1,1,0,0,0,0,1.42Z" transform="translate(0 -0.16)" />
	<path d="M43.6,13a11.29,11.29,0,0,1,2.48.27l.42-2A13.85,13.85,0,0,0,43.6,11ZM34.07,17.8A11.77,11.77,0,0,1,43.6,13V11a13.77,13.77,0,0,0-11.14,5.67Zm1-.19a10.32,10.32,0,0,0-1.14-1.15L32.61,18a9.37,9.37,0,0,1,.94.95Zm11-4.39a1,1,0,1,0,.42-2Zm-12.81,4-.81-.59A1,1,0,0,0,32.61,18Zm.28,1.7a1,1,0,1,0,1.51-1.3Z" transform="translate(0 -0.16)" />
	<path d="M37.88,49.73H25.55v2H37.88Zm17-24.79A26.47,26.47,0,0,1,37.54,49.79l.69,1.88A28.47,28.47,0,0,0,56.9,24.94Zm-.1-2.35c.06.78.1,1.56.1,2.35h2c0-.85,0-1.69-.11-2.53ZM1.11,23.5H55.79v-2H1.11ZM2,24.94c0-.79,0-1.57.11-2.35l-2-.18C0,23.24,0,24.09,0,24.94ZM19.36,49.79A26.47,26.47,0,0,1,2,24.94H0A28.47,28.47,0,0,0,18.67,51.67Zm6.19-.06a1,1,0,0,0,0,2Zm12.33,1v1a1,1,0,0,0,.35-.06ZM55.79,22.5l1-.09a1,1,0,0,0-1-.91Zm-54.68,0v-1a1,1,0,0,0-1,.91ZM18.67,51.67a1,1,0,0,0,1.29-.6,1,1,0,0,0-.6-1.28Z" transform="translate(0 -0.16)" />
	<path d="M25.73,15.36a10.38,10.38,0,0,1,8.1,3.88L35.38,18a12.33,12.33,0,0,0-9.65-4.62ZM17.6,19.29a10.34,10.34,0,0,1,8.13-3.93v-2A12.37,12.37,0,0,0,16,18Zm16.23-.05a1,1,0,0,0,1.4.15A1,1,0,0,0,35.38,18ZM16,18a1,1,0,1,0,1.57,1.25Z" transform="translate(0 -0.16)" />
	<path d="M19.78,54.32V51.66h-2v2.66Zm.08.13a.92.92,0,0,1-.17,0l0,0a.1.1,0,0,1,0,0v0a.57.57,0,0,1,0-.15l-2-.12a2,2,0,0,0,.52,1.59,2.15,2.15,0,0,0,1.43.6Zm17.14,0H19.79v2H37Zm-.19.18c0,.08,0,0,.08-.1a.3.3,0,0,1,.12-.08s0,0,0,0l.06,2a1.81,1.81,0,0,0,1.26-.5,1.75,1.75,0,0,0,.51-1.2Zm0-3.9v4h2v-4Zm-11.09,1H37.8v-2H25.71Zm-5.93-.07a1,1,0,0,0-2,0Zm-1,2.66,1,.06v-.06Zm1,1.13-.06,1h.06Zm17.21,0v1h0Zm.8-.76,1,.06v-.06Zm0-4h1a1,1,0,0,0-1-1Zm-12.09-1a1,1,0,0,0,0,2Z" transform="translate(0 -0.16)" />
</svg>
