<svg width="70" height="70" xmlns="http://www.w3.org/2000/svg" xmlns:svg="http://www.w3.org/2000/svg" viewBox="0 0 70 70">
	<path id="svg_2" d="m35.002,6.4c1.408,0 2.514,0.959 3.162,2.141c1.715,3.14 3.902,10.491 5.865,15.011c5.6,0.736 11.26,1.496 16.914,2.238c3.107,0.408 4.258,4.479 1.689,6.384l-13.109,9.718l4.426,17.307c0.721,2.813 -2.783,5.561 -5.111,3.896l-13.85,-9.91l-13.824,9.895c-2.33,1.664 -5.834,-1.086 -5.113,-3.898l4.426,-17.305l-13.11,-9.72c-2.568,-1.904 -1.418,-5.975 1.691,-6.384l16.918,-2.222l5.867,-15.011c0.512,-1.307 1.794,-2.119 3.159,-2.14l0,0z" stroke-miterlimit="22.9256" stroke-width="2" stroke="#86CAEF" fill="none">
	</path>
</svg>
